<svg xmlns="http://www.w3.org/2000/svg" xmlns:xlink="http://www.w3.org/1999/xlink" preserveAspectRatio="xMidYMid meet" version="1.0" viewBox="-1.5 -0.9 95.4 284.0" zoomAndPan="magnify" style="fill: rgb(30, 30, 30);" original_string_length="8946"><g id="__id133_sqigv5k1gm"><path d="M31.1692,220.0742c0,0,4.0667-8.1334,4.0667-9.4889s25.7556-25.7556,31.1779-29.8223 c2.7666-8.6118,17.6223-25.7556,17.6223-25.7556s4.0667,9.4889,5.4222,18.9778c0.5756,4.0291-3.466,8.5884-8.1334,14.9112 c-1.3556,18.9778-12.2,21.689-29.8223,21.689c-10.8445,5.4222-17.6223,9.4889-17.6223,9.4889 M29.8137,218.7187 c0,0-2.7111-29.8223-9.4889-47.4446s-6.7778-21.689-12.2-20.3334c-5.4222,1.3556-6.7778,16.2667-4.0667,29.8223 S16.2581,222.7854,29.8137,218.7187z M50.1471,149.5851c0,0,1.3556-20.3334-6.7778-40.6668S20.3248,66.8959,16.2581,66.8959 s-8.1334,10.8445-4.0667,20.3334s16.2667,25.7556,16.2667,35.2446c0,9.4889,12.2,29.8223,20.3334,35.2446 c1.3556-5.4222,17.6223-4.0667,32.5335-16.2667c10.8445-13.5556,9.4889-46.0891,9.4889-46.0891l-8.1334-21.689 c0,0-9.4889,12.2-9.4889,21.689S56.9249,146.874,50.1471,149.5851z M52.1804,97.396c0,0,8.1334-12.2,8.1334-39.3113 S25.0692,5.2179,16.9359,1.1512C14.2247,11.9957,19.647,41.818,27.7803,54.0181s24.4001,51.5113,24.4001,51.5113V97.396z" style="fill: rgb(254, 254, 253);"/></g><g id="__id134_sqigv5k1gm"><path d="M30.1804,219.1512l-3,1l-6.4348-3.8696c0,0-5.5652-7.1304-12.5652-29.1304s2-32,2-32 C18.1804,164.1512,30.1804,219.1512,30.1804,219.1512z M11.7271,71.7659c-6.9534,13.1147,17.0674,36.3596,16.5133,48.3839 c-1.0599,23.0014,20.4401,37.5014,20.4401,37.5014v-12c0,0-5-31-11-42S11.7271,71.7659,11.7271,71.7659 M83.1804,74.1512 c0,0-8,11-11,35c-6,16-13,36-20,42c5-1,24,0,31-21s8-33,8-33S87.1804,78.1512,83.1804,74.1512 M85.874,159.8647 c0,0-6.6935,8.2866-18.6935,21.2866l-27.9289,24.8697l-2.0711,12.1303c0,0,9-6,18-10c8.2749-3.6777,17-9,23-20 C84.1804,179.1512,90.5675,169.5781,85.874,159.8647z M24.1804,12.1512c0,0,0.9776,28.1855,6.9888,47.5927 c6.0224,12.8145,19.5183,41.4942,19.5183,41.4942l3.4929-17.087c0,0,2-32-9-51S24.1804,12.1512,24.1804,12.1512z" style="fill: rgb(103, 144, 126);"/></g><g id="__id135_sqigv5k1gm"><path d="M83.0113,154.2487c-8.5897,6.7182-13.5853,16.8893-20.4548,25.1505c-6.9952,8.4123-14.938,15.9913-22.2028,24.1747 c2.8837-7.915,5.1907-15.9991,6.2017-24.3171c0.8087-6.653,1.5722-13.2785,2.4295-19.8997c0.1996-0.0563,0.3989-0.1649,0.585-0.3535 c1.1777-1.1932,2.3467-2.4001,3.5048-3.618c2.3008-0.6556,4.4857-1.4751,6.55-2.4525c5.8541-1.1141,11.2158-3.4467,16.5334-6.4293 c7.2344-4.0579,11.5932-10.6259,14.0624-18.4772c3.3886-10.7748,3.6874-22.9163,1.138-34.2688 c0.0789-8.1711-2.5057-15.6627-6.3734-22.8818c-0.4971-0.9278-2.0584-1.2289-2.7693-0.3569 c-9.3625,11.4849-10.8522,25.2803-12.6855,39.5533c-1.0254,7.9824-2.2934,16.0628-5.5722,23.4741 c-3.4967,7.9037-8.8376,14.872-14.4037,21.4537c0.3863-2.8023,0.7965-5.6046,1.2469-8.4086 c1.6101-10.0222,2.9844-20.1086,3.2256-30.2686c0.1519-6.3992-0.0008-12.9195-0.4144-19.4694 c0.9926-8.3832,3.9008-16.66,4.6913-25.0436c0.9892-10.4904-1.446-20.4988-6.267-29.7634 c-2.2603-4.3438-5.2258-8.0496-7.7921-12.1803c-2.3403-3.7669-5.1187-7.1418-8.0298-10.4739 c-3.9524-4.5239-8.705-9.1905-13.9807-12.7075c-1.5728-2.0022-3.1718-3.9907-4.7875-5.9703c-1.311-1.6061-4.1066-0.268-4.0389,1.673 c0.0026,0.0732,0.0085,0.1453,0.0112,0.2184c-1.2196,0.4365-1.5563,2.5121-0.2913,3.3939c0.165,0.115,0.3318,0.2233,0.4971,0.3373 c1.225,17.0948,6.4148,32.9035,13.3226,48.6066c3.6766,8.3579,8.2609,16.2708,12.1229,24.527 c4.2256,9.0337,7.2522,18.4503,10.7969,27.7412c0.0647,0.1697,0.1685,0.2843,0.2838,0.3747 c0.0952,1.6243,0.1793,3.2496,0.2398,4.8767c0.3427,9.2173-0.4404,18.2943-1.6105,27.335 c-0.8605-6.7958-2.1067-13.5783-3.1988-20.3013c-1.5101-9.2965-5.1508-16.3696-9.7809-24.4882 c-4.8286-8.4664-9.2523-17.3186-14.3915-25.5939c-2.7614-4.4463-7.4979-5.4163-11.0468-0.9787 c-1.5588,1.9492-2.3306,4.2651-2.5857,6.7161c-0.3405,0.2015-0.562,0.5789-0.4008,1.0242c0.0961,0.2655,0.2034,0.5286,0.3068,0.7925 c-0.0226,4.5235,1.4626,9.3135,3.0117,13.0408c3.2867,7.9079,8.3951,14.873,12.2419,22.4972 c2.2079,4.3759,3.7357,8.8151,4.5526,13.6426c0.6739,3.9827,0.9716,8.0258,2.4855,11.8116 c3.0015,7.5056,10.0704,12.4589,14.0594,19.4408c0.5209,0.9116,1.5131,0.8513,2.1254,0.3317 c-0.7167,4.7312-1.4094,9.4708-1.9714,14.2341c-1.2234,10.3672-3.0207,19.9111-6.7463,29.6893 c-1.9893,5.2211-4.0679,10.4105-6.2028,15.5753c-1.4341-15.8196-4.1816-31.0284-9.4202-46.2564 c-1.4193-4.1257-2.9368-8.2228-4.4713-12.3066c-0.8959-2.3845-1.7049-5.1113-3.4879-7.0201 c-0.4419-0.4731-0.902-0.8488-1.3709-1.1602c-0.534-1.1179-1.9868-1.5036-3.0135-0.9973c-2.9117-0.1102-5.7924,2.007-7.4672,4.9521 c-3.5253,6.1997-1.6948,13.2831,0.0942,19.6181c2.2648,8.0199,3.5808,15.9871,6.6528,23.804 c1.5629,3.9767,3.5303,7.6197,5.5515,11.3724c1.2917,2.3983,2.4611,5.3712,4.4777,7.2402c1.5086,1.3981,3.0964,1.8702,4.4962,3.4857 c0.7866,0.9078,1.407,2.4921,2.2174,3.3193c0.8635,0.8814,1.8084,1.1644,2.7862,0.9843 c-8.2239,19.3202-17.6304,38.0357-26.9258,56.8525c-0.5375,1.0881,0.9927,2.0089,1.6393,0.9582 c10.523-17.1003,19.0726-35.467,27.0827-53.8528c0.9337-2.1431,1.8804-4.2955,2.825-6.4567 c0.4744,0.2271,1.0629,0.2045,1.5627-0.2714c0.1952-0.1858,0.3954-0.3667,0.5912-0.5518c7.64-2.7793,12.7526-9.7338,20.8463-11.8581 c7.185-1.8857,15.3459-1.886,20.3093-8.3532c2.8954-3.7727,3.4603-8.3851,6.9128-11.9144c2.8388-2.9019,5.5224-5.1266,6.9625-9.0269 c3.2263-8.7377-0.8229-17.3493-4.5002-25.2123C85.0938,153.5213,83.7607,153.6626,83.0113,154.2487z M87.7479,123.5934 C84.4641,134.0353,77.27,143.194,67.7136,147.89c7.7082-6.184,13.0145-15.0002,15.8016-25.122 c1.829-6.6424,4.7971-12.8582,6.5088-19.4495C90.4654,110.106,89.8419,116.935,87.7479,123.5934z M66.0287,138.4373 c3.5325-6.5664,5.4947-13.7124,6.7852-21.0243c2.4365-13.8058,2.5831-29.3372,10.0621-41.6153 c1.1715,2.6661,2.2383,5.3917,3.1732,8.1647c0.7836,4.1881,0.9061,8.5168,0.4326,12.6731 c-0.9282,8.1475-5.304,15.1676-7.3904,22.9983c-3.6221,13.5952-10.0521,24.8032-22.019,31.3726 C60.4614,147.1184,63.5718,143.0044,66.0287,138.4373z M34.9636,21.7208c3.234,3.1299,6.1263,6.705,8.8569,10.2748 c2.897,3.7874,4.9594,9.5211,6.5316,14.0424c3.6724,10.561,5.7798,20.3699,3.9547,31.5403 c-0.5148,3.151-1.0731,6.2167-1.5295,9.2604c-1.1044-10.7892-2.8598-21.5337-5.1032-31.8262 c-3.0115-13.8167-9.3681-25.8612-17.1604-37.1475C32.0382,19.071,33.5318,20.335,34.9636,21.7208z M42.7755,83.4146 c-3.9066-8.7792-7.5292-17.7083-11.1695-26.6031C25.3896,41.6221,21.2153,26.0703,19.0197,9.9198 c0.2713,0.1755,0.5415,0.3506,0.8126,0.5259C30.309,22.4998,39.4182,35.654,42.8632,51.6059 c2.0389,9.4412,3.0576,19.128,4.4138,28.6838c0.9393,6.6185,1.7558,13.2542,2.337,19.9107 C47.7455,94.4604,45.2199,88.9078,42.7755,83.4146z M18.1977,71.2923c1.1746,0.7013,2.2295,3.7582,2.9958,5.05 c0.9985,1.6832,2.0084,3.3604,2.9959,5.0501c4.24,7.2551,8.4598,14.5411,12.5536,21.8797 c7.6538,13.7207,6.9302,30.3209,10.8019,45.2747c0.0011,0.0042,0.0042,0.0066,0.0052,0.0107 c-0.0669,0.4481-0.1324,0.8962-0.1999,1.3443c-2.1308-5.235-4.645-10.3117-6.2561-15.785 c-1.9459-6.6108-2.8625-13.275-6.3063-19.3553c-3.8501-6.7979-8.4774-13.1896-12.626-19.8103 c-2.8488-4.5464-5.5463-9.7136-8.7637-14.2824c-0.0066-0.1185-0.0186-0.2351-0.0237-0.354 C13.248,77.4288,12.7654,68.0488,18.1977,71.2923z M34.7978,140.4874c-3.5786-6.2014-3.2775-13.3748-5.153-20.1028 c-2.9466-10.5706-10.3856-19.535-14.1068-29.7639c1.3582,1.9875,2.7127,3.9478,3.9548,5.8907 c4.1995,6.5693,8.5834,13.1434,12.2981,20.002c3.6768,6.7886,4.2938,14.5949,6.7525,21.8389 c1.8978,5.5914,4.3083,11.5164,8.1116,16.122c-0.0695,0.4545-0.1387,0.909-0.2081,1.3636 C43.4832,150.1597,38.0244,146.0789,34.7978,140.4874z M13.9086,158.1939c1.3084,2.9908,2.455,6.0728,3.5812,9.1362 c2.2501,6.1202,4.3744,12.313,5.6701,18.7128c2.14,10.5696,3.8553,21.2386,5.5364,31.8969 c-3.5984-9.7921-7.5743-19.4547-11.1288-29.2637c-1.8676-5.1537-3.7673-10.4767-5.0342-15.8181 c-1.4224-5.9975-1.2111-12.0936-0.3297-18.1359C12.9786,155.7206,13.4943,157.2469,13.9086,158.1939z M18.8427,212.6004 c-4.4532-4.5116-7.0109-12.7213-9.0539-18.6729c-1.8957-5.5227-3.7545-11.2494-4.8341-16.9969 c-0.6201-3.3009-0.3223-6.5856-0.4453-9.9141c-0.1152-3.1188-0.3513-6.364,0.8475-9.3162c0.5344-1.316,1.502-3.3334,3.008-4.0613 c0.074,11.0126,2.6694,22.6857,5.7096,33.1193c3.0415,10.4379,7.0663,20.8199,11.2106,30.9534 C22.5504,215.3221,18.8848,212.643,18.8427,212.6004z M84.1121,181.5404c-2.0439,3.1216-5.1928,5.334-6.9901,8.6522 c-1.8107,3.343-2.0225,7.3063-4.7897,10.1411c-5.1604,5.2864-13.9886,5.3325-20.475,8.0474 c-3.3865,1.4175-6.2918,3.6588-9.2537,5.7799c5.9521-5.0922,12.2084-9.833,18.8058-14.0461 c6.876-4.3909,16.2747-8.744,19.7944-16.6053c0.4915-1.0979-0.7955-2.3128-1.7559-1.3548 c-3.5778,3.5692-6.8122,6.9159-11.0677,9.7443c-4.0643,2.7013-8.317,5.1036-12.3683,7.8273 c-7.5438,5.0718-14.5211,10.7664-20.9761,17.1234c0.7803-1.8223,1.548-3.6528,2.299-5.491 c0.3706-0.0048,0.7621-0.1422,1.1307-0.4761c9.357-8.4771,18.6732-17.7917,26.7527-27.5019 c6.6974-8.0492,10.2687-18.4058,18.2272-25.2931C86.2364,165.543,88.7509,174.4554,84.1121,181.5404z" style="fill: inherit;"/></g></svg>