<svg xmlns="http://www.w3.org/2000/svg" xmlns:xlink="http://www.w3.org/1999/xlink" preserveAspectRatio="xMidYMid meet" version="1.0" viewBox="-10.5 -3.3 184.7 255.7" zoomAndPan="magnify" style="fill: rgb(30, 30, 30);" original_string_length="8480"><g id="__id153_sqigv5k1gm"><path d="M114.4,193.3l8.7-16.2c0,0,15.4-17.1,21.6-26.1s22.3-10.2,22.3-10.2s6.9-5.3,4.9,5.1c-2,10.5-9.6,14.3-9.6,14.3 s-7.2,2.3-18.2,16.1s-27.3,19.4-27.3,19.4L114.4,193.3z M94.5,159.1c0,0,7.4-17.3,25.6-28.7s12.5-18.1,14.5-23.8s2-10.5-0.9-11.5 s-8.1,0.4-8.6,6.6s-7.3,16.7-13,14.7c-5.7-1.9-15.4,21.9-15.9,23.3c-0.5,1.4-3.8,17.1-3.8,17.1L94.5,159.1z M82.8,145.4 c0,0-0.5-3.3-19-14.4s-46.2-14.1-47.6-14.6s-15.3-2-12.4,3.7s21.9,10.6,31,12.1s25.2,19.7,32.8,20.7s21.6,1.9,21.6,1.9L82.8,145.4z M68.2,113.3c0,0,7.7-13.3,14.9-20.4c7.2-7.1-1.8-18.1,4.9-28.6s8.3-24.3,2.5-26.2C84.9,36.1,77,68.5,77,68.5L68.2,113.3z M53.5,95.5c0,0-14.6-16.1-35.1-27.5S-2.4,70.5,17,80s36.2,16.9,36.2,16.9L53.5,95.5z M58.8,89.4c0,0-6.8-59.7-6.3-70.7 S44-3.3,37.8,0.9c-12.6,4.5-1.7,22.9,0.4,37c3.7,13.9,15,39.8,17.6,47.4c0.4,1,0.6,1.6,0.6,1.6L58.8,89.4z M106.4,188.3 c0,0-23.8-5.4-45.4,3.2s-31.4,34.6-31.4,34.6l-2.2,2.2c0,0,18.4-2.2,40-14.1c4.4-2.4,10-7.6,14.1-9.7c16-8.4,27-11.7,27-15.1 C107.5,187.3,106.4,188.3,106.4,188.3z" style="fill: rgb(254, 254, 253);"/></g><g id="__id154_sqigv5k1gm"><path d="M115.1,194.5c0,0,10.9-20.4,11.8-23.3s19.4-22.6,19.4-22.6l6.7-1.1c0,0,12.7-5.6,15.6-4.8 c2,3.8-2.3,18.2-2.3,18.2l-16.1,6.2l-8,5.5c0,0-4.9,11.1-11.5,17.1c-6.5,5.9-14.6,6.6-14.6,6.6L115.1,194.5z M96.9,158.4 c0,0,2.6-14.4,15.6-23.9c13-9.6,18.5-11.2,20.9-19s4.4-25.6-3.5-16.2S119.5,116,119.5,116s-4.2-2.8-11.8,6 C100.1,130.7,91.6,153.4,96.9,158.4z M82.4,142.3l-16-8.2c0,0-23.3-12.1-32.6-14.9c-9.3-2.8-28.7-5.3-30.1-0.7s-2.3,7.7,20.2,11.1 s23.6,5.4,29.9,12.4s17.1,10.2,21.8,11.6c4.6,1.4,15.3-0.4,15.3-0.4L82.4,142.3z M72.1,111.4c0,0,11-8.5,12.7-19.7 s-0.4-15.3,2.5-19.5s6.1-20.1,6.5-21.6c0.5-1.5-7.4-17.8-9.2-4.7s-8.1,39.9-8.5,46.5C75.8,99.1,73.5,106.8,72.1,111.4z M48.6,94.2 c0,0-25.4-24.5-38.7-29.4c-2.3-0.7-20.4-3.6-1.1,10.6S44.6,96.4,48.6,94.2z M58.2,89.9l-6.3-40.2c0,0-4.2-31.8-3.3-37.3 S46,2.5,37.8,1.7s-2.3,7.7,1.4,12.2s3.5,16.2,3.2,22.9s-3.8,7.4-0.6,15.9c3.3,8.5,15.6,39.9,15.6,39.9L58.2,89.9z M95.6,186.2 c-3.6,0.6-45.4,3.8-58.3,18.4s-7.6,19.6-7.6,19.6l41.7-21.1c0,0,10.2-0.3,23.8-6.3c7.9-3.5,12.2-6.4,14.4-8.2 c0.7-0.6,0.2-1.7-0.7-1.5L95.6,186.2z" style="fill: rgb(255, 150, 196);"/></g><g id="__id155_sqigv5k1gm"><path d="M171.4,136.8c-0.5-1.4-2.2-2-3.3-0.9c-4.1,4.1-9.5,6.4-15.2,7.5c-1.4,0.2-2.8,0.4-4.1,0.8c-1.4,0.5-2.4,1.2-3.5,2.2 c-1.9,1.7-3.6,3.7-5.3,5.6c-7.4,8.1-14.5,16.5-19.9,26.1c-2.2,4-4,8.1-5.1,12.4c-0.1-0.2-0.2-0.4-0.3-0.5 c-5.7-9.9-12.3-19.2-18.7-28.7c0.2-0.4,0.3-0.9,0.5-1.3c0.7-1.5,1.4-3,2.2-4.5c1.5-2.7,2.9-5.5,4.8-7.9c4.1-5.2,9.3-9.4,15.1-12.7 c3.1-1.8,5.9-4,8.7-6.2c1.3-1,2.7-2.1,4-3.2c1.3-1.1,2.7-2.2,3.7-3.5c2.2-2.8,2.3-6.2,2.6-9.6c0.3-3.7,0.5-7.4,0.7-11 c0.2-3,0.2-7.1-2.9-8.8c-2-1.1-5.2-1.4-6.4,1c-0.3,0.7,0.5,1.3,1,0.8c0.8-0.8,1.8-0.8,2.8-0.2c1,0.6,1.4,1.8,1.5,2.9 c0.4,2.8-0.4,5.9-0.8,8.7c-0.5,3.3-0.6,6.6-1,9.8c-0.2,1.1-0.4,2.3-1.1,3.3c-0.8,1.3-2.2,2.3-3.3,3.4c-2.3,2.2-4.7,4.4-7,6.5 c-2.3,2.1-4.5,4.4-6.9,6.5c-2.2,2-4.7,3.8-6.9,5.9c-2,1.9-3.9,3.9-5.8,5.9c-1.7,1.8-3.4,3.6-4.8,5.5c0.5-2.3,1-4.5,1.7-6.8 c1.5-5,3.4-9.8,5.8-14.5c1.2-2.4,2.5-4.6,3.9-6.9c0.7-1.1,1.4-2.2,2.1-3.3c0.3-0.5,0.7-1.1,1-1.6c0.2-0.3,0.5-1.1,0.9-1.3 c0.4-0.2,1.1,0.2,1.6,0.3c0.7,0.1,1.3,0.2,2,0c1-0.2,1.8-0.6,2.5-1.2c1.6-1.4,2.5-3.4,3.2-5.3c0.8-2.1,1.5-4.2,2.6-6.1 c1.2-2.1,2.9-4.3,3.6-6.6c0.2-0.6-0.6-1.1-1.1-0.6c-0.9,0.9-1.6,1.9-2.4,2.9c-0.7,0.8-1.3,1.7-2,2.5c-1.3,1.6-2.4,3.3-3.1,5.2 c-0.7,1.8-1.3,4-2.8,5.3c-0.6,0.6-1.2,0.6-2,0.4c-1.5-0.4-2.8-0.8-4.3-0.1c-2.3,1.1-4,3.7-5.4,5.7c-1.6,2.2-3,4.6-4.2,7 c-2.6,4.8-4.7,9.9-6.2,15.1c-0.9,2.9-1.7,5.8-2.1,8.7c-0.2,1.1-0.4,2.3-0.5,3.4c0,0,0,0,0,0c-7.6-11.9-14.4-24.2-20.4-37 c-0.3-0.7-0.7-1.5-1-2.2c1.1,0.8,3,0.3,3.1-1.4c0.1-5.3,3-9.5,7-12.7c2.1-1.7,4-3.4,5.2-5.9c1.2-2.4,1.7-4.9,1.9-7.6 c0.2-2.5,0.1-5.1,0.3-7.7c0.1-2.5,0.5-4.9,1-7.3c1.2-5.2,3.1-10.1,4.4-15.3c1.2-5,2-10.3,1-15.4c-0.4-2.1-1.3-5-3.9-5.1 c-2.2-0.1-4.3,2-5.5,3.6c-3,3.8-4.2,8.6-5.4,13.1C77.6,60,76.1,66,74.7,72.1c-2.8,11.5-5.5,23.3-6.7,35.1c-1-1.3-1.8-2.9-2.5-4.3 c-1.2-2.5-2.1-5.2-3.1-7.8c-2-5.6-3-11.5-3.9-17.4c-0.6-3.5-0.9-7.1-1.5-10.6c-0.5-3.4-1.2-6.8-1.8-10.2C54,50,52.9,43,52.2,36.1 c-0.4-3.6-0.8-7.1-1-10.7c-0.2-3.3-0.3-6.5-0.8-9.8c-0.7-5.1-2.7-11-8.1-12.6c-3.8-1.2-9.1-0.3-10.7,3.8c-1.1,2.9,0.2,5.8,1.4,8.3 c1.5,3,2.2,6.3,2.6,9.7c0.4,3.3,0.5,6.7,0.8,10.1c0.3,3.6,0.9,7,1.7,10.5c1.4,7.1,3.9,13.8,6.4,20.6c3.7,9.8,7.6,19.5,11.7,29.1 c-2.8-3-5.8-5.9-8.8-8.7c-8.2-7.5-17.1-14.2-26.5-20c-2.4-1.4-4.7-2.9-7.1-4.3c-2.2-1.3-4.8-2.5-7.3-1.9c-2.5,0.6-4,2.9-4.3,5.3 C1.9,67.8,2.8,70,4,71.9c3,4.5,8.1,7.2,12.5,10.1c5,3.3,10.1,6.4,15.4,9c3,1.5,6.1,2.7,9.3,3.8c2.9,0.9,5.9,1.8,8.7,3.1 c3.9,1.9,7.4,4.4,10.6,7.2c0.1,0.3,0.2,0.5,0.4,0.8c5.9,13,12.3,25.8,19.7,38c2,3.3,4.1,6.6,6.3,9.9c-0.2-0.1-0.5-0.3-0.9-0.3 c-2.9-0.4-5.8-0.3-8.8-0.4c-2.7-0.1-5.7,0.3-8.3-0.5c-2.2-0.7-3.9-2.4-5.7-3.8c-2-1.5-3.7-3.2-5.6-4.9c-3.8-3.3-8.1-5.6-12.3-8.1 c-4.3-2.5-9.1-4.3-13.8-5.6c-4.8-1.4-9.7-2-14.6-2.7c-2.5-0.4-5-0.7-7.3-1.7c-1.5-0.6-3.8-2.4-1.5-3.6c1.9-1,4.6-0.9,6.6-0.8 c2.7,0.1,5.5,0.6,8.1,1c5.5,1,10.9,2.3,16.1,4.2c5.7,2.1,11.2,4.9,16.6,7.9c2.7,1.5,5.4,2.8,8.2,3.9c2.7,1,5.5,1.9,8.2,2.9 c1.1,0.4,1.9-1.4,0.8-1.9c-2.4-1.2-4.9-2.3-7.2-3.5c-2.7-1.4-5.3-2.9-7.9-4.5c-5.1-3.1-10.3-6-15.8-8.2c-5.5-2.2-11.2-3.8-17.1-4.4 c-2.9-0.3-5.9-0.3-8.8-0.1c-2.6,0.1-5.2-0.2-7.7,0.4c-2,0.5-3.8,1.6-4.3,3.7c-0.6,2.6,1.5,4.7,3.5,6.2c2.2,1.6,4.9,2.6,7.5,3.4 c2.6,0.7,5.3,0.9,7.9,1.3c5.3,0.9,10.4,2.2,15.4,4.1c2.4,0.9,4.8,1.8,7.1,2.9c2.4,1.2,4.6,2.5,6.9,3.9c2.4,1.5,5.1,2.9,7.2,4.8 c1.1,1,2.1,2.2,3.2,3.2c1.1,1,2.2,1.9,3.5,2.7c2.8,1.6,6,1.6,9.2,1.8c3.5,0.1,7.2,0.4,10.7,0.2c1.4-0.1,1.9-1.1,1.8-2.1 c1.3,1.9,2.6,3.8,3.8,5.7c0,0,0,0,0,0c0,0.1,0,0.1,0,0.2c-0.2,0.6-0.3,1.2-0.3,1.8c0,1.4,1.5,2.1,2.6,1.5 c3.6,5.3,7.1,10.5,10.4,15.9c1.6,2.5,3.1,5.1,4.5,7.6c-6.3-2.6-13.3-2.6-20-2.6c-7.3,0.1-14.7,0.8-21.8,2.5 c-12.8,3-25.1,9.3-33.6,19.5c-2.2,2.6-4,5.4-5.8,8.3c-0.9,1.5-1.8,2.9-2.5,4.5c-0.7,1.7-1.2,3.5-1.6,5.3c-0.4,1.9,1.2,3.9,3.2,3.2 c14-4.4,27.8-10.3,40.2-18.3c1.5-1,3-2,4.5-3c1-0.7,2-1,3.1-1.4c1.5-0.5,3-1.3,4.4-2.1c4.2-2.3,7.9-5.2,12.2-7.3 c2.5-1.2,5.2-2,7.8-2.9c2.2-0.8,4.4-1.6,6.8-1.9c1.1-0.1,1.7-1.4,1.5-2.4c0.7,0.2,1.5,0.4,2.2,0.6c0.2,0.1,0.3,0,0.5,0 c3.8,6.9,7.3,14.1,10.3,21.4c4.3,10.4,8.1,21.3,9.9,32.5c0.4,2.3,0.7,4.6,0.8,6.9c0.1,1.7,2.6,1.7,2.7,0c0.3-5-0.5-10-1.5-14.9 c-1.1-5.5-2.7-10.9-4.5-16.2c-2.9-8.6-6.4-17.2-10.7-25.4c3.4-9.6,8.5-18.3,14.6-26.4c3.2-4.1,6.4-8.2,9.7-12.3c1.6-2,3.2-4,4.7-6 c0.8-1,1.6-2,2.7-2.6c1.4-0.8,3-0.9,4.5-1.2c5.2-0.7,10-2.7,14.5-5.3c0.5,3.7,0.8,7.6-0.6,11.1c-1.7,4.1-5.9,6-9.9,7 c-2.4,0.6-5,0.7-7.3,1.5c-1.2,0.4-2.3,1-3.4,1.8c-1,0.8-1.6,1.8-2.3,2.8c-1.2,1.8-1.9,3.9-3,5.8c-1.2,2.1-2.9,3.9-4.9,5.3 c-4.2,2.9-9.3,4.6-11.7,9.5c-0.8,1.5,1.2,3.3,2.5,1.9c1.7-1.8,3.2-3.6,5.2-5.1c1.7-1.3,3.7-2.2,5.4-3.4c2.1-1.5,3.9-3.2,5.5-5.3 c1.3-1.8,2.4-3.8,3.8-5.6c1.5-1.9,3.5-2.6,5.8-2.9c2.5-0.4,4.9-0.6,7.3-1.4c4.7-1.4,9.2-4.2,11.4-8.7 C174.2,149.1,173.3,142.5,171.4,136.8z M69.5,114C69.5,114,69.5,114,69.5,114C69.5,114,69.5,114,69.5,114 C69.5,114,69.5,114,69.5,114z M76.2,79.1c1.3-5.8,2.6-11.6,4-17.3c1.2-4.9,2.1-10.1,4-14.8c0.8-2,1.9-3.8,3.5-5.3 c0.4-0.4,1.6-1.4,1.9-1.2c0.7,0.4,0.7,2.3,0.8,2.9c0.6,4.7-0.6,9.4-2.2,13.8c-1.7,4.7-3.6,9.4-4.9,14.3c-0.6,2.5-1.1,5-1.2,7.6 c-0.1,2.4,0.1,4.8,0.1,7.3c0,2.4,0,4.9-1,7.1c-1.1,2.4-3.4,3.9-5.3,5.6c-2.1,1.9-3.8,4.2-4.9,6.8c0.5-3.2,1.1-6.4,1.7-9.5 C73.8,90.6,75,84.8,76.2,79.1z M47.1,59.2c-2.6-6.5-6.1-12.9-7.3-19.9c-1.2-6.5-0.7-13.2-2.1-19.7c-0.3-1.5-0.8-3.1-1.4-4.5 c-0.7-1.6-1.6-3.1-2.1-4.8c-0.6-2.1,0.3-3.9,2.3-4.8c1.8-0.8,3.9-0.7,5.7,0c2.3,1,3.7,3.2,4.4,5.5c0.9,2.8,1.1,5.8,1.2,8.8 c0.1,3.6,0.2,7.1,0.5,10.7c0.9,13.6,3.2,27.2,6.2,40.5c0.8,3.4,1.7,6.8,2.5,10.3c0.5,2.3,0.9,4.6,1.4,6.9c-1.2-3.1-2.5-6.2-3.7-9.2 C52.2,72.4,49.7,65.8,47.1,59.2z M41.1,88.9C30.8,85.4,21.4,79.8,12.2,74c-1.9-1.2-3.9-2.4-5.4-4.1c-1.3-1.4-2.3-3.9-1.3-5.7 c1.3-2.3,4.4-0.8,6.1,0.2c2.3,1.3,4.6,2.7,6.9,4.2c8.6,5.8,16.8,12.1,24.6,19c1.1,1,2.2,2,3.3,3C44.7,90,42.9,89.5,41.1,88.9z M92.2,193.2c-2.2,1.3-4.5,2.6-6.8,3.6c-2.2,1-4.4,1.9-6.5,2.9c-0.9,0.4-1.8,0.9-2.7,1.3c-0.3,0.1-0.6,0.3-1,0.4 c-0.6,0.3-0.3,0.2-0.9,0.4c-0.6,0.2-1.2,0.4-1.8,0.5c-1.7,0.5-3.2,1.4-4.7,2.3c-6.2,3.7-12.7,7.2-19.3,10.2 c-6.1,2.9-12.4,5.3-18.7,7.3c0.4-1.3,0.8-2.6,1.3-3.9c0.9-2.6,2.5-5.1,4.1-7.3c3.4-4.6,7.8-8.4,12.6-11.5 c11.3-7.3,25.1-10.2,38.4-11c5-0.3,10.3-0.7,15.4-0.2C98.2,189.5,95.3,191.3,92.2,193.2z" style="fill: inherit;"/></g></svg>