<svg xmlns="http://www.w3.org/2000/svg" xmlns:xlink="http://www.w3.org/1999/xlink" preserveAspectRatio="xMidYMid meet" version="1.0" viewBox="0.0 -0.0 363.1 399.4" zoomAndPan="magnify" style="fill: rgb(30, 30, 30);" original_string_length="38622"><g id="__id171_sqigv5k1gm"><path d="M211.05,68.83l0.79,4.53l-0.6,4.54l-0.96,4.48l-2.14,4.07l-3.01,3.47l-3.22,3.3l-3.94,2.4l-4.18,1.89l-4.26,1.73l-4.54,0.76 l-4.51,0.87l-4.57,0.52l-4.6-0.11l-4.59,0.19l-5-0.14l-4.98-0.38l-4.94-0.71l-4.81-1.32l-4.59-1.91l-4.4-2.39l-2.76-3.06l-2.16-3.49 L132.72,84l1.69-4.02l2.57-3.57l2.99-3.24l1.57-4.13l-0.7-4.13l-1.05-4.07l-0.82-4.13l1.74-5.35l2.3-5.17l1.17-5.13l-0.67-5.19 l-1.19-4.1l-1.43-4.05l-1.35-4.05l-0.38-4.83l1.3-4.69l2.49-4.19l3.84-2.97l4.43-1.83l4.74-0.9l3.95,0.55l3.99-0.09l4.01-1.56 l3.73-2.12l4-0.97L179.75,0l3.93,1.27l3.54,2.16l2.58,3.25l1.8,3.64l4.28,1.38l4.06,2.14l3.22,3.3l1.6,4.08l0.77,4.27l0.28,4.37 l-1.29,5.18l-1.37,5.14l-0.66,4.78l-0.44,4.83l1.05,4.74l2.03,4.36l3.99,5.79L211.05,68.83z" style="fill: inherit;"/></g><g id="__id172_sqigv5k1gm"><path d="M362.73,324.21l-0.92-4.66l-1.57-4.48l-2.68-3.93l-2.73-3.78l-1.25-2.15c1.54-2.61,2.59-5.53,2.96-8.5 c0.44-3.49,0.16-7.03,0.5-10.53c0.57-5.87,2.67-12.44-0.8-17.21c-2.5-3.43-7.08-4.58-10.31-7.35c-2.58-2.22-4.45-5.57-7.73-6.46 c-3.85-1.05-7.6,1.8-11.54,2.4c-6.05,0.93-11.73-3.65-14.68-9.01c-2.95-5.36-2.39-11.07-4.59-16.78 c-6.18-15.99-22.49-27.67-30.33-42.92c-4.56-8.87-6.67-18.86-11.53-27.57l-35.26,17.77c9.41,12.29,10.54,29.24,19.13,42.12 c8.25,12.37,22.32,19.49,32.61,30.23c3.34,3.48,6.25,7.32,8.93,11.35l-2.78-0.68l-4.25-2.54l-4.69-1.33l-4.83-0.88l-3.96-2.24 l-4.3-1.31l-3.93-2.17l-3.58-1.3l-1.13-0.41l-0.37-0.3l-3.55-2.9l-0.57-0.26l-3.98-1.82l-3.6-2.87l-0.31-0.24l-4.14-2.01l-3.03-3.4 l-3.17-3.19l-2.56-3.7l-2.85-3.46l-2.56-3.7l-1.93-4.67l-0.83-5.01l0.36-5.04l-0.15-5.04l0.61-4.99l0.19-5.02l0.62-4.97l0.48-5 l-0.39-5l-1.17-5.02l-4.77,1.29l-4.59,1.79l-4.93,0.49l-4.51,2.07l-4.94,0.4l-4.51,2.06l-4.8,0.96l-4.89,0.64l-4.52,2l-4.99,0.24 l-4.69,1.36l-4.44,2.3l-4.71,1.3l-4.76,1.13l-4.88,0.64l-4.51,2.04l-4.83,0.84l-4.69,1.38l-4.87,0.67l-4.57,1.84l-4.65,1.11 l-0.22,4.37l1.39,4.6l-1.31,4.56l-0.54,4.59l-0.64,4.66l-2.75,3.9l-1.25,4.56l-3.04,3.56l-2.77,3.71l-5.46,4.33l-0.16,0.14 l-3.76,3.46l-4.32,2.83l-0.14,0.09l-4.89,2.19l-3.67,2.15l-3.76,2.03l-3.35,2.83l-3.37,1.42c8.02-6.04,15.95-12.22,21.39-20.56 c11.69-17.93,9.39-41.85,19.05-60.95l-26.89-17.61c-3.51,13.6-7.02,27.21-10.52,40.81c-0.77,3-1.6,6.1-3.54,8.52 c-1.43,1.78-3.38,3.05-5.25,4.37c-7.79,5.5-14.71,12.24-20.41,19.89c-6.58,8.83-11.9,19.19-21.32,24.89 c-1.31,0.79-2.76,1.5-4.29,1.45c-3.4-0.1-5.49-3.6-7.29-6.49c-1.79-2.89-5.03-5.91-8.14-4.54c-1.32,0.58-2.2,1.84-2.97,3.06 c-2.86,4.53-5.22,9.37-7.03,14.41c-2.47,6.9-3.69,15.23,0.76,21.05c1.05,1.37,2.38,2.54,3.16,4.08c0.58,1.12,0.83,2.37,1.05,3.61 c0.65,3.73,1.04,7.56,2.46,11.07c1.16,2.85,3.17,5.49,5.84,6.89l-2.32,2.58l-2.66,4.21l-0.93,4.99l-2.09,4.45l-1.63,4.67l-0.59,4.9 l0.14,4.9l0.16,4.88l0.38,5.01l2.97,3.95l1.67,4.59l2.89,3.93l4.23,2.53l3.84,2.83l3.71,3.12l4.26,2.3l4.72,1.18l4.49,1.43 l4.57,1.18l4.75,0.17l4.67,0.49l4.7,0.1l4.71,0.66l4.7-0.68l4.77,0.62l4.67-0.93l4.66-0.84l4.83,0.38l4.6-1.2l4.6-1.18l4.73-0.38 l4.59-1.21l4.81,0.05l4.53-1.55l4.71-0.49l4.74-0.27l4.54-1.63l4.68-0.71l4.89-0.03l4.83-0.47l4.88,0.02l4.8-1.11l4.89,0.44 l4.85-0.08l4.86-0.03l4.85-0.43l4.85,0.57l4.88-0.71l4.88,0.02l4.8,0.96l4.88,0.18l4.71,1.4l4.95-0.14l4.63,1.69l4.63,1.47 l4.89,0.51l4.49,1.92l4.64,1.42l4.53,1.75l4.66,1.5l4.49,1.95l4.02,2.2l4.15,1.99l4.27,1.73l4.24,1.87l4.61,0.74l4.33,1.61l4.5,1.09 l4.96,2.8l5.64-0.12l5.6,0.67l5.01-2.57l3.55-4.13l1.29-5.04l-1.05-4.98l-3.3-4.11l-4.59-2.63l-4.18-3.41l-4.96-2.18l-4-4.19 l5.22,0.13l4.58,1.76l4.82-0.25l4.65,1.39l4.78,0.25l4.78-0.12l4.78,0.13l4.69-1.35l4.82,0.29l4.55-1.59l4.52-1.37l4.38-1.66 l4.88-0.73l4.12-2.47l3.78-2.95l3.62-3.12l2.92-3.78l3.3-3.49l2.29-4.22l1.15-4.65l1.15-4.56l-0.07-4.68L362.73,324.21z M14.39,277.08c-0.21,0.25-0.53,0.53-0.82,0.37c-0.16-0.09-0.23-0.28-0.29-0.46c-1.18-3.68-2.37-7.54-1.69-11.35l0.39,1.45 c0.62-0.97,1.39-1.88,2.38-2.48c0.99-0.6,2.21-0.87,3.32-0.55c1.14,0.33,2.02,1.21,2.85,2.06c0.99,1.02,2.05,2.22,1.95,3.64 c-0.07,0.99-0.72,1.85-1.49,2.47s-1.69,1.03-2.55,1.52C16.91,274.63,15.54,275.76,14.39,277.08z M334.62,272.16 c1.07-1.03,1.81-2.74,3.26-3.06c3.29-0.74,7.98,2.93,11.1,1.64l0.65,0.87c-0.33,1.8-0.67,3.62-1.43,5.29 c-0.76,1.67-1.99,3.19-3.67,3.93c-2.62,1.15-5.73,0.14-8.06-1.53c-0.82-0.59-1.3-1.54-2.1-2.16 C333.33,276.32,334.17,272.6,334.62,272.16z M98.35,125.09l-0.42-4.81l0.34-4.77l1.87-4.42l2.73-4.2l3.33-3.75l3.8-3.27l4-3.02 l4.19-2.75l4.56-2.08l4.43-1.44l4.48-1.27l4.43-1.46l4.41-1.49l4.28-1.83l3.75-2.55l3.69-2.7l2.46-3.86l2.3-3.94l1.09-4.44 l0.59-4.51l26.63-7.74l0.55,5.16l2.13,4.72l2.52,4.51l3.42,3.91l4.04,3.27l4.46,2.65l4.62,2.36l4.77,2.04l4.81,1.13l4.56,1.87 l4.53,1.91l-1.04,4.01l-1.83,4.18l0.17,4.98l-0.99,4.88l-1.38,4.75l-1.75,4.64l-2.35,4.39l-3.22,3.79l-3.28,3.7l-3.61,3.39 l-3.86,3.11l-4.25,2.55l-4.31,2.42l-4.29,2.5l-4.52,1.58l-4.37,1.95l-4.58,1.39l-4.59,1.36l-4.71,0.86l-4.72,0.76l-4.76,0.42 l-4.76,0.39l-4.78,0.3l-4.76-0.56l-4.76-0.42l-4.75-0.54l-4.67-1.06l-4.69-1l-4.46-1.75l-4.76-2.2l-4.66-2.37l-4.23-3.09l-3.54-3.9 l-2.49-4.15L98.35,125.09z" style="fill: rgb(239, 175, 132);"/></g><g id="__id173_sqigv5k1gm"><path d="M220.26,86.24L220.26,86.24l-0.21-0.01L220.26,86.24z M284.1,178.14l-4.38,2.44l-4.49,1.94l-4.39,2.26 l-4.82,1.01l-4.7,1.47l-4.88,0.67l-4.92-0.06l-4.91,0.42l-4.82-1.13l-4.9-0.34l-4.49-1.05l-0.38,4.49l-0.49,4.79l-0.45,4.79 l-0.49,4.79l-0.67,2.32l-2.53,0.62l-4.82-0.23l-4.81,0.38l-4.81,0.16l-4.17-0.14l0.03,0.27l-4.37,0.85l-4.39,0.71l-4.41,0.57 l-4.41,0.56l-5.17,0.38l-5.15,0.66l-5.19,0.12l-5.19,0.1l-5.19,0.05l-1.35,0.01l1.67,0.01l3.72,0.37l3.74,0.05l3.87,0.19l3.78,0.83 l-0.05,1.44l-3.98,0.12l-3.97-0.21l-3.73-0.18l-3.73-0.23l-4.99-0.1l-4.98-0.27l-4.97-0.33l-4.98-0.23l-4.97-0.34l-4.98-0.28 l-3.74-0.17l-3.74-0.09l-3.77-0.35l-3.01-0.92l0.09-0.08l0-0.42l0.04-0.01l0.34-4.63l-0.75-4.53l-0.69-4.52l-0.37-4.59l-1.6-4.08 l-4.53,0.22l-4.75-0.24l-4.74-0.21l-4.71-0.51l-4.76-0.3l-4.55-1.47l-4.55-1.29l-4.66-0.95l-4.45-1.63l1.21-4.7l1.13-4.74l1.5-4.42 l0.23-3.53l1.08-4.48l1.07-4.49l1.09-4.45l1.24-4.41l1.29-4.39l1.26-4.41l1.41-4.37l1.61-4.3l1.69-4.26l1.75-4.24l1.97-4.14 l-0.03-0.02l0.96,0.35l-1.31,4.37l-0.36,1.32l0.32-0.89l1.61-4.59l1.69-4.78l4.73,1.61l4.72,0.72l4.68,0.89l4.75,0.4l4.71,0.84 l4.75,0.49l4.78,0.17l4.78-0.15l4.76-0.45l4.77-0.22l4.73-0.63l4.72-0.68l4.64-1.14l4.79-0.46l4.62-1.25l4.49-1.64l4.57-1.37 l4.57-1.41l4.31-2.08l4.35-1.96l4.39-1.89l3.96-2.71l4.03-2.53l4.11-2.42l3.78-2.9l4.03-2.56l3.79-2.91l4.51,0.45l4.67,1.01 l4.63,1.28l4.28,2.17l4.37,2.02l3.58,3.24l0.86,0.66l0.72-0.9l3.8,2.93l3.47,3.32l3.21,3.56l2.54,3.62l2.45,3.68l2.04,3.92 l2.07,3.91l1.56,4.13l1.7,4.08l1.45,4.83l1.37,4.85l1.19,4.9l0.9,5.02l1.02,4.99l0.13,1.11l1.02,1.79l2.28,4.88l1.35,3.88l0.92,4 l0.64,4l0.01,1.28L284.1,178.14z M146.81,211.26l-2.23-0.14l-5.12-0.87l-0.86-0.12l-2.67,0.41l-2.27,0.01l2.11,0.08l4.97,0.34 l4.98,0.27L146.81,211.26z M188.56,209.05l-4.51-0.33l-4.82,0.06l-4.8,0.49l-4.82-0.17l-4.81,0.24l-3.25,0.17l4.25,0.3l4.78-0.02 l4.78-0.05l4.78-0.13l4.77-0.34L188.56,209.05z M197.24,208.28l-3.56,0.05l-4.35,0.67l0.36-0.02l4.76-0.44L197.24,208.28z M257.74,108.18l-0.4-0.47l1.3,3.01l3.12,4.8l2.16,5.29l1.46,4.45l1.61,4.38l2.17,4.16l1.06,2.38l-0.5-1.92l-1.23-4.5l-1.59-4.38 l-1.75-4.32l-2.03-4.2l-2.59-4.41L257.74,108.18z" style="fill: rgb(255, 150, 196);"/></g><g id="__id174_sqigv5k1gm"><path d="M198.8,55.31c-1.55,1.16-3.94,1.94-5.28,0.55c-0.73,3.44-2.6,6.55-4.74,9.34c-1.37,1.79-4.1,3.51-6.01,4.72 c-2.04,1.3-4.44,1.96-6.84,2.24c-5.66,0.67-9.71,0.37-14.48-2.73c-4.78-3.1-9.11-6.8-10.8-12.24c-2.28,1.15-5.21-0.06-6.7-2.13 c-1.49-2.07-3.49-7.79-3.5-10.34c0-2.39,0.32-4.95,1.9-6.74c1.58-1.79,4.79-2.27,6.27-0.39c-1.04-5.68,0.68-10.83,2.72-16.24 c2.04-5.4,6.36-10.12,11.92-11.71c2.09-0.6,4.29-0.74,6.46-0.82c2.65-0.09,5.32-0.08,7.93,0.4c5.62,1.02,10.79,4.28,14.16,8.89 s4.43,11.66,3.69,17.32c1.64-1.64,4.55-1.44,6.37,0.02c1.82,1.45,2.67,3.82,2.92,6.13C205.34,46.78,202.98,52.18,198.8,55.31z" style="fill: rgb(239, 175, 132);"/></g><g id="__id175_sqigv5k1gm"><path d="M261.98,251.83l-4.2,2.07l-4.32,2.03l-4.13,2.42l-4.21,2.26l-4.09,2.5l-3.96,2.68l-3.78,2.93l-3.98,2.67 l-3.58,3.19l-3.75,2.99l-3.4,3.38l-3.39,3.39l-2.83,3.89l-3.13,3.79l-3.49,3.51l-2.71,4.12l-2.78,4.06l-2.6,4.11l-4.08-1.24 l-4.32-0.55l-4.22-0.95l-4.34-0.15l-4.52-0.78l-4.57,0.24l-4.47,0.99l-4.36,1.79l-2.03-4.2l-2.2-3.92l-2.11-3.99l-2.44-3.66 l-2.73-3.44l-2.83-3.37l-3.41-2.8l-4-3.57l-4.11-3.45l-3.69-3.01l-4.11-2.38l-4.06-2.46l-4.16-2.28l-4.28-2.05l-4.28-2.05 l-4.06-2.47l-4.13-2.33l-4.1-2.36l-4.33-2.48l4.98-2.49l0.02-0.29l4.32-2.83l3.76-3.46l0.57,0.32l4.26,2.63l4.45,2.25l4.61,1.94 l4.83,1.3l4.61,1.93l4.84,1.18l4.93,0.75l4.57,1.14l4.7,0.31l4.65,0.91l4.72-0.23l4.69,0.72l4.71-0.32l4.7-0.36l4.72,0.3l4.68-0.62 l4.67-0.65l4.71-0.13l4.67-0.66l4.69-0.38l4.93-0.31l4.89-0.7l4.8-1.17l4.79-1.14l4.77-1.19l4.76-1.25l4.62-1.7l4.41-2.2l4.15-2.39 l0.53-0.35l3.6,2.87l3.98,1.82l0.14,1l3.98,2.16l0.41,0.22l1.09,0.49L261.98,251.83z" style="fill: rgb(254, 254, 253);"/></g><g id="__id176_sqigv5k1gm"><path d="M212.15,288.06l-3.19,3.74l-3.04,3.87l-2.9,3.98l-2.76,4.07l-2.57,4.17l-4.19-0.98l-4.23-0.93l-4.27-0.71 l-4.29-0.58l0.67-2.72l2.66-3.6l4.2-1.48l5.18,0.34l2.3-4.31l0.32-5.08l2.51-3.42l4.04-1.42l4.24,0.82l3.63,2.38L212.15,288.06z M156.82,280.01l-5.94-0.19l-5.67,1.79l3.06,3.14l2.89,3.3l2.69,3.46l2.53,3.59l2.13-2.18l2.22-3.71l0.66-4.25l-0.85-2.74 L156.82,280.01z M179.6,57.71c0.3,0.33,0.42,0.76,0.39,1.19c0.02,0.09,0,0.19-0.05,0.27c-0.06,0.26-0.16,0.52-0.35,0.73 c-0.46,0.52-1.08,0.94-1.62,1.38c-0.52,0.42-1.05,0.85-1.57,1.27c-0.74,0.6-1.42,1.37-2.48,1.12c-0.87-0.2-1.74-0.58-2.59-0.87 c-1.01-0.34-2.07-0.67-3.05-1.11c-0.77-0.35-1.48-1.22-1.82-2.06c-0.46-0.6-0.4-1.52,0.3-1.95c0.51-0.32,1.02-0.63,1.53-0.95 c0.51-0.31,1.06-0.78,1.63-0.97c0.73-0.24,1.64,0.37,2.27,0.7c0.41,0.21,0.81,0.42,1.21,0.64c0.07-0.01,0.15-0.01,0.22-0.02 c0.44-0.05,0.68-0.13,1.12-0.26c0.54-0.16,1.47-0.7,2.03-0.43c0.42,0.2,0.82,0.5,1.22,0.79C178.58,57.07,179.17,57.23,179.6,57.71z M166.6,59.8c-0.04-0.04-0.07-0.08-0.1-0.12c0,0,0,0,0,0.01C166.65,59.93,166.7,59.89,166.6,59.8z M168.52,57.79 c0.02,0.01,0.04,0.03,0.06,0.04C168.59,57.83,168.59,57.83,168.52,57.79z M176.54,58.03c-0.05-0.03-0.09-0.05-0.14-0.08 c-0.41,0.18-0.81,0.37-1.22,0.58c-0.35,0.18-0.64,0.42-0.97,0.62c-0.01,0.01-0.01,0-0.02,0.01c-0.08,0.07-0.15,0.15-0.24,0.2 c-0.11,0.08-0.26,0.16-0.39,0.2c-0.68,0.21-1.57-0.34-2.19-0.61c-0.32-0.14-0.62-0.29-0.94-0.43c-0.15,0.1-0.3,0.19-0.45,0.29 c1.34,0.42,2.68,0.86,4.02,1.31c0.33-0.26,0.65-0.52,0.98-0.79C175.5,58.92,176.01,58.45,176.54,58.03z" style="fill: rgb(237, 49, 6);"/></g><g id="__id177_sqigv5k1gm"><path d="M232.12,187.33l-1.88-0.15l1.05-6.67l1.66-6.46l1.56-4.59l1.08-4.74l1.44-4.63l1.41-4.64l1.1-4.73l0.63-4.82l0.84-4.79 l-0.06-4.86l0.19-4.85l-0.99-4.75l0.27-0.04l1.09-0.39l1.13,4.37l0.88,4.44l-0.09,4.52l-0.05,4.94l-0.79,4.88l-0.89,4.86l-1.2,4.79 l-1.02,4.85l-1.38,3.9l-1.07,4l-0.97,4.02l-1.81,5.92L232.12,187.33z M120.05,192.91l0.51-2.47l-0.59-2.94l-1.4-5.36l-1.32-5.62 l-1.58-5.55l-1.31-5.57l-1.37-5.56l-0.91-5.63l-0.45-5.68l-1.63-0.14l-0.1,0l-0.22,5.7l0.33,5.67l0.72,5.77l1.42,5.64l1.33,5.61 l1.31,5.62l1.62,5.76l0.99,2.55l1.51,2.25L120.05,192.91z M215.09,183.75l-4.01,5.09l-2.1,2.48l-1.83,2.67l0.69,0.73l5.14-3.95 l4.17-5.43l2.45-3.73l2.08-3.95l1.46-4.22l-0.49-0.22l-0.11-0.1l-2.44,3.58l-2.36,3.63L215.09,183.75z M200.03,190.7l-4.33,3.28 l-2.24,1.8l-1.92,1.93l0.3,0.69l5.1-2.29l4.56-3.72l4.02-4.07l3.3-4.83l-0.52-0.36l0.05,0.04l-4.17,3.79L200.03,190.7z M161.93,70.56l3.76,1.97l4.06,1.02l4.17,0.22l4.01-0.41l3.78-1.42l3.51-2.02l2.42-3.15l-0.39-0.38l0.01,0.04l-2.79,1.67l-3.26,1.82 l-3.45,1.18l-3.61,0.44l-3.66-0.18l-3.54-0.99l-3.33-1.57l-1.61-0.91l-1.78-0.85l-0.84,0.75l0.99,1.53L161.93,70.56z M103.67,108.29 l1.83-3l2.4-2.74l2.32-2.77l3.59-3.18l4.05-2.6l4.47-1.78l4.74-1.41l1.73-0.51l0.65,4.96l1.95,6.63l0.99,4.46l0.91,4.48l0.42,4.54 l-1.61,0.03l-4.18-0.32l-4.2-0.01l-4.19-0.29l-6.43-1.08l-6.32-0.21l-0.28,1.03l5.16,2.55l5.88,0.58l5.71,0.74l5.75,0.37l4.66,0.38 l4.68,0.02l4.62-1.02l4.69,0.08l4.62-0.7l4.61-1.19l4.78-0.31l4.5-1.61l4.65-0.97l4.58-1.26l4.23-2.18l4.67-1.05l4.31-1.95 l4.18-2.22l4.14-2.27l3.95-2.14l3.89-2.25l4.03-2.02l3.53-2.91l3.56-2.82l3.66-2.78l-0.66-0.83l-0.06,0.09l-3.81,3.04L211,92.63 l-4.22,2.43l-4.4,2.08l-4.16,2.5l-4.15,1.9l-4.08,2.09l-4.45,1.16l-4.25,1.65l-4.33,1.46l-4.38,1.3l-4.36,1.37l-4.39,1.29 l-4.43,1.15l-4.51,0.81l-4.58,0.31l-4.49,0.88l-4.57,0.14l-4.56,0.16l-2.5,0.05l3.87-0.19l-0.58-5.07l-1.1-4.98l-1.26-4.94 l-1.12-3.51l-1.36-3.43l-3.22-3.11l2.44-0.72l4.94-0.63l4.7-1.62l4.53-1.99l3.89-3.04l3.83-4.03l2.49-4.98l1.8-5.25l-0.67-0.28 l-0.07-0.06l-2.51,4.38l-2.29,4.5l-3.13,3.98l-4.02,3.23l-4.76,1.96l-4.95,1.37l-4.9,0.93l-4.82,1.28l-4.68,1.65l-4.29,1.9 l-4.05,2.39l-3.72,2.89l-2.74,2.82l-2.72,2.85l-2.13,3.4l-1.31,3.74l1.74,0.66L103.67,108.29z M112.5,236.03l-3.76,4.15l2.47,2.13 l2.89-3.31l2.75-3.43l2.51-3.61l2.19-3.81l1.72-3.9l1.53-3.98l1.16-4.32l0.69-4.43l-0.91-0.22l-0.14-0.01l-1.36,4.07l-1.85,3.88 l-1.74,3.8l-1.95,3.7l-2.9,4.76L112.5,236.03z M223.39,208.85l-0.03,0L223.39,208.85L223.39,208.85z M225.26,218.37l1.77,4.52 l2.37,4.25l2.78,4.08l3.24,3.74l3.67,3.32l3.92,3.04l2.3-0.83l-0.69-2.34l-3.68-2.71l-3.35-3.12l-3.15-3.33l-2.92-3.55l-2.21-4.08 l-2.24-4.05l-1.79-4.22l-1.61-4.3l-0.3,0.05l0.52,4.84L225.26,218.37z M169.67,255.03l-4.42-0.1l-4.98-0.85l-5.05,0.08l-4.96-0.87 l-4.93-0.94l-5.01-0.63l-4.44-1.4l-4.33-1.7l-4.59-0.89l-4.31-2.11l-4.53-1.55l-4.48-1.61l-0.59,1.84l3.71,1.96l3.53,2.55l4.05,1.36 l4.14,1.04l4.06,1.22l4.1,1.08l4.88,1.71l5.04,1.13l5.16,0.36l5.09,0.76l5.15,0.17l4.44,0.79l4.48,0.11l4.46-0.6l4.47,0.05l4.41-0.9 l4.45-0.31l4.47,0.07l4.39-0.63l4.39-0.54l4.11-0.97l4.17-0.5l4.12-0.84l4.65-0.89l4.63-0.99l4.37-1.93l6.69-2.55l6.28-2.81 l-0.32-0.66l-0.1-0.16l-5.78,2.39l-5.96,1.19l-3.8,1.73l-3.97,1.2l-4.11,0.56l-5,0.85l-5.11,0.01l-4.99,0.85l-4.98,1.03l-5.1-0.06 l-4.34,1.03l-4.46-0.2l-4.4,0.42l-4.42,0.02L169.67,255.03z M137.8,323.85l3.61-2.96l3.68-2.87l3.79-2.36l3.85-2.23l3.7-2.58 l4.33-1.2l4.84-1.34l4.95-1.04l5.05,0.38l5.05-0.17l4.97,0.88l4.92,1.03l5.03,0.6l4.71,1.91l4.39,1.2l4.43,1.07l4.44,1.04l4.44,1.04 l4.46,0.91l4.42,1.12l4.55,0.29l4.53,0.41l4.56,0.48l5.05-0.92l5.05-0.6l5.01-0.89l4.95-1.22l5.05-0.74l5.01-0.94l5.01-0.97 l5.11-0.12l5.33,0.01l5.32,0.21l5.27,0.79l5.2,1.15l5.06,1.56l4.9,1.98l4.98,2.08l5.05,1.98l0.56-0.47l-0.24,0.11l-3.81-2.87 l-4.26-2.13l-4.54-1.42l-4.38-1.81l-4.53-1.34l-4.66-0.77l-4.62-0.99l-4.69-0.59l-5.09,0.1l-5.07,0.19l-5.12-0.1l-5.01,0.99 l-5.09,0.91l-5.07,1.04l-5.12,0.74l-5.1,0.93l-5.27,0.49l-5.29-0.07l-5.25-0.61l-5.15-1.15l-5.12-0.86l-5.02-1.32l-5.08-1.12 l-4.88-1.84l-4.47-1.1l-0.48-0.12l1.92-2.7l2.06-3.39l2.5-2.97l2.33-3.09l3.26-4.09l3.65-3.74l3.21-4.16l3.52-2.8l2.9-3.44 l3.65-2.62l3.32-2.99l3.52-2.75l3.45-2.85l3.67-2.56l3.68-2.46l3.79-2.28l3.86-2.16l3.59-2.59l-0.45-0.76l-4.19,1.58l-3.87,2.4 l-3.89,2.32l-3.77,2.51l-3.75,2.55l-3.77,2.54l-3.37,3.05l-3.6,2.78l-3.26,3.18l-3.25,3.17l-3.42,3l-3.05,3.38l-3.05,3.37 l-2.96,3.46l-2.71,3.45l-2.38,3.68l-2.52,3.74l-2.38,3.79l0.08,0.06l-2.31-0.56l-4.49-1.02l-4.56-0.69l-4.58-0.43l-4.59-0.16 l-4.59,0l-4.62,0.08l-4.48,1.13l-1.95,0.51l-1.25-4.73l-2.11-4.5l-2.57-4.25l-2.8-4.24l-3.27-3.89l-3.61-3.57l-3.47-3.01l-3.21-3.32 l-3.75-2.67l-3.94-2.38l-3.65-2.82l-4.05-2.19l-4.08-2.12l-4.3-1.97l-4.26-2.06l-4.49-1.89l-4.63-1.35l-0.78,1.67l3.53,2.06 l3.91,1.23l3.56,1.99l3.78,1.51l4.78,2.75l4.85,2.59l4.79,2.72l4.21,2.76l3.9,3.18l3.84,3.24l3.77,3.34l3.32,3.78l2.9,4.11 l2.27,3.33l2.24,3.38l1.55,3.9l1.63,3.79l-1.73,0.45l-4.82,2.03l-4.56,2.56l-4.46,2.74l-4.02,3.33l-3.92,3.44l-3.98,3.41l-1.96,2.45 l-3.97-1.1l-4.7-1.28l-4.65-1.4l-4.49-1.9l-4.63-1.48l-4.86-0.59l-4.54-1.93l-4.61-0.37l-4.53-0.79l-4.59-0.25l-4.54-0.98 l-4.61,0.37l-4.61-0.07l-4.54,0.78l-4.51,0.86l-4.41,1.25l-4.39,1.3l-4.96,2.09l0.55,0.94l4.74-1.79l5-0.88l4.97-0.84l4.97-1 l5.06-0.13l5.06-0.18l5.01,0.84l5,0.62l5.05,0.35l4.61,1.18l4.74,0.6l4.57,1.32l4.41,1.84l4.53,1.4l4.48,1.57l4.6,1.22l4.44,1.71 l4.49,1.55l4.43,1.74l4.53,1.75l4.78,0.98l4.65,1.37l4.52,1.85l4.78,0.89l4.76,0.9l4.7,1.26h4.89l4.79,0.69l4.84,0.11l4.94,0.37 l4.96,0.02l4.94-0.49l4.93-0.53l4.86-0.97l4.97-0.61l4.84-1.21l4.91-0.77l4.9-0.69l5-0.51l4.81,1.54l4.87,1.12l4.44,2.31l4.53,2.22 l3.69,3.44l3.68,3.38l3.89,3.18l2.95,4.08l3.38,3.68l3.75,4.44l1.96-1.68l-3-3.63l-3.01-3.61l-2.62-3.98l-3.56-3.12l-3.56-3.09 l-3.45-2.89l-3.62-2.67l-3.97-2.11l-4.03-1.94l-4.04-2.08l-4.66-1.15l-4.8,0.24l-4.76-0.17l-4.7,0.77l-4.59,1.26l-5.03,0.83 l-4.98,1.12l-5.08,0.49l-5.06,0.58l-5.09,0.11l-5.11,0.39l-5.13,0.1l-5.1-0.59l-5.06-0.8l-5.03-0.9l-4.86-0.74l-4.67-1.55 l-4.74-1.25l-4.61-1.67l-4.62-1.62l-4.83-0.89l-4.57-1.67l-2.85-1.49l1.16-0.7L137.8,323.85z M49.95,322.82l-0.3-0.51l-0.01,0 L49.95,322.82z M291.16,384.24l-3.52-2.02l-3.29-2.36l-0.17,0.12l0.01,0l2.67,3.94l3.88,2.78l4.52,1.56l1.67,0.31l2.22-0.15 l0.56-1.37l-1.81-1.01L291.16,384.24z M289.35,392.05l3.46,1.6l3.96,0.66l0.22-2.52l-1.69-0.17l-1.66-0.36l-3.13-1.23l-2.84-1.73 l-2.73-1.94l-0.27,0.17l0.03,0l1.65,3.1L289.35,392.05z M257.3,253.11l0.07,0.11l0.06-0.02L257.3,253.11z M298.18,394.41l-4.24,1.38 l-3.4,0.32l-1.1-0.32l-1.41-0.51l-2.79-1.56l-2.46-1.87l-2.44-2.11l-0.27,0.18l0.03-0.01l1.38,3.04l2.52,2.56l1.7,1.01l-0.62,0.05 l-4.47-0.33l-0.35-0.07l-0.05-0.29l-0.95-0.65l-0.03-0.01l-0.18-0.13l-0.34-0.28l-1.35-1.3l-0.29-0.32l-0.05-0.03l-0.17-0.2 l-0.26-0.35l-0.35-0.43l-0.26-0.32l-0.11-0.13l-0.31-0.3l-0.26-0.26l-0.35-0.19l-0.28,0.12l0.01,0l-0.16,0.41l0.03,0.46l0.25,1.06 l1.02,1.84l0.42,0.44l-0.01,0l-4.23-1.43l-4.42-1.98l-4.63-1.33l-4.45-1.83l-4.61-1.43l-4.22-2.41l-4.55-1.59l-4.57-1.67l-4.56-1.7 l-4.65-1.43l-4.68-1.31l-4.69-1.25l-4.65-1.4l-4.57-1.73l-4.82-0.72l-4.7-1.29l-4.78-0.9l-4.83-0.6l-4.82-0.74l-4.88,0.01l-4.87,0 l-4.86-0.13l-4.85,0.64l-4.86-0.07l-4.89-0.54l-4.82,0.86l-4.85,0.32l-4.84,0.48l-4.87,0.18l-4.85,0.45l-4.7,1.56l-4.92-0.01 l-4.82,0.77l-4.76,1.17l-4.94-0.15l-4.75,1.29l-4.89,0.24l-4.87,0.37l-4.77,1.29l-4.95-0.55l-4.86,0.37l-4.85,0.52l-4.86,0.42 l-4.75,0.21l-4.76,0.1l-4.74-0.6l-4.78,0.14l-4.72-0.64l-4.58-1.43l-4.81-0.21l-4.55-1.42l-4.47-1.66l-4.47-1.72l-3.92-2.76 l-5.26-3.49l-1.23,1.84l3.4,3.77l4.2,2.91l4.67,2.09l4.75,1.87l4.88,1.48l4.29,1.1l4.33,0.96l4.43,0.25l4.45-0.24l4.34,1.26 l4.43-0.47l4.95,0.59l4.96-0.04l4.92-0.78l4.97,0.27l4.87-1.12l4.94-0.21l4.94-0.32l4.87-0.91l4.86-0.96l5.01,0.2l4.84-1.1 l4.84-1.04l4.96-0.23l4.82-1.22l4.95-0.31l4.99,0.05l4.87-0.92l4.85-1.2l4.95-0.26l4.98,0.35l4.92-0.48l4.93-0.65l4.96-0.16 l4.93,0.81l4.95,0.17l4.89,0.79l4.98,0.09l4.89,0.84l4.9,0.79l4.74,1.49l4.74,1.45l4.94,0.72l4.51,2.18l4.96,0.76l4.54,2.03 l4.87,1.08l4.56,1.73l4.4,2.13l4.44,2.01l4.8,1.08l4.4,2.11l4.7,1.3l3.92,2.39l4.42,0.85l4.41,0.79l4.44,0.89l4.49-0.62l1.88-0.46 l0.28,0.06l0.03-0.14l2.15-0.53l5.99-2.08l-0.48-0.93L298.18,394.41z M12.95,317.92l-2.31,3.54l-1.61,3.89l-1.67,4.52l-1.29,4.64 L5.11,339l-0.19,4.59l0.58,4.72l0.84,2.04l1.41,1.42l1.24-0.39l0.31-1.94l-0.42-1.98l-0.55-4.04l0.15-4.39l0.83-4.31l0.73-4.29 l1.13-4.21l0.92-4.08l1.1-4.03l-0.15-0.17L12.95,317.92z M17.82,313.3l0.56,0.79l1.74,0.71l4.1,0.15l3.89-1.62l3.32-2.58l2.96-3.3 l2.85-3.44l2.8-3.82l2.99-3.68l2.89-3.82l3.35-3.41l3.54-3.22l3.29-3.47l3.34-3.43l3.67-3.07l3.4-3.37l3.69-3.05l4.19-3.35 l3.86-3.73l4.43-3.14l2.25-2.24l2.73-1l5.32-4.23l-0.04,0.42l1.8,0.59l1.83-0.85l1.63-0.88l2.94-1.84l2.79-2.07l1.44-1.19l1.26-1.41 l-0.46-0.72l0,0.03l-1.78,0.66l-1.66,0.68l-3.16,1.63l-3.07,1.6l-0.3,0.16l0.33-0.33l3.49-3.21l2.54-4l2.53-3.88l2-4.18l2.03-4.18 l1.18-4.08l1.19-4.08l0.77-4.18l1.05-4.11l1.33-5.03l1.13-5.08l0.78-4.97l0.2-5l-0.01,0.05l-0.15-0.13l-1.55,3.96l-1.09,4.11 l-1.19,4.17l-1.27,4.16l-0.92,4.19l-1.06,4.15l-0.93,4.18l-1.42,4.04l-1.48,4.31l-1.9,4.16l-2.36,3.91l-2.6,3.76l-3.04,3.41 l-3.04,3.42l-3.04,2.32l-3.04,2.3l-2.99,2.24l-3.12,2.09l0.35,0.6l-2.62,2.2l-3.81,2.47l-3.36,3.03l-3.65,2.72l-3.35,3.08 l-3.34,3.09l-3.27,3.16l-3.91,3.32l-3.67,3.58l-3.42,3.81l-3.45,3.78l-3.32,3.89l-3.5,3.76l-2.92,4.22l-3.09,3.52l-3.47,3.07 l-4.08,1.25l-2.01-0.43l-0.77,0.21l-1.48-0.42l-0.26,0.29l-3.12-3.1l-2.15-4.73l-1.68-5.44l-1.51-5.51l-2.15-5.55l-3.38-5.11 l-1.25-4l0.66-4.16l1.04-4.07l0.94-3.64l0.92-3.66l1.9-5.93l0.12,0.07l1.57,4.89l-0.56,6.4l0.39,6.57l1.73,6.37l0.06-0.01 l-0.79,1.71l-0.52,2.2l-0.04,2.95l2.92-0.04l0.12-2.25l0.31-1.83l1.44-3.78l2.19-3.34l2.92-2.91l-0.48-0.79l-0.01-0.01l-3.91,2.19 l-2.93,3.4l0.03-1.28l-0.63-3.59l-0.24-3.82l0.23-3.39l2.21-0.34l1.65-1.08l1.33-0.28l0.21,0.06l0.22,0.05l0.59,0.45l1,1.44 l0.69,1.66l1.17,2.07l1.96,1.37l-0.5-0.06l1.1,0.39l0.68-0.7l-0.41-0.84l0.03,0.49l-0.56-2.33l-0.74-2.25l-2.79-3.99l-5.11-0.43 l-1.83,1.18l-0.63,0.44l0.19-1.78l-0.6-4l-1.85-1.54l3.01-4.73l1.81-1.88l2.49,0.69l3.34,5.3l4.92,3l4.91,0.85l5-0.87l4.09-3.01 l3.58-3.53l3.3-3.81l3.05-4.14l2.66-4.4l3.03-4.14l2.97-4.19l3.33-3.91l2.93-3.01l2.73-3.2l3.39-2.49l3.17-2.94l3.49-2.54l3.31-2.77 l2.69-3.38l2.06-3.81l1.06-4.19l1.38-6.5l0.45-3.28l-0.11-3.23l-1.07,0.08l-0.34-0.3l-1.39,5.58l-1.69,5.68l-1.9,5.61l-3.07,5.07 l-3.17,2.67l-3.04,2.88l-3.62,2.09l-2.96,2.98l-2.94,2.97l-2.96,2.96l-3.08,3.97l-3.35,3.77l-2.74,4.22L48,240.44l-2.52,4.36 l-2.45,3.56l-3.01,3.11l-3.17,2.95l-5.61,2.14l-5.86-1.25l-4.47-5.13l-4.9-4.13l-4.89,3.57l-1.66,3.36l-1.06,2.78l-0.35-0.12 l-0.09-0.14l-3.21,5.93l-2.51,6.47l-1.12,4.39L0,276.66l0.26,4.56l3.46,5.55l2.5,5.88l1.19,3.97l1.12,4l0.81,4.09l1.89,3.82 l2.61,3.32l3.76,1.83L17.82,313.3z M22.54,276.6l-0.02,0l-3.27,3.76l-2.12,5.03l-0.86,5.39l-0.19,2.77l0.21,3l3-0.05l0.06-2.71 l0.1-2.61l0.54-4.92l1.2-4.8l1.61-4.67L22.54,276.6z M26.27,286.01l0.65-1.87l0.66-1.62l-0.42-0.6l-0.02,0.04l-3.06,2.4l-1.77,4.93 l-0.83,5.66l-0.01,2.8l0.81,3l2.15,0.01l0.65-2.77l-0.14-2.64l0.55-4.8L26.27,286.01z M32.26,292.41l0.5-4.07l0.92-3.99l-1.78-0.68 l-0.03-0.02l-1.68,3.98l-1.1,4.18l-0.49,4.28l0.78,4.29l0.66,0.88l1.07-0.14l0.52-1.2l-0.29,0.59l0.67-4.24L32.26,292.41z M29.43,300.63l-0.04-0.24l-0.28-0.38L29.43,300.63z M362.86,324.25l-1.08-4.69l-1.78-4.45l-2.44-4.16l-1.34,0.89l-0.06,0.04 l2.7,4.46l1.78,4.92l0.53,5.21l-0.35,5.22l-1.45,5.12l-2.11,4.87l-2.8,4.51l-3.14,4.29l-2.84,3.3l-3.17,2.99l-3.4,2.72l-3.64,2.38 l-3.86,2.01l-4.63,1.35l-4.73,0.92l-4.81,0.36l-4.81,0.13l-4.82,0.29l-4.78-0.05l-4.77-0.38l-4.77-0.11l-7.15-0.41l-3.44-0.28 l-3.92,0.25l-0.21,1.61l3.11,0.9l3.49,0.78l6.67,0.36l4.52,0.28l4.53,0.06l4.53,0.3l5.19-0.16l5.19-0.04l5.17-0.51l5.12-0.86 l4.97-1.46l4.25-1.8l3.99-2.34l3.77-2.69l3.35-3.21l3.19-3.36l2.76-3.58l2.32-3.87l2.19-3.94l1.64-4.2l0.96-4.39l0.58-4.78 L362.86,324.25z M240.61,196.38l-2.32-4.05l-2.46-3.96l-0.3,0.06l1.36,4.09l1.72,3.96l1.62,4l1.37,3.95l1.65,3.85l1.74,3.81 l2.15,5.51l2.86,5.15l3.2,3.93l2.94,4.2l4.06,3.13l3.47,3.83l4.65,2.34l4.07,3.1l3.76,3.51l3.29,3.98l3.88,3.35l3.67,3.63l2.1,3.37 l-3.66-1.65l-5.09-2.08l-5.21-2.1l-5.14-2.29l-5.04-2.24l-4.8-2.73l-4.84-2.62l-2.56-1.56l-2.7-0.58L249.7,244l1.62,1.93l2.38,1.67 l4.86,2.6l5.08,2.68l5.25,2.33l5.36,2.07l5.35,2.1l4.97,1.86l5.34,1.27l1.81,3.11l2.2,4.01l2.36,3.91l3,3.54l1.59,4.36l2.7,3.72 l2.37,3.91l2.82,3.62l2.21,4.69l3.3,3.94l3.55,3.69l3.4,3.8l4.07,3.01l4.5,2.18l4.39,1.14l4.56,0.02l4.38-0.49l4.19-1.46l3.8-2.34 l2.61-3.6l2.65-4.46l1.03-5.09l1.13-5.1l-0.74-5.17l-0.47-4.98l-2.76,0.73l0.79,4.92l0.33,5.01l-1.38,4.84l-0.93,4.93l-1.93,3.77 l-3.31,2.61l-3.83,1.83l-4.03,1.4l-4.47,0.42l-4.53-0.42l-4.41-1.99l-3.87-2.88l-3.55-3.59l-2.81-4.19l-2.61-4.27l-3.14-3.9 l-2.27-4.35l-2.57-4.16l-2.83-4.02l-2.64-4.13l-2-4.51l-2.47-4.24l-2.54-4.21l-2.98-3.91l-3.36-3.66l-3.34-3.63l-3.63-3.33 l-3.65-3.29l-3.29-3.71l-3.92-2.91l-3.99-2.81l-4.03-2.78l-4-3.84l-3.62-4.19l-2.35-3.37l-2.12-3.53l-1.05-4.02l-2.03-4.09 l-2.2-4.02l-1.57-4.29L240.61,196.38z M235.83,188.35l0.01,0.02l0.17-0.04L235.83,188.35z M348.12,300.88l-1.87,4.57l0.59,0.68 l1.83-1.33l1.16-2.39l0.85-5.37l-0.11-4.36l-0.48-4.34l-0.99-4.26l-0.96,0.19l0.01,0l0.72,5.85l-0.02,5.89L348.12,300.88z M340.49,305.27l0.79,0.14l1.85-6.69l0.01-6.62l-1.93-5.67l-3.64-3.27l-2.33,3.58l-0.28,6.72l-1,3.1l-2.77-1.58l-2.79-5.39 l-4.64-4.41l-5.95-0.59l0,0.39l-0.02,0.06l2.37,0.57l2.78,1.12l4.3,4.09l2.05,4.66l3.89,2.92l3.29-3.1l0.27-4.94l0.19-3.15 l1.57-1.75l1.64,2.43l0.92,2.96l0.59,7.11l-0.66,3.65L340.49,305.27z M351.6,269.11l-2.21,0.71l-2.62,0.42l-5.28-1.7l-4.99,0.1 l-3.8,3.56l0.9,0.77l0.07,0.09l4.18-2.94l5.13,1.33l5.05,0.68l0.98-0.58l-1.36,5.45l-1.9,2.29l-2.91,1.17l-5.53-1.05l-1.53-1.95 l-0.5-1.13l-0.44-1.13l-1.16-0.08l-0.5,1.71l0.43,1.56l2.13,2.75l3.46,1.52l3.79,0.04l3.73-1.34l2.71-2.87l1.33-3.59l-0.5-3.78 l-0.64,0.05l2.4-1.43L351.6,269.11z M280.66,196.95l2.89,3.7l2.73,3.81l2.72,3.83l2.96,3.68l3.48,3.21l3.18,3.48l3.92,5.93 l2.82,6.06l1.67,4.06l1.63,4.1l0.89,4.32l1.34,3.96l1.81,3.77l2.25,3.53l4.52,3.61l5.7,0.24l5.56-1.1l5.67-0.69l3.08,2.01l3.17,1.84 l2.77,2.68l2.81,2.64l3.21,1.85l2.91,1.98l2.17,5.77l0.97,0.51l0.3-4.88l-3.27-4.02l-3.75-2.63l-3.49-2.95l-3.34-3.12l-5.79-3.15 l-5.45-0.64l-5.87,1.11l-5.93,0.62l-3.51-2.46l-2.33-3.53l-1.9-3.77l-1.09-4.44l-1.88-4.17l-1.12-4.4l-1.14-4.39l-2.12-4l-2.36-3.85 l-3.12-3.57l-3.04-3.63l-3.25-3.42l-3.67-3.92l-3.52-4.07l-3.13-4.38l-2.54-3.28l-2.07-3.59l-2.13-3.33l-2.31-3.2l-0.75,0.25 l-0.23,0.16l2.9,5.98L280.66,196.95z M178.04,229.97l-0.4-0.79l-0.68-0.27l-1.21,0.89l-0.02,0l-0.2,2.2l-0.04,0.98l0.2,0.91 l-0.01-0.1l0.02,0.06l0.1,0.27l0.83,0.58l0.89-0.49l0.1-0.21l0.04-0.09l-0.04,0.09l0.29-0.89l-0.02-0.23l0.09-0.97L178.04,229.97z M183.29,43.69l2.81-0.98l1.34-2.46l-0.62-0.3l-0.01-0.04l-0.83,0.66l-0.96,0.66l-1.99,0.56l-2.29-0.51l-1.27-0.58l-1.3-0.21 l-0.31,0.37l0.73,1.3L180,43.1L183.29,43.69z M161.37,44.11l2.59,0.23l2.5-1.01l0.5-2.6l0,0l-0.62,0.04l-0.2,0.06l-0.2,0.06l-1,0.56 l-0.02,0.02l-0.22,0.08l-0.42,0.18l-0.22,0.06l-0.12,0.01l-0.12,0.03l-0.28,0.04l-0.46,0.01l-0.23-0.04l-0.02,0.04l-0.92-0.2 l-0.04,0.02l-0.2-0.13l-0.58-0.26l-0.23-0.05l-0.21-0.08l-0.9-0.04l0.55,0L159.51,41l-0.59,0.66l0.33,0.98l-0.14-0.49l1,1.43 L161.37,44.11z M170.29,51.44l0.8-2.43l1.38-6.32l-1.11-3.42l-2.35-2.6l-0.43,0.34l-0.02,0l1.13,2.9l0.84,3.11l-1.46,6.22 L170.29,51.44z M189.93,32.11l-5.53-2.08l-2.99,0.33l-2.71,1.38l0.36,0.84l0,0l2.66-0.47l2.68-0.2l2.58,0.41l2.66,0.47L189.93,32.11 z M165.95,31.3l-0.58-0.65l-1.62-0.73l-3.59-0.39l-3.54,0.64l-1.63,0.66l-0.77,0.54l-0.13,0.37l-0.13,0.2l0.19,0.59l0.63,0.22 l0.82,0.04l1.53-0.35l3.03-0.65l3.04,0.16l1.69,0.31l0.72-0.09l0.27-0.13l0,0.01l0.18-0.38l-0.02,0.02l-0.04,0.08l0.04-0.16 L165.95,31.3z M204.05,50.65l1.79-5.23l0.05-5.47l-0.95-2.59l-1.92-1.66l-0.69,0.76l-0.06,0.03l0.69,2.05l0.59,2.23l0.01,4.68 l-1.13,4.46l-1.25,2.09l-0.53,1.9l0.18,0.28L204.05,50.65z M183.75,1.33c0.65,0,1.07,0.36,1.65,0.61c0.56,0.23,0.96,0.55,1.43,0.92 c0.9,0.72,1.55,1.71,2.11,2.7c0.62,1.09,1.26,2.21,1.59,3.43c0.15,0.57,0.19,1.06,0.14,1.68c-0.04,0.53-0.27,1.14-0.25,1.73 c0.04,0.9,0.94,1.39,1.73,0.99c1.63-0.83,1.61-3.24,1.29-4.77c-0.35-1.66-1.27-3.2-2.17-4.63c-0.83-1.32-1.95-2.84-3.43-3.48 c-0.65-0.28-1.56-0.53-2.28-0.47c-0.71,0.06-1.34,0.47-1.91,0.86C183.48,1.03,183.52,1.33,183.75,1.33z M146.85,36.03l1.47,1.29 l1.5-1.16l1.76-3.6l0.94-3.24l1.39,0.42l4.23-0.55l4-1.56l2.64-0.6l1.49,0.49l4.55,0.23l4.26-1.84l1.45-0.43l1.11,0.22l5.31,0.5 l5.11-1.74l1.29-1.09l0.08,0.43l1.02,4.21l1.35,4.11l2.64,3.85l2.27-4.12l0.48-4.41L196.76,23l-1.3-4.24l-0.7-0.98l0.86-1.07 l-1.64-0.02l-0.65-0.91l-0.19,0.15l-2.58-2.62l-3.78-2.85l-4.21-2.18l-4.54-1.39l-4.73-0.43l-4.7,0.57l-5,1.62l-4.69,2.39 l-4.55,2.68l-3.08,2.09l-0.7,0.71l-0.65-1.86L147.29,18l-1.32,4.06l-0.68,4.7l0.2,4.73L146.85,36.03z M136.6,53.95 c0.71,1.57,1.68,4.01,3.33,4.77c1.11,0.51,2.2-0.19,2.27-1.39c0.1-1.63-1.32-3.38-1.99-4.81c-0.7-1.48-1.26-3.1-1.3-4.75 c-0.04-1.25,0.24-2.45,0.67-3.61l-0.11,3.16l1.38,5.37l1.55,2.34l2.2,1.32l0.78-0.97l-1.16-1.84l-0.03-0.25l-0.33-0.7l-0.44-0.99 l-1.35-4.55l-0.46-4.65l1.28-4.47l-0.43-0.32c1.08-3.22,1.18-6.77,0.49-10.08c-0.71-3.42-2.7-6.91-1.08-10.38 c0.3-0.64-0.6-1.15-0.96-0.54c-1.78,2.99-0.9,6.58-0.57,9.83c0.4,3.96-0.32,7.83-2.01,11.42c-1.61,3.42-3.65,6.69-3.29,10.63 C135.22,50.41,135.8,52.21,136.6,53.95z" style="fill: inherit;"/></g><g id="__id178_sqigv5k1gm"><path d="M187.1,32.55c-0.07,0.25-0.2,0.47-0.39,0.66c-0.1,0.08-0.2,0.16-0.3,0.23c-0.34,0.22-0.77,0.24-1.16,0.15 c-0.36-0.08-0.71-0.38-0.9-0.69c-0.18-0.31-0.28-0.81-0.15-1.16c0.11-0.31,0.19-0.63,0.25-0.95c0.04-0.37,0.04-0.75,0-1.12 c0-0.01,0-0.02,0-0.03c-0.08-0.42-0.05-0.78,0.15-1.16c0.18-0.35,0.53-0.57,0.9-0.69c0.36-0.12,0.83-0.04,1.16,0.15 c0.3,0.18,0.62,0.54,0.69,0.9C187.58,30.09,187.54,31.37,187.1,32.55z M174.4,50.69C174.42,50.78,174.42,50.75,174.4,50.69 L174.4,50.69z M174.41,51.47C174.41,51.47,174.41,51.47,174.41,51.47c-0.05,0.09-0.05,0.1-0.03,0.07c0.01-0.01,0.01-0.02,0.02-0.03 C174.4,51.5,174.4,51.48,174.41,51.47z M174.26,49.07c-0.37,0.4-0.39,1.01,0,1.41c0.02,0.02,0.03,0.03,0.05,0.05 c0.02,0.03,0.04,0.07,0.06,0.1c0.01,0.02,0.02,0.04,0.02,0.05c-0.01-0.02-0.01-0.04-0.02-0.08c0.02,0.06,0.04,0.11,0.06,0.17 c0.02,0.05,0.03,0.11,0.04,0.16c0,0,0,0.01,0,0.01c0,0.07,0.01,0.16,0,0.24c0,0.02-0.01,0.05-0.01,0.07 c-0.01,0.07-0.03,0.14-0.06,0.2c0.01-0.01,0.01-0.02,0.02-0.04c-0.02,0.02-0.03,0.05-0.04,0.08c-0.01,0.01-0.01,0.02-0.02,0.03 c-0.01,0.03-0.02,0.05-0.04,0.07c-0.02,0.04-0.05,0.07-0.07,0.11c-0.01,0.01-0.02,0.03-0.04,0.04c-0.04,0.04-0.08,0.08-0.12,0.12 c-0.02,0.01-0.03,0.03-0.05,0.04c-0.1,0.05-0.2,0.13-0.3,0.18c-0.01,0-0.02,0.01-0.03,0.02c-0.02,0.01-0.12,0.05-0.14,0.05 c-0.12,0.04-0.24,0.06-0.37,0.09c-0.01,0-0.02,0-0.03,0c-0.06,0-0.11,0.01-0.17,0.01c-0.08,0-0.15,0-0.23-0.01 c-0.11-0.04-0.25-0.05-0.36-0.09c-0.01,0-0.02-0.01-0.02-0.01c0,0,0,0-0.01,0c-0.05-0.03-0.1-0.05-0.15-0.09 c-0.01-0.01-0.02-0.01-0.03-0.02c-0.05-0.05-0.11-0.1-0.15-0.16c-0.34-0.4-1.07-0.38-1.41,0c-0.39,0.42-0.36,0.99,0,1.41 c0.85,0.99,2.46,1.19,3.63,0.73c0.67-0.26,1.21-0.65,1.64-1.23c0.37-0.49,0.55-1.14,0.55-1.75c0-0.75-0.28-1.48-0.8-2.01 C175.31,48.69,174.62,48.67,174.26,49.07z" style="fill: rgb(255, 150, 196);"/></g><g id="__id179_sqigv5k1gm"><path d="M253.24,162.79l0.08,0.16l-0.31-3.69l-0.56-5.3l1.6-0.53l2.17,3.84l0.84,1.25l-0.24-1.42l-0.96-4.32 l-1.05-4.3l0.07-0.02l0.85-0.29l1.36,4.34l1.16,4.4l0.87,4.46l-0.92,0.82l-2.66-2.7l-0.71-1.23l0.12,0.89l0.87,5.28l0.66,5.31 l-2.02,0.68l0.02,0.1l-0.13,2.29l-1.13,0.37l-1.37-2.16l-0.55-2.45l-0.66-4.85l-0.02-0.06l0.02,0l-0.05-0.34L253.24,162.79z M263.86,214.83l-2.7-4.3l-2.57-4.26l-1.35-2.08l-1.35-2l-0.64,0.34l0,0l0.49,2.25l0.92,2.48l2.26,4.65l2.45,4.16l-0.69,0.65 l1.7,2.55l2.64,1.82l1.77-2.1L263.86,214.83z M263.06,221.98l-0.85-1.13l-1.82-2.4L258.8,216l-1.32-2.56l-1.46-0.71l-0.72,1.45 l-0.02,0.01l2.74,5.88l1.54,2.62l0.87,1.24l1.77,1.16l1.51-1.38l0.03-0.3l-0.12-0.57L263.06,221.98z M179.12,151.82l-1.03,3.21 l-0.92,3.56l-0.37,1.45l-0.48-2.9l-1.88-3.58l0.18-0.7l-0.38,0.32l-0.96-1.83l-1.13,0.99l-1.12,4.28l-1.02,4.3l-1,4.31l-0.93,4.32 l2.47,0.55l0.97-4.32l0.93-4.33l1.05-4.31l0.18-0.67l0.48,2.85l1.16,6.5l2.35,0.16l1.66-6.97l0.76-3.41l0.6-3.48L179.12,151.82 L179.12,151.82z M164.28,166.98l-1.03,3.92l-0.82,4.13l-0.72,3.99l-0.35,4.08l1.73,0.16l0.79-3.91l0.54-4.19l0.43-4l0.21-4.11 l-0.83-0.09L164.28,166.98z M93.64,238.7l2.51-5.07l2.08-4.83l1.74-4.94l1.39-5.44l-0.64-0.27l0.02,0.01l-2.49,4.59l-2.4,4.88 l-2.26,4.76l-1.35,2.73l-0.5-0.06l-0.42,1.9l-0.16,0.32l0.09,0l-0.25,1.12L93.64,238.7z M88.11,235.14L88.11,235.14L88.11,235.14 L88.11,235.14z M82.12,244.63l0.45-0.52l0.94-1.1l1.94-2.26l3.87-4.43l-1.2-1.18l-3.9,4.51l-1.91,2.18l-1,1.17l-0.43,0.53 l-0.23,0.84l0.76,0.57L82.12,244.63z M66.3,297.51l1.78-3.73l2.56-3.39l2.64-3.32l-1.16-0.52l-0.41-0.75l-1.93,1.87l-1.18,1.01 l2.54-3.39l2.39-3.52l2.41-3.5l-1.08-0.86l-0.05-0.04l-3.39,3.72l-3.18,3.77l-3.13,3.94l-1.08,3.97l1.33,0.37l-1.8,3.5l-0.78,4.46 l2.39,0.39L66.3,297.51z M251.33,326.56l-4.29-0.55l-0.18,0l0.32-0.13l0.04,0l-0.01-0.01l0.68-0.29l-0.74-1.58l-5.83,0.46 l-5.79,0.87l-5.5,1.46l-2.74,0.74l-2.74,0.2l-0.24,1.11l4.62,0.37l5.78-1.75l4.14-0.77l3.86-0.46l0.08,1.55l5.43,0.21l5.34,1.03 l5.06,1.99l0.79-1.49l0.01-0.02l-3.97-1.71L251.33,326.56z M108.21,362.34l-4.46,0.69l-4.47,0.55l-4.48,0.53l-4.51,0.18l-4.51,0.26 l-4.7,0.01l-4.69,0.2l-4.69,0.13l-1.89,0.08l1.52-0.53L71,363.13l-4.57,0.78l-4.47,1.25l0.28,2.55l4.79,0.01l4.79-0.12l4.79-0.02 l4.79-0.03l4.79-0.2l4.57-0.03l4.55-0.35l4.54-0.54l4.46-0.96l4.4-1.18l-0.5-1.92L108.21,362.34z M67.57,362.44l4.67-0.88l4.66-1.04 l-0.06-0.47l0,0l-4.15,0.26l-4.15,0.2l-4.06,0.11l-4.3-0.18l-4.07-0.22l-4.06-0.31l-4.29-0.46l-1.62-0.16l0.11-0.01l-0.25-0.1 l-1.28,0.12l0.2,2.64l4.16,0.89l4.67,0.27l4.67,0.04l4.58-0.22L67.57,362.44z M158.09,89.36l-2.76,3.55l-2.52,3.81l-2.38,3.76 l-0.1-0.28l-0.48,0.67l-1.6-1.89l2.52-4.02l2.6-3.61l1.71-2.04L150.58,92l-1.6-1.46l2.44-3.86l3.52-2.93l3.89-2.42l0.02,0.03 l0.45,0.69l-3.31,2.6l-2.95,2.99l-0.07,0.14l3.36-1.79l3.69-1.68l1.21,1.86L158.09,89.36z M149.8,98.59l-0.11-0.31l-0.31,0.22 L149.8,98.59z M152.13,102.6l-1.28,2.48l1.75,0.88l1.31-2.28l1.27-2.25l2.65-4.27l-0.39-0.36l0.02,0.02l-3.74,3.59L152.13,102.6z M112.83,112.03l-1.18-1.9l1.7-2.14l1.7-1.68l0.88-0.86l1-0.92l1.73-1.58l0.01,0.01l0.99-0.07l0.2,0.96l-0.97,1.34l-0.3,0.38 l-0.35,0.6l-1.36,1.87l-1.58,2.01l-0.76,0.88l-0.46,0.4l-0.19,0.18l0.02-0.04l-0.42,0.37l-0.01-0.24l-0.55,0.45L112.83,112.03z M113.63,109.83l0.01,0.02l0.01,0.01L113.63,109.83z M155.95,21.44l2.49-1.21l0.83,1.76l4.99-2.06l1.65-1.04l1.23,1.86l3.57-2.11 l1.33,1.54l5.22-2.52l0.87-0.75l-0.52,1.34l1.45,1.58l3.86-2.77l2.73-3.91l-1.47-0.75l-0.03-0.02l-2.47,3.14l-0.78,0.5l0.79-2.16 l0.01-0.01l-0.01,0l0.21-0.56l-2.01-1.01l-3.96,3.4l-0.86,0.44l1.45-2.09l-2.01-1.4l-2.39,2.05l0.82-1.12l-1.02-0.92L171.2,12 l-0.04,0.05l-3.81,3.11l-2.65,1.65l0.75-0.86L164,14.2l-4.33,2.8l-4.57,2.39l-4.86,1.74l0.63,2.02L155.95,21.44z M147.78,76.21 l-0.2,1.68l0.09,1.91l1.37-0.06l0.15-1.73l0.08-1.81l0.6-3.49l-1.13-0.6l-1.34,1.94l0.09-0.5l1.43-3.71l-0.66-0.48l-0.01,0 l-2.04,3.78l-1.01,4.17l1.54,0.59L147.78,76.21z M200.93,65.59l0.86,4L202,71.6l1.38,1.5l0.39-3.56l1.35,1.83l1.5-0.53l-1.11-4.65 l-2.86-3.82l-0.35,0.3l0.01,0l1.88,3.97l0.15,0.87l-1.92-2.67L200.93,65.59z M194.06,24.23l0.69,2.85l0.78,0.47l0.67-0.62l0.32-2.43 l0.02-0.09l0.15,0.63l0.21,1.16l0.58,1.3l0.84-0.19l0.12-0.74l-0.08-0.83l-0.35-1.56l-0.39-1.45l-0.83-1.1l-1.27,0.63l-0.36,1.41 l-0.08,0.52l-1.26-2.79l-0.37,0.27l0.01-0.01L194.06,24.23z M212.88,112.38l-0.19-0.09l-0.08,0.39l-1.75,4.79l-3.28,3.95l-4.32,2.99 l-5.14,1.28l-5.1-1.41l-0.34-0.31l-0.2,0.43l-3.22,3.88l-4.39,2.48l-4.92,1.03l-4.8-0.88l-4.14-2.53l-0.86-0.9l-1.05,1.84 l-2.97,3.22l-3.9,2.01l-4.27,0.83l-4.41,0.16l-3.86-1.81l-0.47,1.01l-3.43,3.65l-4.7,1.95l-5.11,0.07l-4.54-2.21l-1.33-1.21 l-0.33,0.46l-3.97,2.03l-5.19,0.4l-4.95-1.57l-4.22-3.11l-0.79-1.35l-0.27,0.19l-4.14,1.15l-4.27-0.75l-3.76-2.14l-2.59-3.43 l2.81-1.84l2.72,3.43l4.2,1.2l3.79-0.4l-0.13-4.42l1.67-3.74l3.96-0.98l2.49,2.6l-0.65,3.76l-2.66,3.22l-0.65,0.45l0.67,0.98 l3.03,2.47l5.2,1.72l5.15-1.82l0.58-0.63l-1.38-4.65l2.03-4.01l4.06-1.65l1.44,0.75l0.21,4.47l-1.8,4.07l-0.74,1.04l2.4,2.02 l4.8,0.66l4.62-1.03l3.93-2.78l0.75-1.55l-2-2.96l1.26-4.03l3.74-1.89l1.16,1.12l-0.8,5.44l-0.83,1.79l3.68,1.38l4.31-0.05 l4.19-1.18l3.53-2.57l2.34-3.28l-1.02-1.07l-1.27-4.66l1.43-3.39l3.47-0.11l1.12,4.4l-1.13,4.27l0.2,0.42l3.76,2.52l4.42,0.77 l4.26-1.09l4.21-2.18l2.85-3.4l-1.86-1.69l0.06-4.72l3.05-3.12l2.72,2.76l-0.34,4.22l-0.34,0.71l2.33,1.75l4.82-0.16l4.07-2.65 l3.39-3.47l1.33-4.95l-2.61-1.26l-0.36-4.45l4.01-1.17l2.22,3.89l-0.26,1.36l1.05,0.28l4.07-1.33l3.43-1.21l2.62-2.53l3.17-3.7 l2.27-4.31l1.06-4.75l0.11,0l1.55-0.05l-0.67,4.83l-1.63,4.89l-3.25,3.98l-3.67,3.54l-4.6,2.24L212.88,112.38z M112.25,126.07 l-0.55,3.24l2.14-1.97l0.64-2.41L112.25,126.07z M129.98,132.48l0.83-0.91l0.48-3.68l-2.12,1.48L129.98,132.48z M149.39,129.55 l0.07-0.14l0.04-2.25l-0.77,0.85L149.39,129.55z M168.61,119.78l1.43,3l0.46-1.15l-0.31-3.56L168.61,119.78z M191.35,116.95 l0.21,1.58l0.86,0.65l0.59-1.48l-0.69-2.29L191.35,116.95z M210.14,108.65l0.51,0.14l-0.54-2.08l-0.77,0.64L210.14,108.65z M223.66,121.01l-0.88-1.18l-1.17-0.67l-2.13-1.14l-2.19-1.04l-1.23-0.42l-0.75,0.43l-0.01,0l1.23,1.61l2.05,1.35l1.95,1.21 l2.48,0.86l-0.52,0.04l0.65,0.05l0.69-1.05l-0.33-0.5L223.66,121.01z M215.59,123.84l-0.12-0.29l0.02,0.03l-0.09-0.27l-0.1-0.56 l-0.54-1.27l0.2,0.31l-0.37-1.2l-1.01,0.19l0.01,0l-0.03,1.21l-0.12,0.29l-0.01,0.64l-0.01,0.5l-0.03,0.2l-0.01,0.06l-0.06,0.26 l-0.16,1.36l-0.02,0.09l-0.02,0.28l-0.05,0.9l1.51,1.38l1.35-1.52l-0.06-1.21L215.59,123.84z M199.24,132.14l-0.58-0.66l-0.84-0.94 l-1.67-1.89l-0.78-0.27l-0.65,0.27l-0.2,1.43l0,0l1.54,2l0.74,0.98l0.39,0.5l0.37,0.44l0.44,0.25l0.52,0.1l0.7-0.3l0.39-0.63 l-0.16-0.99L199.24,132.14z M192.54,132.87l0.01-0.2l-0.06-0.71l-0.01-0.07l-0.03-0.16l-0.03-0.28l-0.07-0.15l-0.04-0.2l-0.12-0.3 l-0.04-0.37l-0.61-0.14l0,0l-0.16,0.33l-0.19,0.17l-0.16,0.26l-0.08,0.05l-0.12,0.19l-0.06,0.14l-0.24,0.39l-0.09,0.3l-0.11,0.29 l0.02-0.02l-0.24,0.43l-0.45,1.33l-0.2,0.61l-0.06,0.99l1.14,1.37l1.63-0.74l0.34-0.86l0.06-0.94l0.03-1.31l-0.06-0.39 L192.54,132.87z M171.39,133.13l-0.34-0.19l1.35,1.31l0.25,0.31l0.03,0.02l0.1,0.12l0.58,0.8l1.61,2.79l0.14,1.29l-0.73,0.8 l-1.29,0.01l-0.72-0.82l0-0.02l-1.32-2.88l-0.49-1.5l-0.26-0.74l-0.14-0.94l-0.01-0.27l0,0l0.7-0.44L171.39,133.13z M173.29,137.72 l0.06,0l0.01,0L173.29,137.72z M170.17,133.9l-0.02-0.39l0,0L170.17,133.9z M166.95,135.44L166.95,135.44l-0.23,0.49l-0.21,0.27 l-0.46,0.9l-0.16,0.37l-0.32,0.45l-0.41,0.85l-0.45,0.84l-0.03,0.06l-0.24,0.41l-0.19,0.36l-0.42,0.85l-0.31,0.75l0.02,1.06 l2.03,0.85l0.17-0.56l0.02,0.49l0.65-0.77l0.2-0.71l0.22-1l0.29-1.9l0.17-0.94l0-0.64l0.06-0.34l0.16-0.95l-0.01-0.3l-0.03-0.11 l0.06-0.58L166.95,135.44z M153.55,141.35l-0.44-0.57l-0.69-0.74l-0.04-0.03l-0.14-0.14l-0.24-0.25l-0.93-0.48l0.49,0.18l-0.37-0.34 l-0.84,0.39l-0.01,0l0.09,0.45l0.17-0.47l-0.15,1.14l0.09,0.34l0.07,0.19l-0.03,0l0.23,0.89l0.24,0.67l0.6,1.3l0.47,0.9l1.23,0.95 l1.63-1.03l-0.59-2.13L153.55,141.35z M148.01,140.93l-0.46-0.18l0.01,0.01l-0.29,0.3l-0.37,0.3l-0.47,0.77l-0.18,0.34l-0.11,0.21 l-0.21,0.17l-0.22,0.35l-0.24,0.38l-0.68,1.59l-0.41,1.07l-0.12,0.91l0.81,1.55l1.64-0.61l0.44-1.05l0.2-0.89l0.34-1.71l0.09-0.62 l-0.01-0.1l-0.02-0.43l0.06-0.21l0.07-0.38l0.17-0.88l-0.08-0.48L148.01,140.93z M132.5,145.72l0.04,0.1l0.12,0.23L132.5,145.72z M132.55,145.83l-0.9-1.8l-0.36-0.47l-0.05,0.02l-0.1-0.16l-0.2-0.31l-0.74-0.48l0.34,0.18l-0.53-0.3l0.23,0.12l-0.17-0.17 l-0.7,0.31l0.01,0l0,0.25l-0.09,0.37l0.09-0.39l-0.16,0.4l0.04,0.65l0.07,0.25l0.03,0.65l0.05,0.28l0.15,0.54l0.36,1.07l1.11,1.61 l1.03,0.08l0.78-0.63l0.18-0.77l-0.11-0.55L132.55,145.83z M125.76,142.67l-0.49,0.96l0.26-0.27l-0.93,1.36l-0.18,0.28l-0.25,0.32 l-0.38,0.71l-0.19,0.35l-0.07,0.11l-0.03,0.11l-0.41,0.72l-0.74,1.69l0.83,1.62l1.72-0.58l0.66-1.65l0.23-0.7l0.05-0.3l0.06-0.09 l0.12-0.38l0.22-0.71l0.03-0.49l0.1-0.24l0.3-1.71l0.01,0.41l0.32-1.03l-1.21-0.49L125.76,142.67z M112.73,141.96l-1.27-2.76 l-1.09-0.34l-0.49,1.03l-0.01,0l0.48,2.45l0.35,1.17l0.17,0.59l0.01,0.07l0.01-0.02l0.02,0.1l-0.02-0.1l0.05-0.15l0.43,1.27 l1.34,0.07l0.71-1.26l-0.16-0.76L112.73,141.96z M103.83,141.14l-0.62,0.91l-0.56,1.34l0.87,1.82l1.94-0.62l0.55-0.95l0.47-1.05 l0.49-0.98l0.28-0.47l0.21-1.27l-0.01,0.67l0.04-0.13l0.04-0.08l0.21-0.4l0.19-0.35l0.02-0.99l0.01,0.36l0.17-0.43l-0.75-0.57 l-0.01-0.01l-0.39,0.24l0.51-0.05l-1.04,0.15l-0.42,0.39l-0.7,0.63l0.57-0.32l-1.18,0.95L103.83,141.14z" style="fill: rgb(254, 254, 253);"/></g></svg>