<svg xmlns="http://www.w3.org/2000/svg" xmlns:xlink="http://www.w3.org/1999/xlink" preserveAspectRatio="xMidYMid meet" version="1.0" viewBox="-2.5 -1.7 288.7 275.5" zoomAndPan="magnify" style="fill: rgb(30, 30, 30);" original_string_length="36829"><g id="__id146_sqigv5k1gm"><path d="M246.9798,9.8286c0,0,12,0,12.5,6.5c4,14,25,199,25,199s-33.5,44.5-65.5,51.5s-213.5-18.5-213.5-18.5 s-8,16,0-72s30-169,30-169C100.9797,5.8286,246.9798,9.8286,246.9798,9.8286z M246.9798,9.8286c0,0,12,0,12.5,6.5 c4,14,25,199,25,199s-33.5,44.5-65.5,51.5s-213.5-18.5-213.5-18.5s-8,16,0-72s30-169,30-169 C100.9797,5.8286,246.9798,9.8286,246.9798,9.8286z" style="fill: rgb(254, 254, 253);"/></g><g id="__id147_sqigv5k1gm"><path d="M190.9798,136.8286c0,0,1,19-2,23s-109,2-114,0s4-15,4-15L190.9798,136.8286z M190.9798,136.8286 c0,0,1,19-2,23s-109,2-114,0s4-15,4-15L190.9798,136.8286z" style="fill: rgb(241, 87, 1);"/></g><g id="__id148_sqigv5k1gm"><path d="M284.4797,226.3286c0,0-13,12-29.5,24.5c-18,4-0.5413-230.6441-0.5413-230.6441 C259.3972,23.0405,284.4797,226.3286,284.4797,226.3286z M284.4797,226.3286c0,0-13,12-29.5,24.5 c-18,4-0.5413-230.6441-0.5413-230.6441C259.3972,23.0405,284.4797,226.3286,284.4797,226.3286z" style="fill: rgb(255, 150, 196);"/></g><g id="__id149_sqigv5k1gm"><path d="M217.7207,86.0841c-7.733-0.2408-15.4637-0.5272-23.1974-0.7023c-0.1019-0.291-0.2413-0.5739-0.4488-0.9273 c-0.1611-0.2743-0.5258-0.183-0.6283,0.0821c-0.1214,0.3139-0.2114,0.5627-0.2744,0.8116c-3.1578-0.0656-6.316-0.114-9.4753-0.1243 c-9.61-0.0312-19.2198,0.1132-28.8236,0.4568c-19.5514,0.6993-39.0888,1.6901-58.6542,1.9418 c-6.538,0.0841-13.0783,0.1265-19.6169,0.1333c-7.5843,0.0079-15.1967,0.1178-22.778-0.0632c-2.8969-0.0692-2.8957,4.4308,0,4.5 c4.7355,0.1131,9.4645,0.2983,14.1975,0.4222c-0.8237,7.0256-1.7198,14.0439-2.6835,21.0539 c-4.1488-0.0666-8.3411-0.0585-12.4426,0.45c0.6641-6.3746,1.1318-12.7797,1.3708-19.1808c0.0627-1.6779-2.3904-1.6041-2.5625,0 c-2.6762,24.9554-5.6519,49.9146-11.4043,74.3834c-1.614,6.8652-3.2821,13.7788-5.3661,20.5186 c-0.223,0.7209,0.2647,1.6747,1.0348,1.8226c2.6564,0.5103,5.2361,1.0198,7.9349,1.2073c2.769,0.1924,5.5396,0.4093,8.3101,0.567 c5.2879,0.301,10.5932,0.4274,15.8877,0.6029c-0.0236,0.1416-0.0522,0.2823-0.0751,0.424 c-0.3087,1.9179-0.9305,3.9197-0.3505,5.8087c0.2814,0.9164,1.6824,1.5206,2.3765,0.6274c0.5022-0.6463,0.8986-1.1696,1.1155-1.9655 c0.2166-0.7946,0.3419-1.6268,0.5115-2.4337c0.1639-0.7797,0.3175-1.5604,0.4684-2.3418c10.3022,0.3088,20.6127,0.42,30.9181,0.5399 c7.8233,0.091,15.6467,0.0906,23.4702,0.0615c0.0054,0.4942,0.0273,0.9872,0.0851,1.4766c0.204,1.7297,2.5891,2.2725,3.1613,0.4279 c0.1943-0.6266,0.3254-1.27,0.4362-1.9182c2.5347-0.0123,5.0695-0.0261,7.6042-0.0413c11.3864-0.0681,22.8044,0.0266,34.1837-0.4036 c6.1982-0.2343,12.3745-0.3707,18.5771-0.395c2.9445-0.0116,5.889-0.0247,8.8336-0.0392c3.0239-0.0148,6.0353,0.1881,9.0549,0.2062 c1.1932,0.0071,1.9376-0.9517,2.0516-2.0516c0.7572-7.302,1.0085-14.6335,1.4053-21.9644 c0.3928-7.2566,0.8159-14.5117,1.2876-21.7636c0.8749-13.4514,1.9042-26.8918,3.3798-40.2919 c0.7355-6.6797,1.5721-13.3488,2.5928-19.9912C219.3399,87.025,218.797,86.1176,217.7207,86.0841z M193.182,88.8548 c0.0395,1.3965,0.006,2.7841,0.0126,4.1805c0.0144,3.0524-0.0521,6.1048-0.1773,9.1545c-0.1649,4.015-0.4295,8.0269-0.746,12.0344 c-9.3591,0.2678-18.7219,0.4179-28.0849,0.483c0.1252-1.4782,0.2515-2.9564,0.3765-4.4346 c0.5833-6.898,1.1429-13.7977,1.6965-20.6982c4.6362-0.1863,9.2733-0.3469,13.912-0.4659 C184.5061,88.9974,188.8438,88.9073,193.182,88.8548z M186.9156,166.9397c-3.2195-0.099-6.4391-0.2012-9.6591-0.303 c-5.8107-0.1838-11.6222-0.3458-17.4336-0.5093c0.3922-4.6317,0.7841-9.2635,1.1776-13.8951 c0.263-3.0961,0.5254-6.1923,0.7886-9.2885c3.1523-0.0935,6.3045-0.1899,9.457-0.2762c6.1011-0.1671,12.2006-0.3651,18.3005-0.5536 c-0.8271,7.7355-1.6753,15.4688-2.4764,23.2079C187.0144,165.8607,186.9703,166.4007,186.9156,166.9397z M69.1492,188.3847 c-4.3584-0.0562-8.7167-0.1146-13.0748-0.1903c0.5339-2.1694,0.8099-4.438,1.2025-6.5913c0.5888-3.2295,1.1514-6.4634,1.7238-9.6958 c0.3278-1.851,0.6454-3.7036,0.9675-5.5554c1.1589,0.0618,2.318,0.1241,3.476,0.188c3.2615,0.1801,6.5249,0.3381,9.7889,0.4872 c-0.6563,3.4355-1.3136,6.8709-1.9705,10.3063C70.5582,181.017,69.8536,184.7009,69.1492,188.3847z M66.9624,162.8787 c-2.1146-0.0925-4.2297-0.1739-6.3448-0.2562c0.6046-3.5331,1.1965-7.0685,1.7641-10.6082 c0.3486-2.1736,0.6802-4.3499,1.0156-6.5256c4.6608,0.0108,9.3234-0.0735,13.9838-0.157 c-1.1373,5.9434-2.2737,11.8869-3.4091,17.8307C71.6355,163.0672,69.2986,162.981,66.9624,162.8787z M44.7776,162.1612 c0.0147-0.001,0.0294-0.0023,0.0441-0.0033c-0.0217,0.0014-0.0281,0.002-0.0441,0.0031c0.6436-2.8484,1.264-5.7033,1.8451-8.5695 c0.5806-2.8636,1.1401-5.7353,1.6782-8.6125c4.0576,0.2981,8.1204,0.4392,12.1855,0.4881 c-0.9529,5.6838-1.9501,11.3594-2.9909,17.0262c-1.1663-0.0474-2.3328-0.0915-3.4989-0.145 c-1.6989-0.0779-3.3959-0.1398-5.0959-0.1863c-0.7239-0.0198-1.4487-0.0562-2.1728-0.0652 c-0.3089-0.0039-0.6146,0.0071-0.9235,0.0204c-0.1668,0.0072-0.3345,0.0101-0.5011,0.0211c-0.09,0.006-0.3801,0.021-0.5266,0.0272 C44.777,162.1641,44.7773,162.1627,44.7776,162.1612z M67.2529,118.1203c4.8928,0.0992,9.7856,0.1988,14.6784,0.2951 c0.2118,0.0042,0.4236,0.0071,0.6354,0.0113c-1.4673,7.5974-2.9438,15.1929-4.3993,22.7925 c-4.7155,0.0724-9.4334,0.1263-14.1487,0.2391C65.1859,133.6917,66.2592,125.9111,67.2529,118.1203z M133.1781,139.8445 c-7.5234,0.1979-15.0468,0.4001-22.5703,0.6012c0.9604-7.1769,1.9099-14.3553,2.8456-21.5355 c7.4477,0.0845,14.8961,0.1367,22.3447,0.1677C134.9943,126.0067,134.1008,132.9276,133.1781,139.8445z M138.5718,119.0878 c7.5405,0.0228,15.0812,0.0213,22.6213-0.0416c-0.6814,6.7357-1.3652,13.4711-2.0427,20.2071 c-4.8934,0.0809-9.7874,0.1791-14.6829,0.2999c-2.6935,0.0665-5.3868,0.1386-8.0803,0.2085 C137.1862,132.878,137.9296,125.9887,138.5718,119.0878z M107.6881,140.5225c-8.0115,0.2123-16.0231,0.4189-24.0352,0.5971 c-0.6535,0.0145-1.3074,0.0245-1.9611,0.037c1.2399-6.8949,2.4782-13.79,3.7198-20.6846c0.1193-0.6624,0.2329-1.3258,0.3513-1.9883 c8.333,0.1567,16.6662,0.2897,25,0.3908C109.7444,126.0914,108.7142,133.3067,107.6881,140.5225z M78.1769,160.7019 c0.9241-5.1452,1.8508-10.2899,2.7758-15.4349c8.7143-0.1494,17.4291-0.3361,26.1411-0.5908 c-0.9332,6.5481-1.8654,13.0963-2.8105,19.6426c-1.2015-0.0441-2.4031-0.0829-3.6045-0.1279 c-7.6572-0.2872-15.3145-0.5745-22.971-0.8771C77.8642,162.4431,78.0206,161.5725,78.1769,160.7019z M108.9296,152.9296 c0.3801-2.7764,0.7458-5.5547,1.1201-8.332c0.1273-0.004,0.2545-0.0061,0.3818-0.0101c7.403-0.2342,14.8057-0.4788,22.2084-0.7227 c-0.9572,7.1138-1.9265,14.2246-2.8405,21.3367c-7.4868-0.2471-14.9733-0.5046-22.4594-0.7741 C107.8706,160.5949,108.4048,156.7629,108.9296,152.9296z M134.7839,153.3218c0.3827-3.1884,0.7654-6.3765,1.1422-9.5651 c7.6146-0.2502,15.2293-0.4943,22.8445-0.7248c-0.7704,7.6653-1.5414,15.3306-2.311,22.996 c-5.586-0.1578-11.1719-0.3159-16.7572-0.4987c-2.1111-0.0691-4.2222-0.1403-6.3334-0.2097 C133.8321,161.3194,134.3039,157.3201,134.7839,153.3218z M189.8692,139.0529c-9.2553-0.0374-18.5084,0.0219-27.7633,0.1586 c0.5724-6.7333,1.1441-13.4665,1.715-20.1999c4.3666-0.0432,8.7331-0.0921,13.0992-0.1724 c4.9997-0.092,9.9989-0.2163,14.9972-0.3698c-0.0945,1.069-0.1874,2.1384-0.288,3.2065 C191.0833,127.4729,190.4827,133.2636,189.8692,139.0529z M164.1819,89.6622c-0.858,8.3517-1.7022,16.705-2.5488,25.0579 c-4.043,0.022-8.086,0.0338-12.1286,0.0309c-3.5102-0.0026-7.0201-0.0275-10.5301-0.0478c0.0359-0.4203,0.0807-0.8397,0.1157-1.2602 c0.5991-7.1943,0.9828-14.4028,1.2138-21.6188c0.0408-1.2743-1.8878-1.2551-1.9688,0c-0.4927,7.637-1.2053,15.2571-2.0417,22.8668 c-7.4193-0.0511-14.8383-0.1321-22.2571-0.2347c0.0822-0.6328,0.1663-1.2653,0.2484-1.8981 c0.8923-6.8768,1.7325-13.7603,2.5714-20.6437c2.1866-0.0904,4.3731-0.1833,6.5593-0.2839 C137.0046,91.0051,150.5893,90.2307,164.1819,89.6622z M68.0019,112.2057c0.7917-6.5068,1.4854-13.0225,2.1519-19.5425 c1.347,0.0288,2.6942,0.0566,4.0424,0.0683c6.0421,0.0522,12.0822,0.0479,18.1235-0.0635 c7.4133-0.1366,14.8242-0.3674,22.2327-0.6604c-1.053,7.4701-2.1075,14.9399-3.1608,22.41 c-8.2807-0.1189-16.5613-0.2521-24.8419-0.3878c0.9765-5.5466,1.9399-11.0955,2.9117-16.6431 c0.3051-1.742-2.336-2.5071-2.6819-0.7394c-1.13,5.7742-2.2339,11.5535-3.3521,17.33c-4.9864-0.0827-9.9727-0.1678-14.9589-0.2543 c-0.2184-0.0038-0.4384-0.008-0.6572-0.012C67.8731,113.2091,67.9408,112.7078,68.0019,112.2057z M64.7298,118.0675 c-1.1099,7.8342-2.3087,15.6562-3.5888,23.4645c-4.1129,0.1247-8.2222,0.3198-12.3246,0.6299 c1.5046-8.304,2.7979-16.6553,3.7558-25.0262C56.5554,117.8018,60.6802,117.9743,64.7298,118.0675z M45.5961,188.1489 c-1.5812,0.0018-3.2649-0.16-4.8279,0.0721c-0.8129,0.1207-1.6304,0.2195-2.4489,0.3126 c1.9953-7.8999,4.0102-15.7834,5.8481-23.7147c0.8652,0.1898,1.8935,0.4724,2.5604,0.5463 c1.5579,0.1727,3.1225,0.3311,4.6851,0.4538c1.7983,0.1412,3.6002,0.251,5.4023,0.3551c-0.1536,0.8208-0.2999,1.6431-0.4553,2.4635 c-0.7012,3.7021-1.4527,7.3944-2.2168,11.084c-0.3655,1.7646-0.7353,3.5282-1.1095,5.291c-0.2208,1.0403-0.4545,2.088-0.6189,3.1426 C50.1421,188.1393,47.8696,188.1463,45.5961,188.1489z M73.1954,188.4376c0.4415-2.4581,0.883-4.9161,1.3245-7.3742 c0.8304-4.6237,1.6609-9.2473,2.4913-13.871c6.3523,0.2713,12.7068,0.5043,19.0589,0.7205 c2.5544,0.0869,5.1091,0.1638,7.6637,0.2469c-0.1066,0.7362-0.2093,1.473-0.3161,2.2092 c-0.8925,6.1516-2.0373,12.3309-2.7396,18.5189c-9.0901-0.1637-18.1804-0.3229-27.2709-0.4476 C73.3365,188.4394,73.266,188.4386,73.1954,188.4376z M103.9538,188.9463c0.8867-5.2269,1.4465-10.5402,2.1779-15.779 c0.2284-1.6358,0.4513-3.2723,0.6786-4.9083c7.5048,0.2403,15.01,0.4677,22.5157,0.6793c-0.1039,0.8287-0.2097,1.6573-0.3115,2.4861 c-0.4998,4.0655-0.9811,8.1332-1.4356,12.204c-0.213,1.9073-0.4186,3.8154-0.6193,5.7241 C119.2909,189.2233,111.6224,189.0855,103.9538,188.9463z M130.8122,189.413c0.1386-1.4504,0.2726-2.9014,0.416-4.3513 c0.3581-3.6201,0.7378-7.238,1.1337-10.8542c0.1885-1.7223,0.39-3.4431,0.5853-5.1646c0.6191,0.0171,1.2381,0.0367,1.8572,0.0536 c7.0977,0.1942,14.1965,0.3601,21.2955,0.5128c-0.0166,0.1655-0.0333,0.3311-0.0499,0.4966 c-0.3755,3.7393-0.7479,7.4789-1.1255,11.218c-0.2824,2.7969-0.6406,5.5998-0.8348,8.4077 c-3.9903-0.0446-7.9806-0.0861-11.9703-0.1414C138.3501,189.5381,134.5812,189.4743,130.8122,189.413z M157.8439,189.7752 c0.704-5.6154,0.9372-11.3354,1.4119-16.9556c0.0884-1.0472,0.1777-2.0944,0.2662-3.1416 c4.4501,0.0924,8.9003,0.1861,13.3505,0.2676c4.5806,0.0839,9.1611,0.1243,13.7417,0.1486 c-0.2728,2.7955-0.5551,5.5901-0.8014,8.388c-0.1976,2.2442-0.3856,4.4893-0.5623,6.7352 c-0.0893,1.1359-0.1771,2.2661-0.1976,3.4056c-0.0106,0.5882,0.0472,1.1425,0.1404,1.6912 c-3.0106-0.0107-6.0206-0.0477-9.0334-0.1508C170.0568,189.9545,163.9506,189.8516,157.8439,189.7752z M192.7018,190.3041 c-1.4197,0.0059-2.8384,0.0117-4.2568,0.0142c0.0922-0.3124,0.1732-0.6293,0.22-0.9623c0.1479-1.0522,0.2383-2.1086,0.3107-3.1681 c0.1376-2.0111,0.2845-4.0216,0.4395-6.0314c0.2584-3.3503,0.55-6.6979,0.8472-10.045c4.5775,0.0153,9.155,0.0184,13.7327,0.0251 c1.0231,0.0015,2.0462,0.0015,3.0693,0.0001c0.2231-0.0003,0.4171-0.0452,0.5834-0.1219 c-0.5099,6.6683-1.038,13.3393-1.1887,20.0222c-1.9307,0.087-3.8593,0.2206-5.7954,0.2303 C198.0098,190.2807,195.3558,190.293,192.7018,190.3041z M211.5452,124.6315c-1.4615,14.1664-2.6301,28.362-3.6841,42.564 c-0.0114,0.1528-0.0233,0.3057-0.0347,0.4585c-0.2001-0.1415-0.4522-0.2321-0.762-0.236 c-5.513-0.0711-11.0235-0.2092-16.5336-0.3698c0.6566-7.1844,1.3611-14.3641,2.0634-21.5443c0.1138-1.1633,0.2269-2.327,0.34-3.4906 c4.7094-0.1417,9.4191-0.2761,14.1301-0.3779c1.5474-0.0334,1.5512-2.3789,0-2.4063c-4.6169-0.0814-9.2323-0.1263-13.8472-0.1566 c0.66-6.8915,1.2677-13.7888,1.6788-20.6974c5.2388-0.1756,10.4763-0.3869,15.7114-0.6511c0.9057-0.0457,1.5-0.5565,1.7958-1.2036 C212.1097,119.2234,211.8242,121.9272,211.5452,124.6315z M212.5655,115.0267c-0.1824-0.8422-0.8292-1.5439-1.9579-1.4901 c-5.1593,0.2464-10.3205,0.446-15.483,0.6078c0.1504-3.2299,0.2541-6.4623,0.2862-9.6984 c0.0347-3.5048-0.0022-7.0109-0.1421-10.5133c-0.0663-1.6612-0.2263-3.3141-0.3386-4.973 c-0.0028-0.0415-0.0066-0.0829-0.0095-0.1244c7.0152-0.0671,14.031-0.0167,21.0394,0.233 C214.5965,97.6904,213.5209,106.3514,212.5655,115.0267z M285.9642,224.6054c-2.3337-7.1605-4.0186-14.5933-5.7133-21.9265 c-1.6605-7.1851-3.3068-14.4011-4.5231-21.6765c-1.2111-7.244-2.3387-14.4614-3.1783-21.7613 c-0.7786-6.7692-1.3496-13.5648-1.9969-20.3474c-0.5771-6.0472-1.0596-12.101-1.4962-18.1598 c-0.4127-5.7275-1.0709-11.4376-1.4108-17.1696c-0.6859-11.5677-1.1251-23.1489-1.7665-34.7194 c-0.8354-15.0697-1.907-30.1588-3.6885-45.1474c-0.0926-0.7793-1.3085-0.816-1.25,0c1.8104,25.2632,3.7742,50.5152,4.8505,75.8258 c0.2468,5.8054,0.2565,11.6152,0.4905,17.4194c0.2405,5.9639,0.6323,11.9225,0.9665,17.8815 c0.3725,6.641,0.8584,13.27,1.4283,19.8969c0.303,3.5236,0.5887,7.0482,0.8816,10.5727c0.3073,3.6974,0.4738,7.4205,0.8447,11.1081 c0.8381,8.3323,2.4805,16.6272,4.6344,24.715c2.0788,7.8056,4.705,15.4914,6.6461,23.3323 c-0.2387,0.212-0.4776,0.4239-0.7141,0.6382c-0.4691-1.6602-1.9213-2.8826-3.5219-3.5251c-2.5062-1.006-5.2229-1.3986-7.7601-2.345 c-2.6812-1.0001-5.2524-2.1788-7.6862-3.6928c-1.1974-0.7448-2.3635-1.5482-3.4656-2.4288 c-0.5422-0.4333-1.0989-1.0395-1.7812-1.2383c-0.6904-0.2012-1.4297-0.3334-2.137-0.5121 c-0.0521-0.0132-0.1041-0.0168-0.1558-0.0173c-0.0781-3.1365-0.1555-6.2731-0.2329-9.4092 c-0.3772-15.2705-0.3134-30.5443-0.6088-45.814c-0.0189-0.9747-0.0313-1.9507-0.0415-2.9274 c0.815-11.0533,1.0258-22.1556,1.3418-33.2281c0.4246-14.8787,0.7188-29.7622,1.0732-44.6428 c0.198-8.3123,0.3172-16.6268,0.4682-24.9401c0.1525-8.3941,0.3189-16.796,0.0748-25.1895 c-0.0133-0.4565-0.3102-0.6954-0.6428-0.7467c0.033-1.2133,0.0776-2.4262,0.1067-3.6396c0.0479-1.9977,0.0719-3.9872,0.0372-5.9852 c-0.0145-0.8396-0.6461-1.2455-1.2789-1.2328c0.0501-0.3813-0.1193-0.7639-0.6055-0.8412c-1.9016-0.3025-3.7685-0.8-5.6851-0.9772 c-1.9612-0.1814-3.9225-0.3542-5.8859-0.5114c-3.6946-0.2955-7.3992-0.4749-11.0995-0.685 c-4.7637-0.2704-9.5287-0.5026-14.2945-0.7213c0.0411-0.0599,0.2775-0.3742,0.2872-0.3958 c0.1399-0.1696,0.2841-0.3359,0.4357-0.4951c0.1668-0.175,0.3408-0.3439,0.5212-0.5049c0.0677-0.0604,0.1367-0.1191,0.2061-0.1775 c0.0188-0.0158,0.0272-0.0233,0.0381-0.0328c0.003-0.0021,0.0034-0.0023,0.0067-0.0046c0.3193-0.2285,0.9017-0.5516,1.093-0.6337 c0.1281-0.055,0.7515-0.2538,1.0701-0.3284c0.2056-0.0482,0.4125-0.0879,0.621-0.1215c0.3632-0.0587,0.1426-0.0175,0.0628-0.0092 c0.1482-0.0155,0.2966-0.0275,0.4455-0.0352c0.2626-0.0135,0.526-0.0147,0.7886-0.0003c0.0857,0.0047,0.1711,0.0117,0.2566,0.0193 c0.0305,0.0027,0.0434,0.0031,0.0502,0.0027c0.0197,0.0043,0.0463,0.0098,0.0835,0.0172c0.2146,0.0427,0.4276,0.0917,0.6365,0.1572 c0.0793,0.0248,0.1592,0.0533,0.2379,0.0828c0.0413,0.0195,0.1199,0.0563,0.1642,0.0829c0.6335,0.3804,0.9882,0.6652,1.1904,1.477 c0.3645,1.463,2.5386,1.1101,2.5781-0.3489c0.1539-5.6774-7.7418-5.8754-11.2134-3.5007c-1.6768,1.147-2.9692,2.7456-3.8538,4.5577 c-0.5022-0.0219-1.0043-0.0458-1.5066-0.0673c0.0253-0.1402,0.0262-0.2887-0.0257-0.4489c-0.6918-2.1327-1.7364-4.344-3.501-5.7909 c-1.9474-1.5968-4.4972-1.946-6.5024-0.2234c-1.015,0.872-1.652,2.1543-2.2868,3.3093c-0.4658,0.8474-0.9031,1.7202-1.2754,2.6172 c-2.9368-0.1057-5.8738-0.2064-8.811-0.2984c0.0358-0.1221,0.0746-0.243,0.1183-0.3612c0.0149-0.0208,0.1415-0.3119,0.1421-0.313 c0.0839-0.1626,0.1755-0.3215,0.2733-0.4762c0.1976-0.3124,0.2454-0.3809,0.5761-0.7152c0.1258-0.1271,0.2558-0.2504,0.3938-0.3643 c0.014-0.0117,0.0117-0.0099,0.0214-0.018c0.0895-0.0638,0.1806-0.1254,0.2739-0.1835c0.3061-0.1905,0.5472-0.3047,0.6815-0.348 c0.1332-0.0428,0.2678-0.0759,0.4036-0.1071c0.0342-0.0003,0.2692-0.0366,0.3165-0.0375c0.0054-0.0001,0.0088,0.0001,0.0142,0 c0.1025,0.6659,0.205,1.3318,0.3102,1.9972c0.091,0.5752,0.7776,0.9296,1.3029,0.8506c0.6107-0.0919,0.9819-0.5615,1.0297-1.1663 c0.0797-1.0089,0.1641-2.0175,0.2306-3.0275c0.0333-0.5062-0.3101-1.098-0.7612-1.3271c-3.2573-1.6545-6.5625,0.4382-8.1381,3.3642 c0.0075-0.1584-0.0065-0.3272-0.0615-0.5115c-1.5759-5.284-8.3736-7.7103-12.9718-4.6615 c-2.3023,1.5265-3.8737,4.0653-4.2887,6.7915c-0.0052,0.0343-0.0052,0.068-0.0101,0.1023c-0.397-0.0078-0.7939-0.0187-1.191-0.0262 c-13.6091-0.2554-27.2212-0.4118-40.8326-0.3068c-2.8662,0.0221-5.7319,0.0607-8.5976,0.1018 c-0.0573-0.1855-0.1591-0.363-0.3282-0.5163c-3.7521-3.3977-9.8981-4.0135-14.0883-1.0139 c-0.7389,0.5289-1.3849,1.1474-1.9419,1.8268c-0.0745,0.0016-0.1489,0.0031-0.2234,0.0047c0.2113-1.902-0.8132-3.6954-2.4326-4.895 c-2.1682-1.6063-4.9382-1.786-7.2604-0.3951c-0.4129,0.2473-0.7872,0.5407-1.1439,0.8528c-0.3657-0.974-1.0897-1.8625-2.0207-2.4059 c-2.9186-1.7034-6.0643,0.5781-7.9238,2.7799c-1.215,1.4387-2.4109,2.9738-3.4957,4.5875 c-5.1676,0.1201-10.3349,0.2508-15.5018,0.4003c0.7864-2.4453,2.6567-4.421,5.4935-4.7026 c2.2427-0.2226,4.4847,0.5464,5.8459,2.4056c0.8011,1.0942,2.3556,0.1791,1.8079-1.0568 c-2.3405-5.2811-9.9747-5.4447-13.8434-1.9443c-1.5706,1.4211-2.6299,3.3573-3.1641,5.4159 c-3.1598,0.1012-6.3196,0.2065-9.4801,0.2693c-4.4041,0.0874-8.9185,0.4871-13.2976-0.0087 c-1.4495-0.1641-2.52,1.4361-2.3479,2.7084c0.0955,0.7058,0.4548,1.2404,0.9508,1.5877 c-1.7819,15.0829-3.7429,30.1476-5.8592,45.1871c-2.2097,15.7031-4.6304,31.3373-7.6556,46.9042 c-2.9838,15.3537-6.3839,30.624-9.2067,46.0084c-2.8656,15.6176-5.324,31.3116-7.3847,47.0551 c-2.0168,15.4078-3.644,30.9176-3.7191,46.4741c-0.0143,2.9556,0.9395,6.3366,3.3719,8.2216c1.1609,0.8997,2.446,1.113,3.865,1.2901 c1.8475,0.2306,3.6442,0.5007,5.4711,0.8694c7.5498,1.5238,15.1197,2.812,22.7645,3.7711 c15.3838,1.93,30.7935,3.1511,46.2831,3.8134c15.3734,0.6574,30.7745,0.9104,46.1589,1.1839 c31.5384,0.5606,63.1084,0.7803,94.6164,2.3745c4.0081,0.2028,7.979,0.3761,11.9927,0.3537c1.51-0.0084,2.1365-1.1716,1.9683-2.2682 c7.1674-2.9809,13.6497-7.7483,19.7326-12.4771c6.763-5.2575,13.1853-10.9128,19.3345-16.8719 c3.2305-3.1306,6.7232-5.9706,9.8759-9.181C285.9321,226.1015,286.1904,225.2993,285.9642,224.6054z M202.1668,8.5358 c0.454-0.9466,0.9169-2.3549,1.7789-2.9949c0.0158-0.0117,0.3446-0.1958,0.4588-0.2407c-0.276,0.1084,0.2335,0.0184,0.2195-0.0072 c0.2441-0.0016,0.504,0.0317,0.7147,0.1189c0.9229,0.3816,1.6435,1.1484,2.3193,1.8552c0.6442,0.6738,1.1496,1.4078,1.5853,2.2156 c-2.4591-0.1024-4.9183-0.1955-7.3776-0.2891C201.964,8.9731,202.0627,8.7528,202.1668,8.5358z M178.8584,3.356 c1.8903,0.3572,3.8248,1.4927,4.5422,3.3895c0.4183,1.106,1.7133,1.1866,2.3777,0.5974c-0.1715,0.4234-0.2969,0.8584-0.3907,1.2957 c-4.3343-0.127-8.6693-0.2366-13.0049-0.3306C172.972,5.2758,175.6485,2.7495,178.8584,3.356z M109.0931,8.1417 c0.2241-0.0517,0.4498-0.0927,0.6763-0.1324c0.3513-0.0616,0.1286-0.0165,0.0518-0.0081c0.1733-0.0188,0.347-0.0319,0.5204-0.0493 c0.9315-0.0929,1.8301-0.0499,2.6979,0.1293c-1.3294,0.0229-2.6589,0.0466-3.9882,0.0719 C109.0655,8.1498,109.079,8.145,109.0931,8.1417z M92.974,6.5412c0.967-1.2023,2.4404-1.9282,4.0098-1.4506 c1.447,0.4403,2.692,1.7553,2.5001,3.2554c-2.5414,0.0545-5.0829,0.1067-7.6244,0.1612C92.1154,7.8562,92.5244,7.1002,92.974,6.5412 z M86.0635,4.2548c0.7109-0.272,1.3214-0.2194,1.8804,0.306c0.4274,0.4017,0.9675,1.0856,0.4767,1.6006 c-0.3438,0.3608-0.3256,0.8489-0.1253,1.2325c-0.1692,0.3924-0.3226,0.791-0.4492,1.1979 c-0.8713,0.0181-1.7424,0.0378-2.6138,0.0553c-1.1241,0.0226-2.248,0.0518-3.3721,0.0759 C82.9486,7.1229,84.2198,4.9603,86.0635,4.2548z M210.5955,261.912c-7.9027-0.2789-15.8064-0.5132-23.7119-0.6967 c-15.4594-0.3589-30.9216-0.5632-46.3828-0.8234c-15.4344-0.2598-30.8694-0.6296-46.2863-1.4258 c-15.1528-0.7825-30.2754-1.8761-45.4075-2.9634c-7.625-0.5479-15.2438-1.1927-22.8503-1.956 c-3.8021-0.3815-7.6083-0.6724-11.412-1.0339c-1.6552-0.1573-3.321-0.4038-4.9838-0.4354c-1.6635-0.0315-3.5177,0.1935-4.654-1.3083 c-0.7401-0.9783-0.6893-2.3746-0.6071-3.5369c0.115-1.6266,0.2327-3.2527,0.3697-4.8782c0.3296-3.9088,0.7799-7.8065,1.1467-11.7116 c0.7314-7.7881,1.5153-15.5746,2.3512-23.3522c1.6476-15.3296,3.7455-30.609,5.9959-45.8607 c2.2941-15.5471,4.5258-31.0995,6.821-46.6461c2.2684-15.365,4.9514-30.6346,7.5912-45.938 c2.6542-15.3862,4.8988-30.8069,6.5543-46.3339c0.3091-2.8998,0.5379-5.8084,0.7567-8.7172 c3.7988-0.7141,7.8016-0.6248,11.6603-0.8036c3.3583-0.1557,6.7184-0.2558,10.0787-0.3542 c0.1714,2.8838,1.3323,5.5691,3.1323,7.8377c1.1125,1.4022,2.4728,2.5802,3.9504,3.5853c1.506,1.0244,3.772,2.5526,5.6484,1.9567 c1.1008-0.3495,1.8064-1.6992,1.1205-2.7543c-0.8087-1.2442-2.1844-1.556-3.4271-2.2161c-1.0424-0.5536-2.0378-1.1976-2.9182-1.986 c-1.734-1.553-3.0374-3.4905-3.5116-5.7907c-0.0502-0.2434-0.0885-0.4893-0.1181-0.7361c4.5361-0.1282,9.0726-0.2397,13.6094-0.3455 c-1.6578,3.3835-2.5889,7.0375-2.0311,10.8742c0.1064,0.7318,0.8369,1.263,1.4781,1.4781c2.7329,0.9167,5.6672,1.3922,8.5441,1.5278 c2.9111,0.1373,5.9858,0.007,8.6474-1.2574c1.8732-0.8898,0.7898-3.5414-0.9858-3.6396c-2.5511-0.1411-5.0991,0.3315-7.6616,0.2783 c-2.0915-0.0435-4.1163-0.3162-6.1469-0.7248c-0.3331-3.0253,0.8336-5.9654,2.3905-8.6441c0.2791-0.006,0.558-0.0153,0.8371-0.0212 c2.3463-0.05,4.6929-0.0814,7.0394-0.1163c-0.0757,2.2848,0.3635,4.6283,1.6074,6.507c1.0233,1.5457,2.499,2.7442,4.3056,3.2372 c1.7102,0.4667,4.8305,0.2612,5.1752-2.0092c0.106-0.6977-0.0771-1.3199-0.6965-1.7116c-0.4977-0.3148-1.1553-0.4424-1.7333-0.4722 c-0.2241-0.0115-0.4481,0.0004-0.6728-0.0116c-0.001-0.0001-0.0007,0-0.0017-0.0001c-0.1387-0.0198-0.2783-0.0406-0.4154-0.0682 c-0.2618-0.0526-0.5211-0.1238-0.7714-0.2172c-0.1044-0.05-0.2078-0.1051-0.3101-0.1593c-0.569-0.3016-0.6362-0.3369-1.0376-0.7581 c-1.0327-1.0834-1.4128-2.7648-1.455-4.3981c2.9225-0.0339,5.845-0.0565,8.7677-0.0728c-0.0717,0.4027-0.1235,0.8124-0.137,1.2341 c-0.0884,2.7537,1.0568,5.4817,2.8886,7.507c1.0669,1.1796,2.5142,2.062,4.0189,2.5554c1.7662,0.5792,4.016,0.6343,5.4367-0.708 c1.2411-1.1727,0.6432-3.4311-1.0135-3.839c-0.3668-0.0903-0.744-0.1581-1.1226-0.1584c-0.2241-0.0002-1.1909,0.0318-0.6965,0.0696 c-0.025-0.001-0.0483-0.0016-0.0651-0.0013c-0.2242,0.0037-0.443,0.0033-0.6671-0.0052c-0.0067-0.0005-0.0134-0.0009-0.0201-0.0014 c-0.019-0.0034-0.0306-0.0056-0.0551-0.0098c-0.0811-0.0161-0.1616-0.0345-0.2416-0.0552 c-0.2039-0.0508-0.4024-0.1357-0.6052-0.1865c-0.0914-0.0456-0.1856-0.0883-0.274-0.1356c-0.1982-0.106-0.3913-0.2219-0.5786-0.3461 c-0.0706-0.0468-0.1391-0.0964-0.2083-0.145c-0.0173-0.0149-0.0257-0.0209-0.0474-0.0403c-0.3675-0.3277-0.729-0.6566-1.0541-1.0275 c-0.0586-0.0668-0.1147-0.1356-0.1716-0.2038c-0.0018-0.0026-0.0024-0.0035-0.0043-0.0063 c-0.1649-0.2432-0.3293-0.4846-0.4763-0.7394c-0.117-0.2029-0.2191-0.4122-0.3257-0.6204c-0.0087-0.017-0.013-0.0253-0.0202-0.0393 c-0.03-0.0776-0.0605-0.1552-0.0884-0.2337c-0.0777-0.2192-0.1465-0.4418-0.2053-0.6668c-0.0323-0.1239-0.1077-0.5842-0.1254-0.6175 c-0.0295-0.4019-0.0286-0.799-0.0041-1.2032c0.0006-0.0099,0.0003-0.0123,0.0008-0.0213c0.0036-0.0083,0.0052-0.0086,0.0095-0.02 c0.0394-0.1048,0.0467-0.2283,0.0739-0.338c0.0012-0.0046,0.0031-0.0089,0.0043-0.0134c5.9205-0.019,11.8412-0.0164,17.7619,0.0006 c15.7547,0.045,31.5067,0.2073,47.2571,0.4745c0.4187,1.2781,1.0911,2.4797,2.0203,3.5558 c2.1611,2.5029,5.5472,3.8972,8.8344,3.7829c1.0461-0.0363,1.9375-0.8644,1.9375-1.9375c0-1.0169-0.887-1.9798-1.9375-1.9375 c-2.5964,0.1046-5.3619-1.2181-6.8074-3.3895c4.1948,0.0767,8.3896,0.1511,12.5842,0.2451 c0.4354,1.0507,1.0582,2.0325,1.7607,2.9038c0.7169,0.8891,1.5775,1.6484,2.4958,2.3235c1.0255,0.7541,2.1629,1.4915,3.4413,1.642 c0.7464,0.0879,1.5281-0.562,1.7849-1.2006c0.2906-0.7224,0.1632-1.5685-0.4038-2.1335c-0.6756-0.6731-1.6656-1.0265-2.4551-1.5583 c-0.1677-0.1129-0.3334-0.2291-0.4977-0.3467c0.0011,0.0008-0.224-0.1702-0.289-0.2166c-0.2951-0.2381-0.5809-0.489-0.8512-0.7546 c-0.2138-0.2101-0.3771-0.3815-0.525-0.5464c2.1534,0.0515,4.3068,0.1068,6.4602,0.163c-0.0502,1.6937,0.3397,3.3776,1.3754,4.7692 c0.9229,1.2401,2.1193,2.2422,3.6123,2.7141c1.4769,0.4667,3.4224,0.3316,4.5122-0.8943c1.1352-1.277,0.383-3.3917-1.4142-3.4142 c-0.178-0.0022-1.392,0.0584-0.7094,0.0547c-0.2384,0.0013-0.4815-0.0068-0.7197,0.0046c-0.0264-0.0019-0.0371-0.0023-0.0577-0.0036 c-0.0782-0.017-0.1567-0.0328-0.2338-0.0549c-0.0889-0.0255-0.1758-0.0569-0.2626-0.0883 c-0.0198-0.0092-0.0311-0.0145-0.0567-0.0262c-0.1769-0.1032-0.3509-0.2049-0.5232-0.3131 c-0.0168-0.0295-0.3658-0.3035-0.4205-0.3587c-0.0526-0.0531-0.3385-0.4218-0.355-0.4224c-0.1217-0.185-0.2415-0.3704-0.3423-0.5684 c-0.0596-0.1168-0.1149-0.2355-0.1658-0.3563c0.0798,0.2145,0.0757,0.2045-0.0123-0.0303c-0.038-0.1201-0.1677-0.5182-0.1684-0.5225 c-0.0219-0.1243-0.0322-0.2557-0.0388-0.3879c1.1985,0.033,2.3972,0.0562,3.5957,0.0907c2.4155,0.0695,4.8306,0.15,7.2458,0.2274 c-0.2028,1.5009-0.1616,3.031,0.1472,4.4943c0.5669,2.6868,2.2986,5.1042,4.7826,6.3245c1.1053,0.543,2.4679,0.2985,3.1212-0.8184 c0.5676-0.9705,0.3141-2.6204-0.8184-3.1212c-0.408-0.1804-0.7863-0.3944-1.1601-0.6368c-0.0427-0.0277-0.0696-0.0439-0.0945-0.0589 c-0.0123-0.0146-0.0281-0.0323-0.0571-0.0613c-0.1592-0.1591-0.3297-0.3051-0.4832-0.4705 c-0.1163-0.1254-0.4518-0.598-0.1843-0.2007c-0.1097-0.1629-0.2239-0.3222-0.3272-0.4894c-0.1035-0.1674-0.201-0.3384-0.2913-0.5132 c-0.0519-0.1005-0.0982-0.203-0.1487-0.304c-0.003-0.006-0.0037-0.0072-0.0065-0.0127c-0.0026-0.0088-0.0027-0.0114-0.007-0.0244 c-0.1354-0.4137-0.2749-0.8195-0.3688-1.2457c-0.0399-0.1812-0.0717-0.3638-0.1019-0.5468 c-0.0124-0.1303-0.0258-0.2603-0.0346-0.391c-0.0305-0.4499-0.0346-0.9024-0.0087-1.3527c0.0047-0.0825,0.03-0.3412,0.0386-0.4456 c4.3276,0.1422,8.6552,0.2863,12.983,0.4195c4.0845,0.1257,8.1691,0.3007,12.2543,0.3991c2.1187,0.051,4.2388,0.0687,6.3581,0.0821 c2.1293,0.0135,4.2108-0.2304,6.3302-0.3639c-0.0381,0.1146-0.0834,0.2238-0.0913,0.3611 c-0.4647,8.0314-0.5345,16.0926-0.882,24.1315c-0.354,8.1898-0.7869,16.376-1.2827,24.5583 c-1.0035,16.5577-2.4182,33.0792-3.9022,49.5999c-1.4865,16.5475-3.1695,33.0825-4.8151,49.6149 c-1.6169,16.245-3.238,32.4896-4.8471,48.7354c-1.5271,15.4177-3.0706,30.8341-4.238,46.2841 c-0.1006,1.3315-0.1722,2.657-0.225,3.9857c-0.4644,0.3364-0.736,0.8048-0.8408,1.3119 C225.1895,262.2878,217.8797,262.169,210.5955,261.912z M94.0186,17.6963c-0.0015-0.0005-0.0031-0.0007-0.0046-0.0013 C93.7695,17.6035,93.9701,17.6739,94.0186,17.6963z M106.6549,18.0918C106.7811,18.184,106.7876,18.2047,106.6549,18.0918 L106.6549,18.0918z M237.0041,259.3976c0.79-6.0936,1.2775-12.2426,1.9084-18.3461c0.807-7.8074,1.5684-15.6193,2.3549-23.4288 c1.6282-16.1688,3.3188-32.3318,4.8687-48.5084c1.5884-16.5787,3.1131-33.1594,4.3763-49.7664 c0.6251-8.2184,1.2112-16.4381,1.7658-24.66c-0.1858,6.7579-0.3657,13.516-0.5593,20.2732 c-0.1367,4.7692-0.2543,9.5366-0.3864,14.3027c-0.3073,0.174-0.5549,0.4785-0.606,0.9443 c-0.8307,7.5739-0.7984,15.2952-0.9764,22.9083c-0.0752,3.2159-0.0997,6.4323-0.1042,9.6487 c-1.1815,13.3134-3.2184,26.5244-4.664,39.8115c-1.7527,16.1096-2.759,32.4175-0.1675,48.4949 c0.3064,1.901,3.1978,1.0942,2.8928-0.7975c-3.5236-21.8604-0.8222-43.7791,2.1428-65.5723 c0.2111,12.3806,0.5914,24.7576,1.1519,37.1277c0.3913,8.6357,1.0405,17.2501,1.6799,25.8696 c0.0268,0.361,0.1635,0.647,0.3591,0.8643c-2.7761,2.0798-5.5861,4.1143-8.4657,6.0529 C242.0976,256.284,239.5497,257.8391,237.0041,259.3976z M273.9764,231.6052c-3.0501,2.7591-6.3149,5.3245-9.4891,7.9407 c-2.9684,2.4465-5.9737,4.8484-9.0239,7.191c-0.3669-10.8559-0.6585-21.7174-0.9312-32.5784 c0.2552,0.4923,0.5779,0.9446,1.038,1.3267c1.0643,0.8838,2.2027,1.6979,3.3582,2.4575c2.3036,1.5142,4.7604,2.7596,7.3137,3.7946 c2.4639,0.9987,5.0754,1.6904,7.7085,2.0633c1.7332,0.2454,4.9794,0.3721,5.3429,2.5114c0.0155,0.0912,0.0553,0.16,0.0918,0.2318 C277.5828,228.2304,275.8088,229.9476,273.9764,231.6052z M207.0645,220.4232c-12.2324-0.674-24.5125-0.646-36.7586-0.9764 c-13.688-0.3693-27.3817-0.6111-41.0715-0.9122c-13.3565-0.2937-26.7122-0.6205-40.0679-0.9479 c-11.0721-0.2714-22.1475-0.7022-33.2228-0.8018c-4.1309-0.0371-8.27-0.1368-12.3995-0.0095 c-2.9001,0.0894-5.7828,0.3422-8.6786,0.3904c-0.5028,0.0084-1.0056,0.019-1.5082,0.0331c-1.1431,0.032-1.1501,1.7928,0,1.7813 c2.571-0.0259,5.0809,0.1873,7.6414,0.3415c3.8439,0.2316,7.6849,0.3616,11.5335,0.49c10.6661,0.3557,21.3364,0.5401,32.0044,0.8292 c13.1776,0.3571,26.3551,0.7184,39.5334,1.0508c13.7406,0.3467,27.4816,0.6102,41.2254,0.7946 c12.5242,0.168,25.076,0.1996,37.5972-0.1462c1.3918-0.0385,2.7822-0.1434,4.1718-0.2293 C208.1474,222.0438,208.1531,220.4832,207.0645,220.4232z M55.812,72.208c0.615-2.0994,1.2074-4.1983,1.7534-6.3168 c0.2209-0.8569,0.449-1.7133,0.6631-2.5723c0.0609,0.2734,0.1177,0.5477,0.1822,0.8201c0.3813,1.6104,0.8122,3.2111,1.1656,4.8278 c0.2089,0.9559,1.5259,1.2638,2.1796,0.5754c0.6673-0.7026,1.1682-1.5596,1.7429-2.3383c0.5576-0.7552,1.1446-1.4873,1.735-2.217 c0.5798-0.7166,1.1816-1.4144,1.7996-2.0976c-0.0577,2.8928-0.3552,5.7921-0.9057,8.6186c-0.2114,1.0856,0.375,2.1443,1.5328,2.301 c1.1067,0.1497,2.062-0.6951,2.0888-1.8109c0.0976-4.0564-0.0093-8.0796-0.3-12.1261c-0.0764-1.0647-1.2735-1.5967-2.0834-0.863 c-1.4467,1.3107-2.8226,2.6972-4.1112,4.1639c-0.6434,0.7324-1.2443,1.5013-1.8352,2.2764 c-0.0454,0.0596-0.0935,0.1204-0.1398,0.1802c-0.2078-0.7034-0.4135-1.4075-0.6293-2.108 c-0.2309-0.7496-0.4814-1.4936-0.7239-2.2396c-0.259-0.7969-0.4406-1.7105-0.8973-2.4182 c-0.4898-0.7587-1.4794-0.3818-1.5823,0.4286c-0.1296,1.0214-0.609,2.0654-0.8737,3.0611c-0.2806,1.0557-0.5236,2.123-0.7852,3.1836 c-0.5141,2.0837-0.9766,4.1727-1.4224,6.272C54.1662,72.7485,55.5387,73.1412,55.812,72.208z M78.3691,61.7347 c-0.0002-0.0006-0.0001-0.0014-0.0002-0.002C78.3562,61.7031,78.3555,61.7017,78.3691,61.7347z M78.586,62.1708 c-0.0063-0.0091-0.0139-0.0169-0.0201-0.0261C78.5988,62.1985,78.6019,62.2011,78.586,62.1708z M78.4271,61.8745 c0.0173,0.0416,0.0345,0.0832,0.0518,0.1248c0.0033,0.0056,0.0042,0.0069,0.0073,0.0121c-0.019-0.0453-0.0362-0.0863-0.0509-0.1212 C78.4322,61.8845,78.43,61.88,78.4271,61.8745z M78.5131,62.0756c0.0151,0.0258,0.0365,0.0446,0.0529,0.069 c-0.0172-0.0281-0.0433-0.0719-0.0798-0.1332C78.4962,62.0354,78.5018,62.0487,78.5131,62.0756z M74.9837,73.7742 c1.9391,1.0453,4.2995,0.8668,6.2429-0.0611c2.2877-1.0922,3.5706-3.3525,3.8453-5.8097c0.2707-2.4211-0.5209-5.4514-2.3726-7.1351 c-0.5223-0.475-1.1932-0.8361-1.888-0.9757c-0.4016-0.0807-0.878-0.1246-1.2804-0.0139c-0.662,0.1823-1.2401,0.8295-1.2233,1.5369 c0.0033,0.1376,0.0253,0.2831,0.0613,0.4169c0.0112,0.0264,0.0344,0.0813,0.0664,0.1576c0.0533,0.1013,0.1247,0.2306,0.1508,0.2805 c0.2588,0.368,0.6529,0.585,1.0807,0.6923c0.0387,0.0097,0.0632,0.0137,0.0833,0.0162c0.0154,0.0142,0.0304,0.0282,0.0587,0.0504 c0.0384,0.0302,0.0614,0.0469,0.082,0.0616c0.0164,0.019,0.0305,0.0356,0.0589,0.0665c0.1568,0.1707,0.3248,0.3291,0.4781,0.5026 c0.0366,0.0593,0.1534,0.2234,0.1676,0.2462c0.0569,0.0912,0.1123,0.1835,0.1656,0.2769c0.1339,0.2344,0.2537,0.4763,0.3697,0.72 c0.0114,0.0239,0.1071,0.249,0.1264,0.2867c0.0427,0.1125,0.0856,0.2249,0.1235,0.3391c0.085,0.2563,0.1577,0.5168,0.2172,0.7803 c0.0284,0.1256,0.051,0.2521,0.0737,0.3787c0.0089,0.0577,0.0241,0.1568,0.0278,0.1979c0.024,0.2659,0.0344,0.5325,0.03,0.7996 c-0.0023,0.1324-0.0076,0.2646-0.0173,0.3968c-0.0052,0.0728-0.0133,0.1453-0.0209,0.2177 c-0.0024,0.0116-0.0029,0.0104-0.0088,0.0462c-0.0505,0.2584-0.1082,0.5142-0.1817,0.7672c-0.0366,0.126-0.0802,0.249-0.1212,0.3735 c-0.0159,0.0482-0.0248,0.0784-0.0317,0.1034c-0.0136,0.0226-0.03,0.0511-0.0547,0.097c-0.1224,0.2275-0.2532,0.4459-0.3861,0.6672 c-0.0066,0.011-0.0198,0.0292-0.0332,0.0471c-0.1036,0.1245-0.2117,0.2452-0.3271,0.3588c-0.0632,0.0623-0.1284,0.123-0.1948,0.1819 c-0.0147,0.013-0.1406,0.1078-0.1844,0.1434c-0.1641,0.1129-0.3297,0.2213-0.5066,0.314c-0.3792,0.1987-0.5852,0.2745-1.1735,0.3951 c-0.0596,0.0122-0.1215,0.0226-0.1827,0.033c-0.0242-0.0057-0.3354,0.014-0.3743,0.0143c-0.0878,0.0007-0.1758-0.0008-0.2635-0.0046 c-0.0432-0.0018-0.323-0.0404-0.3627-0.0402c-0.2066-0.0432-0.4087-0.0944-0.6115-0.1555 c-0.0289-0.0087-0.1005-0.0383-0.1445-0.0562c-0.1171-0.0562-0.2328-0.1154-0.3441-0.1825 c-0.0711-0.0428-0.1398-0.0895-0.2081-0.1367c-0.0189-0.0199-0.1604-0.1342-0.1869-0.1592 c-0.2238-0.2122-0.2986-0.2983-0.4485-0.5369c-0.312-0.4966-0.4594-0.9412-0.5778-1.5717c-0.1953-1.04,0.0434-2.3063,0.4955-3.4055 c0.5588-1.3589,1.4317-2.5875,2.2588-3.7921c0.3393-0.4941,0.0925-1.231-0.398-1.5178c-0.5723-0.3348-1.1512-0.0784-1.5178,0.3979 c-1.6321,2.1211-3.2103,4.3408-3.5037,7.0776C71.8631,70.0315,72.7998,72.5971,74.9837,73.7742z M78.3691,61.7347 c0.0024,0.0092,0.0016,0.0195,0.0042,0.0284c0.0045,0.0151,0.0268,0.0595,0.0538,0.1113c-0.0023-0.0056-0.0047-0.0112-0.007-0.0168 C78.3951,61.7974,78.3793,61.7595,78.3691,61.7347z M89.6742,74.0272c0.8849,0.1461,1.7444-0.4536,2.0006-1.3033 c0.1769-0.5868,0.0879-1.2474,0.1002-1.8503c0.0139-0.6857,0.0287-1.3715,0.0431-2.0572c0.0384-1.8342,0.0769-3.6685,0.1153-5.5027 c0.7975,1.5712,1.6122,3.1337,2.4269,4.6964c0.9042,1.7344,2.0367,4.2542,4.4205,3.932c1.1774-0.1592,1.953-0.9827,2.5892-1.9198 c0.613-0.9029,1.1545-1.8634,1.6581-2.8306c0.5398-1.0367,1.0179-2.103,1.4584-3.1853c0.4608-1.1328,0.9557-2.3325,0.973-3.5685 c0.0195-1.4101-1.9164-1.8934-2.6205-0.7097c-0.5163,0.8679-0.7666,1.8829-1.101,2.8324c-0.3005,0.8535-0.6352,1.6929-1.0142,2.5146 c-0.4033,0.8744-0.8444,1.7313-1.3222,2.5674c-0.3185,0.5575-0.739,1.3932-1.1774,1.6507c-0.0204,0.012-0.1037,0.0493-0.2458-0.0439 c-0.2686-0.1763-0.4729-0.5206-0.6376-0.784c-0.5275-0.8436-0.9859-1.7372-1.4726-2.6049c-1.0519-1.8754-2.0907-3.7564-3.2-5.5985 c-0.3374-0.5602-0.9067-0.5984-1.329-0.3553c-0.1632-0.0864-0.3388-0.1478-0.5277-0.1478c-0.6816,0-1.1143,0.5389-1.1719,1.1719 c-0.1801,1.981-0.3602,3.962-0.5403,5.9429c-0.09,0.9905-0.1801,1.981-0.2701,2.9714c-0.0415,0.457-0.076,0.9152-0.1251,1.3715 c0.0027-0.0257-0.0371,0.2034-0.0575,0.3448c-0.202,0.2369-0.3303,0.5419-0.3393,0.8771 C88.2852,73.2525,88.8994,73.8994,89.6742,74.0272z M107.4675,61.9869c0.4168,0.2478,0.7808,0.5876,1.3498,0.6381 c0.0971,0.0086,0.1954,0.0085,0.293,0.0135c-0.0419,0.9733-0.1008,1.9459-0.2093,2.9122c-0.079,0.704-0.1771,1.4055-0.2885,2.105 c-0.133,0.8352-0.3232,1.652-0.3224,2.4999c0.0016,1.4504,2.1148,1.7324,2.5168,0.3406c0.2361-0.8177,0.2595-1.6561,0.3004-2.5029 c0.0378-0.7835,0.0578-1.5677,0.0637-2.3521c0.0074-0.9709-0.0035-1.94-0.0283-2.909c0.3176,0.0146,0.6352,0.0294,0.9528,0.044 c1.4954,0.069,2.9907,0.1381,4.486,0.2071c0.6244,0.0289,1.1563-0.5521,1.1563-1.1563c0-0.6819-0.5328-1.0876-1.1563-1.1563 c-1.4666-0.1613-2.9331-0.3227-4.3997-0.484c-0.7189-0.0791-1.4378-0.1582-2.1567-0.2373 c-0.3434-0.0378-0.6904-0.0971-1.0352-0.1139c-0.5536-0.027-0.8486,0.2112-1.2918,0.3871 C106.9556,60.5176,106.7003,61.5307,107.4675,61.9869z M121.4577,72.8059c0.7908,0.1069,1.5049-0.4882,1.7317-1.224 c0.1525-0.4947,0.1674-1.0427,0.2355-1.5541c0.1042-0.7824,0.2084-1.5648,0.3127-2.3473c0.1482,0.0465,0.2943,0.0975,0.4435,0.1421 c0.9803,0.2928,1.9768,0.524,2.9805,0.7202c-0.0494,0.198-0.08,0.4003-0.1345,0.597c-0.1038,0.3746-0.2068,0.7498-0.3204,1.1216 c-0.1202,0.3937-0.3069,0.7954-0.3622,1.2018c-0.0961,0.7076,0.109,1.3995,0.829,1.6891c0.6608,0.2657,1.4121,0.0382,1.788-0.5859 c0.444-0.7372,0.6458-1.735,0.8296-2.5717c0.1935-0.8813,0.3268-1.7767,0.4306-2.6727c0.1928-1.6647,0.2039-3.3435,0.0507-5.0118 c-0.0602-0.6555-0.517-1.2188-1.2188-1.2188c-0.6451,0-1.2386,0.5578-1.2188,1.2188c0.0353,1.1774-0.0068,2.3593-0.1475,3.5283 c-0.9024-0.2295-1.7979-0.4854-2.6768-0.7941c-0.2948-0.1036-0.5861-0.2169-0.8788-0.3256c0.127-0.9532,0.254-1.9065,0.381-2.8597 c0.09-0.6753-0.598-1.2935-1.2058-1.3658c-0.6296-0.0749-1.4046,0.3057-1.5258,0.9962c-0.1584,0.9025-0.3168,1.8051-0.4752,2.7076 c-0.0954,0.0334-0.1908,0.0684-0.2888,0.1218c-0.4387,0.2392-0.6245,0.7848-0.5098,1.2528c0.0745,0.304,0.2386,0.5244,0.4314,0.7177 c-0.0397,0.2261-0.0794,0.4522-0.1191,0.6783c-0.1547,0.8816-0.3094,1.7632-0.4642,2.6447 c-0.0892,0.5082-0.2259,1.0375-0.2275,1.5552C120.1258,71.9312,120.6864,72.7016,121.4577,72.8059z M136.9924,70.5896 c1.4458,0.2176,2.9285,0.1625,4.389,0.1878c0.6675,0.0115,1.3351,0.0231,2.0026,0.0346c0.8506,0.0147,1.8096,0.1312,2.5741-0.3105 c0.9438-0.5454,0.9194-1.9315,0-2.4825c-0.7128-0.4272-1.618-0.3414-2.42-0.3403c-0.6932,0.0009-1.3864,0.0018-2.0796,0.0026 c-0.7865,0.001-1.5908-0.03-2.3906-0.0249c0.3195-1.6779,0.7893-3.3782,1.1865-5.0617c0.3051-1.2933-1.5923-1.8165-1.9888-0.5483 c-0.674,2.1555-1.2482,4.3954-2.136,6.4222c-0.1927,0.4401-0.2653,0.8287-0.0728,1.285 C136.2141,70.1264,136.5636,70.525,136.9924,70.5896z M150.9051,65.1213c1.3131,0.0466,2.4313-0.5103,3.3859-1.329 c-0.0335,0.552-0.0588,1.1039-0.11,1.6563c-0.0854,0.9227-0.1708,1.8453-0.2562,2.768c-0.0405,0.4381-0.0428,0.8969-0.123,1.3287 c-0.1104,0.595-0.2762,1.0716-0.1122,1.6942c0.1535,0.5832,0.7273,1.0096,1.326,1.0096c0.6578,0,1.0877-0.443,1.326-1.0096 c0.2213-0.5261,0.0807-1.0373,0.0777-1.5835c-0.0027-0.4781,0.0448-0.9617,0.0693-1.4394c0.0474-0.9227,0.0947-1.8453,0.142-2.768 c0.097-1.8917,0.3214-3.7614,0.4946-5.6467c0.1265-1.3762-1.8015-1.6766-2.4472-0.6628c-0.8355,1.3117-1.8881,3.1682-3.5375,3.5158 c-0.218,0.046-0.4866,0.027-0.7633-0.048c-0.2926-0.0793-0.6191-0.2333-0.8626-0.4354c-0.2304-0.1912-0.439-0.4099-0.5532-0.7009 c-0.0119-0.0304-0.0209-0.1873-0.0474-0.3337c-0.022-0.121-0.0647-0.2374-0.1182-0.3477c0.2488-0.806-0.9534-1.2225-1.3896-0.5419 c-0.0443,0.0691-0.0804,0.1406-0.1187,0.2111c-0.8679,0.7355-0.2957,2.3348,0.3568,3.1097 C148.4372,64.5095,149.6812,65.0778,150.9051,65.1213z" style="fill: inherit;"/></g></svg>