<svg xmlns="http://www.w3.org/2000/svg" xmlns:xlink="http://www.w3.org/1999/xlink" preserveAspectRatio="xMidYMid meet" version="1.0" viewBox="-0.5 -1.1 229.0 308.4" zoomAndPan="magnify" style="fill: rgb(30, 30, 30);" original_string_length="7977"><g id="__id159_sqigv5k1gm"><path d="M200.5,204c-14.5,9.8-40,19.5-56.7,24.9l0.1-3.8c-9.3,24.4-20.4,50.1-41.2,64.4c-9.6,6.6-21.1,10-32.7,11.7 c-15.9,2.3-33.1,1.5-46.3-7.7C10.7,284.5,9,261.9,9,245l2.6-8.4c2.4-11.4,6.4-23.5,11-35.3c-4.8-14.2-11.6-33.3-15.9-46 C4,146.8,1.1,138,2.5,129.3c0.7-4.5,2.5-8.7,4.2-12.8c5-11.7,10.8-24.4,22.4-29.8c3.4-1.6,7.1-2.4,10.8-3.2 c13.3-2.9,26.7-5.8,40-8.8l-5,12c9.2-19.2,18.5-37.5,24-45.9c7.6-11.4,15.9-23.1,27.8-29.9s32.9-11.5,43.9-2.5l0,0 c26.6,12.8,27.6,41.5,27.1,66.4c-0.2,12.2-2.6,24.2-6.3,35.9l2.6-3.1c5.1,14.5,17.5,34.1,22.6,48.5C219.5,164.7,210.9,197,200.5,204 z M200.5,204c-14.5,9.8-36.8,22-53.4,27.4c0,0-9,37.9-33.9,56.9c-9.3,7.1-31.6,11.2-43.1,12.9c-15.9,2.3-33.1,1.5-46.3-7.7 C10.7,284.5,9,261.9,9,245l2.6-8.4c2.4-11.4,6.4-23.5,11-35.3c-4.8-14.2-11.6-33.3-15.9-46C4,146.8,1.1,138,2.5,129.3 c0.7-4.5,2.5-8.7,4.2-12.8c5-11.7,10.8-24.4,22.4-29.8c3.4-1.6,7.1-2.4,10.8-3.2c13.3-2.9,26.7-5.8,40-8.8l-5,12 c9.2-19.2,18.5-37.5,24-45.9c7.6-11.4,15.9-23.1,27.8-29.9s32.9-11.5,43.9-2.5l0,0c26.6,12.8,27.6,41.5,27.1,66.4 c-0.2,12.2-2.6,24.2-6.3,35.9l2.6-3.1c5.1,14.5,17.5,34.1,22.6,48.5C219.5,164.7,210.9,197,200.5,204z" style="fill: rgb(254, 254, 253);"/></g><g id="__id160_sqigv5k1gm"><path d="M15.7,157.2c-2.8-8.4-5.6-17.1-4.3-25.9c0.7-4.5,2.5-8.7,4.2-12.8c5-11.7,10.8-24.4,22.4-29.8 c3.4-1.6,7.1-2.4,10.8-3.2c9.3-2,20.7-5,31.2-7.6C63.8,111.1,36,168.2,26.4,188C22.6,177.1,18.6,165.7,15.7,157.2z M225.5,158.1 c-0.3-0.9-0.7-1.8-1-2.7c0,0,0,0,0,0c-5.1-12.9-15.7-31.8-21.4-45.4c0-0.1-0.1-0.2-0.1-0.4l0,0c-0.3-0.8-0.7-1.6-1-2.4 c2.7-9.9,4.5-20.1,4.7-30.4c0.5-24.9-2.2-50.5-27.1-66.4c-4-2.6-8.6-4.5-13.8-4.9c0,0,41.2,16.3,31.3,78.8 c-6.3,39.2-16,74.3-34.9,105.2c-4.5,10.5-12,23.5-16,33.9c-4.1,10.6-8.7,17.5-14,29.9c-16.2,38.1-47.3,51.8-75,50.6 c7.2,0.7,14.7,0.3,21.9-0.7c11.6-1.7,23.1-5.1,32.7-11.7c20.7-14.3,31.9-40,41.2-64.4c0,0,42-11.3,56.5-21.1 C219.9,199,228.5,166.7,225.5,158.1z" style="fill: rgb(255, 150, 196);"/></g><g id="__id161_sqigv5k1gm"><path d="M215.9,150.1c-6.2-14.5-15.3-27.8-20.9-42.6c-0.3-0.7-0.3-1.8-0.8-2c2-7.4,4.9-14.6,5.6-22.4c2.5-27.4-0.2-61-27.4-75 c-0.1-0.3-1.2,0.1-1.4-0.1c-6.7-7.6-18.7-9.1-27.8-7.2c-11.4,2.4-22.3,8.7-30.6,17C99.4,30.8,91.9,48.8,83.5,65.2 c-1.6,3.1-4.1,5.6-5.6,8.7c-7.8,1.5-15.6,2.2-23.4,3.8c-7.6,1.6-15.1,5-22.5,7.5C20.2,89.3,11.8,98.1,6.8,109 c-2.7,5.9-4.1,12.8-5.5,19.1c-1.6,7.1-1.8,14.7,0.2,21.7C6.4,166.5,14.3,182.2,19,199c0.3,1.1,0.1,1.2,1,1.2 c-4.2,11.7-7.2,23.8-9.5,36c-0.1,0.6,0.5,0.8,0.7,0.2c5.9-24.7,19.4-46.8,30.7-69.4c5.9-11.8,9.2-24.8,14.7-36.8 c7.6-16.6,17.2-32.3,25.1-48.8c6.5-13.6,12-28,20.5-40.6c7.9-11.6,16.9-24.6,30.1-30.4c12.1-5.4,25.3-6,37.4-0.1 c0.5,0.3,0.7,1,1.1,0.9c22.7,12.7,26.4,38.1,25.9,61.8c-0.3,16.6-4.9,32.8-10.9,48.2c-5.8,15.3-14.8,29.1-21.1,44.2 c-11.7,28.2-18.9,58.7-32.8,85.9c-6.1,12-14.9,22.3-25.2,31c-11.7,10-27.1,15.2-42.2,16.6c-14.6,1.4-36,0.8-45.1-12.7 c-4.2-6.2-6.2-14-7.5-21.9c0.4,0.1,0.9-0.1,1-0.7c1.7-10,3.9-19.7,7.2-29.2c-1.3,5-3.1,9.8-4,14.9c-2.9,15.3-0.9,34.7,13.9,43.5 c1.5,0.9,2.7-1.2,1.2-2.1c-21.7-13.4-11.2-45.5-6.3-65.3c0.1-0.4-2.9-1.8-3.2-1.4c-5.4,8.6-8.8,19.3-11.2,29.6 c-0.1-0.7-0.1-1.3-0.2-2c0-3,0.5-5.9,1.5-8.8c0.3-0.9-0.5-1.7-0.8-0.8c0.2,0.4,0.2,0.7,0.2,0.7c-0.6,1.8-1,3.4-1.2,5.1 c-0.1-0.9-0.2-1.8-0.3-2.7c-0.3-1.9-1.5-2-1.8-0.1c-1.7,13-2.3,27.3,3.4,39.3c6.1,13,20.3,19,33.9,20.9c15.2,2.1,32.8-0.2,47-5.9 c13.8-5.5,25.5-14.9,33.4-27.3c8.1-12.8,12.8-27.5,18.2-41.6c0.1,0,0.1-1.3,0.2-1.4c12.4-3.7,25-6.6,36.9-11.8 c9-3.9,20.7-8,26.7-16.2c5.7-7.9,8.6-18.3,10.6-27.8C219.9,164.7,219.4,158.2,215.9,150.1z M39.1,155.3c-6,13.3-11.2,28.3-16.4,42 c-5.2-13.7-7.7-29.4-12.2-43.2c-2.4-7.6-4.9-14.7-4.4-22.8c0.4-7,3.2-13.1,6.1-19.4c5.4-11.8,11.2-21.8,24.4-25.2 c13.3-3.4,26.5-6.8,39.9-10C63.6,102.7,51.1,128.8,39.1,155.3z M215.3,165.4c-0.7,6-2.2,12.2-4.1,17.9c-1.9,5.6-5.6,10.7-9.3,15.4 c-3.7,4.6-9.3,7.8-14.4,10.4c-13.5,6.9-27.6,12.4-41.9,17.6c5.4-14.4,11.4-28.2,17.3-42.3c9.7-22.9,21.8-45.2,29.8-68.9 c0.6-0.2-0.4-0.2,0.2-0.5c0.2-0.7,0.5-1.5,0.7-2.2c5.3,13.3,11.3,25.7,17,38.8C212.7,156.6,215.9,159.9,215.3,165.4z M210.2,167.9 c0.6,1.5,0.8,2.3-0.6,2.1c-1.3,0.6-1.6-0.2-1.4-1.9c-1.1-1.9-0.3-5.4-0.9-7.5c-0.7-2.4-2.1-4.6-2.9-6.9c-2.7-8.4-5.2-17-9.3-24.8 c-0.4-0.8-3.6,0.2-3.6,1c-0.4,9.1,3.4,17.2,6.5,25.7c3.1,8.6,6.9,19,6.3,28.4c-0.1,1,4.3,1.6,4.5,0.6c1.4-7.6-4.5-17.8-7.3-24.7 c-3.2-7.9-7-15.9-7.2-24.4c3.9,9.8,8.3,19.4,11,29.6c0.7,2.7,1,7.4,4.2,8.8c2,0.9,2.3,0.8,3.1-1.1c1.7-3.9,1.4-10.3,0.4-14.2 c-1.2-5.1-4-9.8-6.2-14.5c-3.8-8.1-8.9-15.8-12.4-24c4.7,13.4,13.2,25.2,16.4,39.2C211.2,161.6,210.8,165.5,210.2,167.9z M112.7,48.9c-13.2,16.7-23.5,34.4-32.1,53.7c-10.6,23.8-20.5,48-31.7,71.5c-10.3,21.6-21.2,43.2-23.4,67.3 c-1,10.6-1.2,22.7,5.4,31.6c5,6.8,13.6,10.9,21.9,12.5c19.9,3.9,38.6-6.2,51.4-20.6c15.3-17.2,26.3-39.7,36.4-60.3 c10.8-22.1,17.4-46,26.3-68.9c4.8-12.4,10.6-24.4,13.2-37.5c1.4-6.8,2.8-13.7,3.9-20.6c0.9-5.7,2.1-11.8,2.1-17.6 c0.2-17.6-12.7-39.4-32.5-38.9c-2.1,0.1-2.1,4.1,0,4.1c19.2-0.5,29.9,21.6,28.3,38.2c-1,10.7-2.7,21.6-4.8,32.2 c-2,10.5-5,20.9-8.4,31c-7.3,21.4-17.7,41.8-27.2,62.4c-9,19.6-18,39.5-30.1,57.4c-10.8,15.9-25.3,32.6-45.7,33.9 c-8.1,0.5-16.1-4.1-22.6-9.1c-8.4-6.5-10.9-16.1-11-26.2c-0.1-22.6,7.3-44.5,16.9-64.5c9.9-20.7,20.1-41.1,29.4-62.1 c9-20.6,18.4-40.6,30.8-59.4c5.5-8.4,10-18.1,17.5-25c5.6-5.2,13.6-8.6,21.6-8.6c1.2,0,1.1-2,0-2C132.9,22.8,121.1,38.3,112.7,48.9z M175.9,16.6c-0.5,0-0.6,2.1-0.6,2.1c-13-12.2-35.5-15-47.2,0.8c-0.5,0.7,0,1.5,0.6,1c6.7-4.6,12.9-9.2,21.2-9.9 c9.1-0.7,17.9,2.7,24.8,8.6C175.5,19.8,176.6,17.2,175.9,16.6z M192.8,114.9c-0.1,0.2-0.1,0.3-0.2,0.5c0.5,1.6,1.1,3.1,1.7,4.6 C193.7,118.3,193.2,116.6,192.8,114.9z M96.5,211.5c3.9-5.1,7.2-10.4,10.3-15.9c6.1-10.9,12.4-21.8,17.1-33.4 c5.8-14.2,11.5-28.7,16.6-43.2c2-5.9,8.4-30.2-3.3-30.4c-0.4,0-0.5-0.9-0.8-0.7c-2.4-1-5.6-0.5-8.2,0.2c-10.2,2.8-16.4,14.8-20,23.7 c-3.7,9.3-5.7,19.4-8.9,28.9c-0.6,1.2,0.7,3.1,0.1,4.3c-0.6,1.3-3.3,1.8-3.2,3.1c-4.8,12-11.3,22.9-17.1,34.4 c-4.5,8.9-11.3,20.5-10.6,30.9c0.6,8.4,9.7,14.1,17.7,10.2C91,221.3,93.3,215.7,96.5,211.5z M129.9,131.9c0-0.1,0.1-0.2,0.1-0.3 C130,131.7,129.9,131.8,129.9,131.9z M133.8,91.7c0.5,0.1,0.3,1.3,0.8,1.5c0.8,9.9,0.4,20-2.1,29.6c-0.3-7-0.5-14.2-1.1-21.2 c-0.2-1.9-4.2-2.7-4.8-0.9c-0.4,1.1-0.7,2.2-1,3.3c-0.7-0.2-1.9-0.1-2.4,0c-0.4-0.8-1.7-2.2-2.6-2.2c0.9-2.5,1.9-4.8,3.8-6.5 C126.7,93.2,130.6,91.1,133.8,91.7z M114.6,144.5c0-0.1,0-0.2,0-0.3c1.9-5.1,2.3-10.8,4.2-15.9c0,1.4,2,3.1,2.1,4.5 c0.1,0.8-0.6,1.8,0.1,1.7c-0.3,0.6,0,0.8-0.2,1.4C119.1,139.1,117,141.9,114.6,144.5z M112.8,114.5c-0.2,0.4-0.4,0.7-0.6,1.1 C112.4,115.3,112.6,114.9,112.8,114.5z M100.7,184.2c1.8-3.5,4-6.8,5.8-10.3c6.6-10.8,13.4-21.6,19.1-32.9c-1,3.7-2,7.5-3.5,11.1 c-6.5,15.7-12.8,31.8-21.6,46.4c-0.1-0.7-0.8-1.7-1.3-2.1C100,192.4,100,188.2,100.7,184.2z M94.8,185c0.5-0.7,0.2-2.3,0.8-3 c0.1,0.1,1.9,0.9,2.1,1c-0.2,1.1-1.9,1.9-2.1,3c-0.9,1.7-1.3,3.7-2.1,5.4C93.8,189.2,94.4,187.1,94.8,185z M79.7,219.2 c-2.9-0.4-4.7-3-5-5.8c-0.5-3.9,1.9-7.5,3.4-11.4c-0.5,3.3-1.2,6.1-1.9,9.4c-0.3,1.4,0.8,2.8,2.2,2.5c3.9-0.8,7.9-1.9,11.5-3.8 c-1.1,1.1-2.2,2.2-3.3,3.3C84.5,215.6,82.9,219.7,79.7,219.2z M49.2,239.8c-0.9,6.9-1.5,14.2,4.3,19.2c2.8,2.4,5.6,5.1,9.1,5.8 c4,0.7,8.2,0.1,12-1.4c1.8-0.7,3.8-1.4,5.2-2.8c1.2-1.2,4.3-3.7,4.1-5.5c-0.1-0.9-2.9-2.3-3.9-1.6c-0.8,0.6-1.9,1.2-2.5,2.1 c-0.6,0.8-0.7,1.6-1.4,2.2c-1.5,1.2-2.4,3.8-4.3,4.3c-4.1,1-8.6-1.8-12.5-3.4c-3.7-1.5-5.5-3.6-6.7-7.4c-1.2-3.9-1.2-7.6-1.1-11.6 C51.6,238.4,49.3,238.6,49.2,239.8z M168.1,62.1c0.4,1.1,1.3,1.9,2.1,2.8c0.6,0.8,2,0.2,2-0.7c0.1-1.1,0.7-2.6,0.3-3.7 c-0.4-1.2-1.5-2.1-1.9-3.3c-0.9-2.2-1.6-4.8-3-6.6c-2.5-3.3-6.7-5.6-10.5-7.1c-7.9-3.1-16.6,0.1-23.4,5.1c-1.9,1.4-5.2,1.2-6.6,3.1 c-1.4,1.8-3.8,4.8-3.9,7.2c0,0.5,3.2,1.9,3.6,1.5c1.4-1.4,1.8-3.9,3.1-5.4c1.2-1.4,2.2-3.1,3.6-4.2c3-2.4,6.3-5,10.1-5.7 c7.3-1.5,16.2,1.2,21.1,7c1.5,1.7,2.8,4,3.7,6C168.7,59.1,167.7,60.9,168.1,62.1z" style="fill: inherit;"/></g></svg>