<svg xmlns="http://www.w3.org/2000/svg" xmlns:xlink="http://www.w3.org/1999/xlink" preserveAspectRatio="xMidYMid meet" version="1.0" viewBox="-1.9 -0.2 98.3 314.1" zoomAndPan="magnify" style="fill: rgb(30, 30, 30);" original_string_length="6035"><g id="__id126_sqigv5k1gm"><path d="M3.9,66.8C-1.9,52.9,6.4,46.7,12,47.1s11.8,8.7,11.8,8.7s1.4-3.3,3.1-12.2c2.7-6.6,12.6-2.5,23,9.5 c12-10.5,11.6-4.8,12.8,11c18-15.7,15.9-1.2,15.9-1.2s0.6,7.9-12.7,21.7s-29.8,7-29.8,7C16.9,91.4,9.7,80.7,3.9,66.8z M3.9,66.8 C-1.9,52.9,6.4,46.7,12,47.1s11.8,8.7,11.8,8.7s1.4-3.3,3.1-12.2c2.7-6.6,12.6-2.5,23,9.5c12-10.5,11.6-4.8,12.8,11 c18-15.7,15.9-1.2,15.9-1.2s0.6,7.9-12.7,21.7s-29.8,7-29.8,7C16.9,91.4,9.7,80.7,3.9,66.8z" style="fill: rgb(254, 254, 253);"/></g><g id="__id127_sqigv5k1gm"><path d="M20.4,256.2c6-5.2,33.3,7.9,33.3,7.9C27.2,272.5,14.4,261.5,20.4,256.2z M63.9,262.6c0,0,32.5-13.6,24.4-26.5 s-21.5,0.8-25.5,10.7c-4.1,9.9-4.4,15.5-4.4,15.5L63.9,262.6z M42,203.6c0,0,6.8-16.5,20.7-22.3s17.8,3.5,9.5,9.7S43,205.9,43,205.9 l-4.3-3.7c0,0-25.6-22-32.5-19.1s2.1,18.2,17.6,22.6C39.3,210.2,42,203.6,42,203.6z M39.2,144.8c0,0-0.4,5.6,18.2-2.1 s30-26.2,22-25.6c-22.8,4.1-36.5,23.5-36.5,23.5L39.2,144.8z M35,141.1c0,0-20-21.7-25.9-16.4c-6,5.2,13,24.6,30.2,20.1 C35,141.1,35,141.1,35,141.1z" style="fill: rgb(103, 144, 126);"/></g><g id="__id128_sqigv5k1gm"><path d="M51.9,90.4c0,0,18.6-7.8,15.1-22.7c-2.3,1-4.6,1.9-4.6,1.9s1.7-8.9-2.1-18.2s-13,8.1-13,8.1S48.4,42.8,34.9,43 s-7.7,14.1-7.7,14.1S15.7,42.8,12,47.1S9.5,67.2,23.3,80.5S47.3,92.3,51.9,90.4z M51.9,90.4c0,0,18.6-7.8,15.1-22.7 c-2.3,1-4.6,1.9-4.6,1.9s1.7-8.9-2.1-18.2s-13,8.1-13,8.1S48.4,42.8,34.9,43s-7.7,14.1-7.7,14.1S15.7,42.8,12,47.1 S9.5,67.2,23.3,80.5S47.3,92.3,51.9,90.4z M51.9,90.4c0,0,18.6-7.8,15.1-22.7c-2.3,1-4.6,1.9-4.6,1.9s1.7-8.9-2.1-18.2 s-13,8.1-13,8.1S48.4,42.8,34.9,43s-7.7,14.1-7.7,14.1S15.7,42.8,12,47.1S9.5,67.2,23.3,80.5S47.3,92.3,51.9,90.4z" style="fill: rgb(237, 49, 6);"/></g><g id="__id129_sqigv5k1gm"><path d="M86.5,245.3c2.9-4.8,2.3-13.5-4.9-13.4c-0.5,0-0.5,0.7,0,0.8c3.5,0.1,5.8,3.5,5.7,6.7c-0.1,2.8-1.9,4.7-3.8,6.4 c-2.5,2.2-5.7,3.7-8.6,5.4c-5,3-10.4,5.9-15.1,9.5c0-0.1-0.1-0.2-0.1-0.3c-0.4-0.8-0.7-1.5-1.1-2.3c0.7,0.2,1.7,0,1.8-0.9 c0.7-4.8,2.4-9.6,5.1-13.6c3-4.4,7.4-7.3,11.5-10.5c0.8-0.6,0.3-1.8-0.7-1.6c-11,1.8-18.2,14.2-18.8,24.6 c-7.6-15.8-16.3-32-16.5-49.7c8.4-2.5,17.8-5.3,25.4-9.8c6.1-3.6,10.6-9.3,10.7-16.5c0-0.6-0.4-1.3-1-1.4 c-15.9-2.2-26.4,8.7-35,20.4c0-16.7,0-33.5,0.1-50.2c0-1,0-2,0.1-3c0-0.1,0.1-0.2,0.1-0.2c8.7-1.4,16.2-4,23.5-9.7 c6.6-5.1,12.4-12,15.5-19.8c0.4-1.1-0.8-1.9-1.7-1.7c-15.4,2.5-29,13-37.3,26.2c0.3-6.8,0.7-13.6,0.7-20.4 c0.1-9.2-0.6-18.3-0.6-27.5c0.5,0,1.1,0,1.6,0c7.3,0.8,14.5-1.1,20.5-4.9c1-0.5,2.1-1.1,3.1-1.7c0.5-0.3,0.7-0.7,0.7-1.1 c7.5-6.1,12.6-15.3,12.7-25.4c0-1.3-1.4-2-2.5-1.5c-5.4,2.7-10,5.9-14.1,9.8c0.5-1.8,0.9-3.5,1.1-5.3c0.2-0.1,0.5-0.2,0.6-0.5 c3.4-5.6,6.4-11.3,9-17.4c2.1-5.1,4.5-10.4,4.7-16c0-0.8-1.1-1.1-1.5-0.4c-2.8,4.7-4.2,10-6.2,15.1c-2,4.9-4.1,9.7-6.4,14.3 c-0.2-3.1-1-6.1-2.5-8.9c-1.9-3.4-5.7-5.9-9.2-3.2c-2.4,1.8-3.7,5.3-5.2,7.9c-0.6,1.1-1.2,2.2-1.8,3.3c0-0.3,0-0.5,0-0.8 c0,0,0,0,0,0c2.2-7.1,3.8-14.3,4.9-21.6c0.9-6.1,2.1-13.3,0.5-19.3c-0.3-1.2-2.1-1.2-2.4,0c-1.6,5.9-1.1,12.7-1.8,18.8 c-0.5,4.8-1.3,9.5-2.4,14.2c-0.3-0.6-0.5-1.2-0.9-1.8c-2.3-3.9-6.8-6.5-11.3-6.4c-5.4,0-7.6,2.7-8.3,6.3c-1.2-2.7-2.4-5.5-3.6-8.2 c-1.7-3.8-3-8.1-5.9-11.1c-0.7-0.7-2.1-0.2-2,0.8c0.5,4.1,2.7,7.6,4.6,11.2c2.3,4.5,4.6,9,6.9,13.5c0,0,0,0.1,0.1,0.1 c0.1,0.8,0.2,1.6,0.3,2.4c-3.7-5.4-8.6-9.6-15.6-10.3c-1-0.1-2.4,0.9-2.5,1.9C4.7,61,10.1,76.9,21.8,85.6c5.2,3.9,10.9,6.1,16.9,6.8 c0,9.3-0.8,18.5-0.9,27.8c0,7.5,0.3,14.9,0.5,22.3c-0.2,0.1-0.5,0.1-0.7,0.2c-0.1,0-0.3,0.1-0.4,0.2C31,136.5,25,129.3,18,123.9 c-4-3.1-11.2-4.1-12.1,2.6c-0.8,6,7.4,11.7,11.5,14.8c6,4.6,12.7,7.4,20,5.6c0,0,0.1,0.1,0.1,0.1c0.2,0.2,0.4,0.3,0.6,0.3 c-0.3,0.6-0.6,1.3-0.9,1.9c-0.3,0.8,0.5,1.4,1.2,1.3c-0.1,17.3-0.9,34.9-0.7,52.2c-5.7-5.7-11.9-10.9-18.7-15.2 c-5.2-3.2-12.3-8.3-18.2-4c-0.5,0.4-1,1.1-0.7,1.8c5.8,15,21.3,26.7,37.8,21.2c0,1,0,2.1,0.1,3.1c0.7,17.5,10.5,34.1,17.7,49.7 c0.4,0.8,0.8,1.7,1.2,2.5c0,0,0,0,0,0c-0.3,0.2-0.7,0.4-1,0.6c-9-3.6-18.2-7-27.7-8.7c-5.2-0.9-14.5-0.3-11.4,7.2 c2.9,7.1,11.4,8.4,18.2,8.3c6.6-0.1,14.1-0.4,20-3.8c1.2,0.4,2.4,0.7,3.5,1.1c0.3,0.1,0.5,0.1,0.7,0.1c7.4,15.5,15.2,30.8,23.3,45.9 c0.7,1.4,2.8,0.2,2.1-1.2c-7.9-15.8-15.6-31.7-23.1-47.7c5.1-2.5,9.8-5.9,14.5-9.1C79.6,251.9,84.1,249.3,86.5,245.3z M50.8,55.5 c0.8-1.5,1.9-4.8,3.3-5.8c2-1.4,4.6-0.9,5.7,1.1c0.7,1.3,1.1,2.8,1.3,4.3c1.2,6.6,0.1,13.3-2.8,19.1c-2,2.4-3.8,5.1-5.5,7.9 c-0.8,1.4,1.1,2.9,2.3,1.7c2-2.1,3.8-4.6,5.3-7.4c4.6-5.4,10.3-10,16.4-13.6C75.7,72.9,69,81.6,60.2,86.2c-7.2,2.9-14.9,3.8-22,2 c2.2-6.8,4.8-13.6,6-20.6C46.4,63.5,48.6,59.5,50.8,55.5z M12.2,49.9c8.1,0.3,12.4,11.6,14.6,18.1c0.1,0.4,0.3,0.7,0.6,0.9 c0.5,5,2.3,10.1,4.2,14.6c0.6,1.4,2.9,0.9,2.4-0.7c-1.6-4.8-2.3-9.8-3.3-14.7c0.1-0.2,0.2-0.5,0.3-0.8c0.5-3.5-0.2-6.8-1.2-10.2 c-1.2-4.1-4.1-10.7,1-13.4c4.4-2.4,9.7,1.2,11.4,5.4c2.4,5.7,0.4,12.2-1.2,17.8c-0.1,0.3-0.1,0.7,0,0.9c-2.1,6.3-3.1,13.2-4.4,19.7 c-4.2-1.4-8.2-3.7-11.7-7.3C16.8,72.1,13,61.2,12.2,49.9z M42.7,201.8c8-9.4,18.2-21.8,31.8-20.5c-1.3,14.8-21.6,17.3-33.1,21.4 c0-0.2,0-0.4,0-0.5C41.7,202.3,42.3,202.2,42.7,201.8z M77.2,118c-4.6,14-18.8,19.5-32.5,23.1C52.9,130.2,64,122.8,77.2,118z M20.7,140.6c-2.2-1.5-16.7-11.7-10.7-15.1c3.9-2.3,10.9,6.3,13.3,8.5c4,3.7,8,7.3,12,10.9C30.2,145.4,25,143.5,20.7,140.6z M3.5,185.8c5.5-1.8,13.7,4.9,17.9,7.7c4.9,3.3,9.6,7,14,11C21.5,206.4,7,200.4,3.5,185.8z M38.9,266.1c-5.7,0.2-16.2,1-18.9-5.7 c-1.2-2.8,0.9-2.6,3.3-2.7c1.8,0,3.6,0.2,5.3,0.6c3.5,0.7,7,1.7,10.5,2.7c4.1,1.1,8.2,2.1,12.3,3.3C47.4,265.6,43.3,266,38.9,266.1z M80.5,254.7c0.1,0,0.1-0.1,0-0.1C80.5,254.6,80.5,254.7,80.5,254.7L80.5,254.7z M8.4,20.8c4,0,4-6.2,0-6.2 C4.4,14.6,4.4,20.8,8.4,20.8z M45.9,4.1c0.3,0.3,0.7,0.4,1.2,0.4c0.2,0,0.5,0,0.7,0c0.8,0,1.5-0.4,1.9-1.1C50,3,50.1,2.7,50.1,2.2 c0-0.3-0.1-0.6-0.2-0.9c-0.1-0.3-0.2-0.5-0.5-0.7c-0.3-0.3-0.6-0.5-1-0.6c-0.8-0.2-1.6,0-2.2,0.6c-0.2,0.2-0.3,0.3-0.5,0.5 c-0.6,0.6-0.7,1.4-0.4,2.1C45.5,3.6,45.6,3.9,45.9,4.1z M80.6,22.2c3.6,0,3.6-5.5,0-5.5C77.1,16.7,77.1,22.2,80.6,22.2z" style="fill: inherit;"/></g></svg>