<svg width="12" height="23" viewBox="0 0 12 23" fill="none" xmlns="http://www.w3.org/2000/svg">
<path d="M2.31 21.749C1.628 21.243 1.177 20.638 0.957 19.934C0.737 19.208 0.572 18.416 0.462 17.558C0.484 17.316 0.517 16.931 0.561 16.403C0.627 15.875 0.693 15.281 0.759 14.621C0.847 13.939 0.913 13.224 0.957 12.476C1.023 11.728 1.089 11.024 1.155 10.364C1.221 9.682 1.265 9.077 1.287 8.549C1.331 7.999 1.364 7.603 1.386 7.361C1.408 7.207 1.419 6.954 1.419 6.602V4.391C1.419 4.039 1.408 3.786 1.386 3.632L1.881 3.17L10.23 0.397999H11.154C11.242 0.639999 11.253 0.903999 11.187 1.19C11.121 1.476 10.945 1.663 10.659 1.751L3.729 4.589L3.267 5.018C3.245 5.04 3.212 5.238 3.168 5.612C3.146 5.964 3.102 6.393 3.036 6.899C2.992 7.383 2.937 7.878 2.871 8.384C2.827 8.89 2.805 9.319 2.805 9.671C2.805 9.737 2.794 9.891 2.772 10.133C2.772 10.353 2.772 10.584 2.772 10.826C2.772 11.068 2.772 11.299 2.772 11.519C2.794 11.739 2.805 11.893 2.805 11.981L10.659 7.823C10.791 7.735 10.89 7.746 10.956 7.856C11.022 7.966 11.055 8.109 11.055 8.285C11.055 8.461 11.022 8.648 10.956 8.846C10.89 9.022 10.791 9.143 10.659 9.209C10.373 9.407 10.01 9.638 9.57 9.902C9.13 10.144 8.668 10.408 8.184 10.694C7.722 10.958 7.249 11.222 6.765 11.486C6.303 11.75 5.874 11.992 5.478 12.212C5.104 12.41 4.796 12.586 4.554 12.74C4.334 12.872 4.213 12.938 4.191 12.938H2.31V18.944C2.31 19.758 2.497 20.275 2.871 20.495C3.245 20.737 3.707 20.792 4.257 20.66C4.829 20.528 5.434 20.264 6.072 19.868C6.732 19.472 7.348 19.054 7.92 18.614C8.514 18.174 9.02 17.767 9.438 17.393C9.856 16.997 10.12 16.744 10.23 16.634C10.274 16.194 10.373 15.831 10.527 15.545C10.615 15.281 10.747 15.105 10.923 15.017C11.099 14.907 11.33 14.984 11.616 15.248C11.704 15.798 11.605 16.403 11.319 17.063C11.055 17.701 10.659 18.328 10.131 18.944C9.625 19.538 9.02 20.088 8.316 20.594C7.634 21.1 6.93 21.496 6.204 21.782C5.478 22.09 4.774 22.255 4.092 22.277C3.41 22.299 2.816 22.123 2.31 21.749Z" fill="#FF5CAA"/>
</svg>
