<svg xmlns="http://www.w3.org/2000/svg" xmlns:xlink="http://www.w3.org/1999/xlink" preserveAspectRatio="xMidYMid meet" version="1.0" viewBox="-2.5 -6.2 178.6 327.9" zoomAndPan="magnify" style="fill: rgb(30, 30, 30);" original_string_length="7596"><g id="__id139_sqigv5k1gm"><path d="M152,313.1c-10.4-4.5-22.2-2.4-33.5-2.9s-26.6-1.1-29.2-12c-1.1-4.8-2.9-12.3-3.2-17.3s1.6-10-3.2-10.8 c-1.8-0.3-3-2.2-4.8-1.9c-14.9,2.1-36.1-8.1-38.4-22.9c-2-12.9,7.2-24.3,3.2-36.7c-1.9-5.8-3.6-10.4-7.6-15.1 c-4.6-5.5-9.4-10.7-14-16.2C16.4,171.5,7,161.6,4,154.6S1.7,138,5.2,131.3s10.5-10.9,13.8-17.6c2.4-5,2.5-10.8,2.5-16.4 c0-20.1-1.4-39.2-1.4-59.3c0-11.9,1.1-32.4,7.6-34.6C35,1,34,2.5,34.4,2.5c1.7-0.2,3.2,0.5,3.4,2.2c4,28.4,19.5,55,42.3,72.5 c11.1,8.5,24.8,16.2,28.4,29.8c2.7,10.4-1.3,21.8,2,31.9c3,9.2,11.4,15.5,19.8,20.3s17.6,8.7,24.2,15.9c9.7,10.5,11.8,27.2,5.1,39.8 c-0.9,1.7-1.9,3.3-2.1,5.2c-0.2,2,0.6,3.9,1.4,5.8c3.3,7.4,9.3,14.2,9.8,22.3c1.1,17.2-6.5,19.3-2.2,28c3.9,7.9,7.9,23.8,9.4,38.9 c0.2,2-1.7,3.6-3.7,3C164.6,315.8,152,313.1,152,313.1z M152,313.1c-10.4-4.5-22.2-2.4-33.5-2.9s-26.6-1.1-29.2-12 c-1.1-4.8-2.9-12.3-3.2-17.3s1.6-10-3.2-10.8c-1.8-0.3-3-2.2-4.8-1.9c-14.9,2.1-36.1-8.1-38.4-22.9c-2-12.9,7.2-24.3,3.2-36.7 c-1.9-5.8-3.6-10.4-7.6-15.1c-4.6-5.5-9.4-10.7-14-16.2C16.4,171.5,7,161.6,4,154.6S1.7,138,5.2,131.3s10.5-10.9,13.8-17.6 c2.4-5,2.5-10.8,2.5-16.4c0-20.1-1.4-39.2-1.4-59.3c0-11.9,1.1-32.4,7.6-34.6C35,1,34,2.5,34.4,2.5c1.7-0.2,3.2,0.5,3.4,2.2 c4,28.4,19.5,55,42.3,72.5c11.1,8.5,24.8,16.2,28.4,29.8c2.7,10.4-1.3,21.8,2,31.9c3,9.2,11.4,15.5,19.8,20.3s17.6,8.7,24.2,15.9 c9.7,10.5,11.8,27.2,5.1,39.8c-0.9,1.7-1.9,3.3-2.1,5.2c-0.2,2,0.6,3.9,1.4,5.8c3.3,7.4,9.3,14.2,9.8,22.3c1.1,17.2-6.5,19.3-2.2,28 c3.9,7.9,7.9,23.8,9.4,38.9c0.2,2-1.7,3.6-3.7,3C164.6,315.8,152,313.1,152,313.1z" style="fill: rgb(254, 254, 253);"/></g><g id="__id140_sqigv5k1gm"><path d="M41.8,34.1c4.4,15.6,30.1,41.6,36.1,45.4c5.9,3.8,22.7,19.4,24.8,32.4c-3.8,12.4-1.6,38.3,8.6,47.5 s40.5,13.5,45.4,26.5s-1.7,29.1-2.5,30.4c-0.8,1.3-3.9,2.9,4.3,17.1c8.9,18.5-10,21.5-1.4,39.9s5.6,37.3,5.6,37.3 s-20.8-0.6-48.8,0.5s-27-22.7-27-30.2s-5.4-11.9-11.1-12.5s-18-0.5-27.6-10.1s-0.1-31.5,2.1-47.7c2.2-16.2-25.7-30.7-37-43.8 c-11.1-19-3-35,8.9-43.6s8.6-33.5,6.5-69.1s5.4-47.5,5.4-47.5S37.4,18.5,41.8,34.1z M41.8,34.1c4.4,15.6,30.1,41.6,36.1,45.4 c5.9,3.8,22.7,19.4,24.8,32.4c-3.8,12.4-1.6,38.3,8.6,47.5s40.5,13.5,45.4,26.5s-1.7,29.1-2.5,30.4c-0.8,1.3-3.9,2.9,4.3,17.1 c8.9,18.5-10,21.5-1.4,39.9s5.6,37.3,5.6,37.3s-20.8-0.6-48.8,0.5s-27-22.7-27-30.2s-5.4-11.9-11.1-12.5s-18-0.5-27.6-10.1 s-0.1-31.5,2.1-47.7c2.2-16.2-25.7-30.7-37-43.8c-11.1-19-3-35,8.9-43.6s8.6-33.5,6.5-69.1s5.4-47.5,5.4-47.5S37.4,18.5,41.8,34.1z" style="fill: rgb(255, 150, 196);"/></g><g id="__id141_sqigv5k1gm"><path d="M164.8,279.6c-1.5-3.7-3.7-6.8-2.8-10.8s2.6-7.7,3.2-11.8c0.9-5.8,0.7-11.7-1.5-17.2c-2.3-5.8-8.8-12.8-8.7-19 c0.1-3,2.2-5.7,3.3-8.4s1.8-5.4,2.2-8.3c0.8-5.9,0.3-12-1.5-17.7c-4.2-12.8-14.1-19.9-25.9-25.2c-6.5-2.9-12.7-5.5-18-10.5 c-6.2-5.7-9.4-12.5-9.4-20.9c0-7,1.4-14,0.3-21c-0.9-5.8-3.7-10.9-7.5-15.3c-7.8-9.2-19.1-16.2-28.7-23.3 c-11.1-8.2-20.7-20.5-26.5-33c-2.9-6.3-4.5-13-6.3-19.7c-0.8-3.3-1.6-6.6-2.2-9.9c-0.4-2.1-0.7-4.4-2.4-6 c-8.1-7.8-13.3,17.1-13.8,20.9c-1.9,15.4-2.4,31.2-1.7,46.7c0.4,8.4,0.8,16.9,1,25.3s0.9,17.1-4.8,24.1c-3.7,4.6-8.6,8.3-11.2,13.7 c-2.6,5.4-2.7,11.5-1.4,17.2c3.3,14.3,16.9,25.3,25.5,36.4c5,6.1,10.8,12.1,12.9,19.7c2.2,7.8,0.2,16.3-0.9,24.1 c-1.6,12-0.2,23.7,9.3,32.2c4,3.5,8.9,6.1,14,7.3c2.3,0.6,4.7,0.8,7.1,0.8c3.5,0,8.3-1,11.2,1.3c5.8,4.5,2.4,14.9,3.2,21.2 c0.7,5.3,3.5,9.9,7.6,13.2c9.1,7.4,21.7,8.2,32.8,7.5c7.3-0.4,14.1-1,21.2,0.9c0.2,0.6,0.7,1,1.5,1.2c7.9,1.7,16.7,3,24.3,5.9 c1.2,0.5,2.5-0.7,2.5-1.9C172.8,306,169.7,291.9,164.8,279.6z M30.3,6c0.6,0.4,0.7,3.5,0.8,4.2c0.6,3,1.2,6.1,2.2,9.1 c1.7,5.6,4.3,10.9,7,16.1c5.7,11.3,12,22,20.5,31.5c3.9,4.3,7.4,8.5,12.1,12.1c2.2,1.7,4.5,3.4,6.8,5.1c-1.8,8-3.4,16-4.5,24.2 c-0.6,4.4-1.1,8.8-1.5,13.2c-0.2,2.3-0.4,4.5-0.5,6.8c-0.1,2.1-0.6,4.7,0.2,6.7c0.4,1,2.1,1.6,2.7,0.4c0.9-2,0.7-4.4,0.8-6.6 c0.1-2.3,0.1-4.5,0.3-6.8c0.2-4.4,0.5-8.7,1-13c0.8-7.9,1.8-15.7,3.4-23.5c2.3,1.7,4.5,3.4,6.7,5.2c4.7,4,9.2,8.5,11.5,14.3 c2.6,6.6,1.9,13.7,1.9,20.6c-0.1,12.5,4,21.9,14.2,29.3c10.4,7.6,23.7,13.3,32.1,23.4c4.4,5.2,6.8,12,7.2,18.8 c0.4,7.5-2.3,12.9-5,19.6c-2.4,6.2,1.5,12.2,4.6,17.5c3.9,6.7,6.6,12.4,6.2,20.4c-0.4,8.1-5,14.7-1.6,22.7c5,11.8,6.9,24.3,8.7,36.9 c-0.9-1.1-1.7-2.1-2.6-3.2c-1.2-1.5-2.6-2.8-4.1-4.2c-3.4-3.3-6.7-6.6-9.7-10.2c-3.1-3.6-6.3-7.1-8.6-11.4c-2.5-4.7-3.4-10-5.4-14.9 c-2.1-5.1-4.6-10-7.9-14.5c-2.8-3.8-5.9-7.5-9.6-10.5c-3.7-3.1-8-5.4-11.3-8.9c-1.9-2-3.4-4.2-4.7-6.5c3.3-7.5,5.1-15.7,7.2-23.6 c2.4-9,4.8-18,7.3-27c0.2-0.8-1-1.2-1.3-0.4c-2.6,8.8-5.3,17.6-7.9,26.4c-2.2,7.2-3.9,14.7-6.8,21.7c-3.5-7.8-4.7-16.9-6-25.2 c-0.7-4.5-1.6-8.9-2.7-13.2c0.1-0.1,0.1-0.2,0.2-0.3c0.5-1.7,0.5-3.6,0.6-5.4c0.1-1.8,0.1-3.7,0.3-5.5c0.2-3.7,0.6-7.3,1.1-11 c0.5-3.6,1.2-7.2,2.1-10.8c0.4-1.7,0.8-3.4,1.3-5.1c0.5-1.8,1.4-3.5,2.2-5.2c0.6-1.3,0.3-2.8-1.1-3.4c-1.2-0.5-3,0.1-3.2,1.6 c-0.3,1.9-0.4,3.8-0.9,5.7c-0.4,1.9-0.9,3.7-1.3,5.6c-0.8,3.7-1.5,7.3-2.1,11s-1,7.4-1.3,11.1c-0.1,0.8-0.1,1.6-0.2,2.3 c-1.5-4.9-3.1-9.8-5-14.6c-2.3-5.9-4.9-11.7-7.8-17.4s-6.4-11-10.1-16.2c-2.1-2.9-4.2-5.7-6.3-8.6c0.3,0,0.7-0.1,0.9-0.5 c1.4-2.7,0.8-6,0.8-8.9c0-3.2,0-6.5,0.1-9.7c0.2-6.4,0.5-12.7,1.1-19.1c0.1-1.5-2.2-1.5-2.4,0c-0.8,6.3-1.3,12.7-1.7,19.1 c-0.2,3.1-0.3,6.3-0.4,9.4c-0.1,2.5-0.5,5.4,0.3,7.8c-5.1-6.9-10.1-14-13.7-21.9C41.4,86.1,39,72.2,36.3,58.8 c-2.8-14.1-4.7-28.3-6.6-42.5c-0.4-3.2-0.9-6.5-1.5-9.7C28.8,5.8,29.5,5.4,30.3,6z M130.2,307.6c-7.2-0.6-14.5,0.3-21.6-0.8 c-5.1-0.8-10.3-2.5-14.4-5.8c-6.6-5.4-5.1-12.5-5.3-20.1c-0.1-4.6-1.4-9.6-4.9-12.8c-4.3-4-8.1-2-13.3-1.3 c-12.7,1.7-25.9-10.3-28.3-22.1c-2.7-13.4,5.2-26.9,0.5-40.2c-1.8-5.1-5.1-9.3-8.6-13.3c-5.4-6.3-11.2-12.3-16.3-18.8 c-8.8-11-20.5-27.6-10.8-41.7c3.4-4.9,8.4-8.6,11.5-13.8c3.4-5.7,3.7-12.2,3.8-18.6c0.4-15.6,1.5-31.1,1.2-46.7 C23.4,37.6,20.5,22,27,8.9c0-0.1,0.1-0.2,0.2-0.4c0.2,13.5,2.4,27,4.4,40.2c2.1,14,4.4,28.2,8.7,41.7c4.1,12.7,11.2,23.4,19,34.1 c7.7,10.5,15.1,21.3,21,33c5.8,11.7,9.6,24.3,11.8,37.1c2.2,12.6,1.7,25.7,7.8,37.3c1.5,2.8,3.2,5.5,5.2,7.9 c1.9,2.2,4.1,3.9,6.5,5.5c3.5,2.4,6.8,5.2,9.8,8.2c3.5,3.6,6.5,7.6,9,12c1.4,2.5,2.7,5.2,3.7,7.9c1,2.7,1.8,5.5,2.7,8.2 c1.6,4.6,4,9,6.6,13.1c0.6,1,1.3,2,2,2.9c-3.6-0.4-7.1-0.9-10.7-1.4c-2.6-0.4-5.2-0.8-7.8-1.2c-2.5-0.4-5.2-1.2-7.7-1 c-1.3,0.1-1.4,1.7-0.3,2.2c2.4,1,5.3,1,7.8,1.4c2.6,0.4,5.3,0.7,7.9,1c4.1,0.4,8.2,0.8,12.3,1.1c1.8,2.3,3.8,4.5,5.9,6.5 c3.1,3,6.3,6.2,10.1,8.2c0.2,0.1,0.5,0.2,0.7,0.4c-5.4-1.5-10.9-2.7-16.4-3.9c-0.6-0.1-1,0-1.5,0.2C140.7,309,135.6,308,130.2,307.6 z M112.4,251.5c-4.2,0.9-8.2-0.6-11.9-2.3c-3.5-1.6-7-3.3-10.6-4.6c-7-2.5-14.3-3.9-21.1-6.5c-1.8-0.7-3.6-1.6-5.4-2.5 c-1.8-1-3.4-2.3-5.3-3.2c-1.1-0.5-2.6,0.6-1.8,1.8c2.2,3,6,4.8,9.4,6.2c3.6,1.5,7.2,2.7,11,3.7c3.7,1,7.4,2,11.1,3.1 c3.9,1.2,7.7,2.9,11.5,4.5c4.3,1.8,9.1,3.1,13.8,1.8C114.2,253.1,113.7,251.2,112.4,251.5z M64.9,205.4c-1-0.2-2.1,1.2-1.1,2 c1.9,1.5,4.5,2.4,6.7,3.4c2.3,1.1,4.6,2.2,6.9,3.4c4.6,2.3,9.1,4.7,13.6,7.2c1,0.6,2-1,0.9-1.6c-4.4-2.6-8.9-5.1-13.4-7.5 c-2.3-1.2-4.5-2.4-6.8-3.6C69.6,207.5,67.3,205.9,64.9,205.4z M67.6,164.5c2.5,1.1,5.1,2.6,7.8,3.4c1.2,0.3,1.8-1.3,0.8-1.9 c-2.1-1.2-4.5-2-6.7-2.9c-2.4-1-4.7-2-7.1-3.1c-4.6-2-9.1-4.1-13.6-6.3c-8.1-4-15.8-8.9-23.9-12.9c-4.6-2.3-9.1-4.4-14-5.9 c-1.5-0.4-2.2,2-0.7,2.4c8.8,2.3,16.6,6.8,24.4,11.5c3.9,2.3,7.8,4.6,11.9,6.6c4.4,2.2,8.9,4,13.4,5.9 C62.4,162.3,65,163.4,67.6,164.5z M131.2,237.2c0.5-0.3,0.8-0.8,1-1.3c0.3-0.5,0.5-1,0.8-1.6c0.5-1,1-1.9,1.5-2.9c1-2,2-4,3-6 c0.5-1.1-1.1-2-1.6-1c-1,2-2.1,4.1-3.1,6.1c-0.5,1-1,2-1.5,3c-0.5,0.9-1.3,2.1-1.2,3.2C130.2,237.3,130.8,237.4,131.2,237.2z" style="fill: inherit;"/></g></svg>